  0
SECTION
  2
HEADER
  9
$ACADVER
  1
AC1009
  9
$EXTMIN
 10
0.0
 20
0.0
 30
0.0
  9
$EXTMAX
 10
1000.0
 20
1000.0
 30
0.0
  9
$FILLMODE
 70
 0
  9
$SPLFRAME
 70
 1
  0
ENDSEC
  0
SECTION
  2
TABLES
  0
TABLE
  2
LAYER
 70
1
  0
LAYER
  2
0
 70
     0
 62
     7
  6
CONTINUOUS
  0
ENDTAB
  0
ENDSEC
  0
SECTION
  2
ENTITIES
  0
LINE
  8
0
 62
     0
 10
318.896
 20
93.3909
 30
0.0
 11
319.053
 21
93.3842
 31
0.0
  0
LINE
  8
0
 62
     0
 10
319.053
 20
93.3842
 30
0.0
 11
319.209
 21
93.3662
 31
0.0
  0
LINE
  8
0
 62
     0
 10
319.209
 20
93.3662
 30
0.0
 11
319.363
 21
93.3358
 31
0.0
  0
LINE
  8
0
 62
     0
 10
319.363
 20
93.3358
 30
0.0
 11
319.515
 21
93.2931
 31
0.0
  0
LINE
  8
0
 62
     0
 10
319.515
 20
93.2931
 30
0.0
 11
319.662
 21
93.2381
 31
0.0
  0
LINE
  8
0
 62
     0
 10
319.662
 20
93.2381
 30
0.0
 11
319.804
 21
93.1732
 31
0.0
  0
LINE
  8
0
 62
     0
 10
319.804
 20
93.1732
 30
0.0
 11
319.941
 21
93.0963
 31
0.0
  0
LINE
  8
0
 62
     0
 10
319.941
 20
93.0963
 30
0.0
 11
320.071
 21
93.0092
 31
0.0
  0
LINE
  8
0
 62
     0
 10
320.071
 20
93.0092
 30
0.0
 11
320.194
 21
92.9114
 31
0.0
  0
LINE
  8
0
 62
     0
 10
320.194
 20
92.9114
 30
0.0
 11
320.31
 21
92.8053
 31
0.0
  0
LINE
  8
0
 62
     0
 10
320.31
 20
92.8053
 30
0.0
 11
320.416
 21
92.6895
 31
0.0
  0
LINE
  8
0
 62
     0
 10
320.416
 20
92.6895
 30
0.0
 11
320.515
 21
92.5671
 31
0.0
  0
LINE
  8
0
 62
     0
 10
320.515
 20
92.5671
 30
0.0
 11
320.602
 21
92.4359
 31
0.0
  0
LINE
  8
0
 62
     0
 10
320.602
 20
92.4359
 30
0.0
 11
320.679
 21
92.2983
 31
0.0
  0
LINE
  8
0
 62
     0
 10
320.679
 20
92.2983
 30
0.0
 11
320.744
 21
92.1561
 31
0.0
  0
LINE
  8
0
 62
     0
 10
320.744
 20
92.1561
 30
0.0
 11
320.799
 21
92.0101
 31
0.0
  0
LINE
  8
0
 62
     0
 10
320.799
 20
92.0101
 30
0.0
 11
320.84
 21
91.8573
 31
0.0
  0
LINE
  8
0
 62
     0
 10
320.84
 20
91.8573
 30
0.0
 11
320.872
 21
91.7042
 31
0.0
  0
LINE
  8
0
 62
     0
 10
320.872
 20
91.7042
 30
0.0
 11
320.89
 21
91.5472
 31
0.0
  0
LINE
  8
0
 62
     0
 10
320.89
 20
91.5472
 30
0.0
 11
320.897
 21
91.3903
 31
0.0
  0
LINE
  8
0
 62
     0
 10
320.897
 20
91.3903
 30
0.0
 11
320.897
 21
2.1897
 31
0.0
  0
LINE
  8
0
 62
     0
 10
320.897
 20
2.1897
 30
0.0
 11
320.89
 21
2.03399
 31
0.0
  0
LINE
  8
0
 62
     0
 10
320.89
 20
2.03399
 30
0.0
 11
320.872
 21
1.87827
 31
0.0
  0
LINE
  8
0
 62
     0
 10
320.872
 20
1.87827
 30
0.0
 11
320.84
 21
1.72393
 31
0.0
  0
LINE
  8
0
 62
     0
 10
320.84
 20
1.72393
 30
0.0
 11
320.799
 21
1.57097
 31
0.0
  0
LINE
  8
0
 62
     0
 10
320.799
 20
1.57097
 30
0.0
 11
320.744
 21
1.42489
 31
0.0
  0
LINE
  8
0
 62
     0
 10
320.744
 20
1.42489
 30
0.0
 11
320.679
 21
1.28295
 31
0.0
  0
LINE
  8
0
 62
     0
 10
320.679
 20
1.28295
 30
0.0
 11
320.602
 21
1.14515
 31
0.0
  0
LINE
  8
0
 62
     0
 10
320.602
 20
1.14515
 30
0.0
 11
320.515
 21
1.01424
 31
0.0
  0
LINE
  8
0
 62
     0
 10
320.515
 20
1.01424
 30
0.0
 11
320.416
 21
0.891589
 31
0.0
  0
LINE
  8
0
 62
     0
 10
320.416
 20
0.891589
 30
0.0
 11
320.31
 21
0.775836
 31
0.0
  0
LINE
  8
0
 62
     0
 10
320.31
 20
0.775836
 30
0.0
 11
320.194
 21
0.669727
 31
0.0
  0
LINE
  8
0
 62
     0
 10
320.194
 20
0.669727
 30
0.0
 11
320.071
 21
0.571885
 31
0.0
  0
LINE
  8
0
 62
     0
 10
320.071
 20
0.571885
 30
0.0
 11
319.941
 21
0.485069
 31
0.0
  0
LINE
  8
0
 62
     0
 10
319.941
 20
0.485069
 30
0.0
 11
319.804
 21
0.407899
 31
0.0
  0
LINE
  8
0
 62
     0
 10
319.804
 20
0.407899
 30
0.0
 11
319.662
 21
0.343131
 31
0.0
  0
LINE
  8
0
 62
     0
 10
319.662
 20
0.343131
 30
0.0
 11
319.515
 21
0.28801
 31
0.0
  0
LINE
  8
0
 62
     0
 10
319.515
 20
0.28801
 30
0.0
 11
319.363
 21
0.245291
 31
0.0
  0
LINE
  8
0
 62
     0
 10
319.363
 20
0.245291
 30
0.0
 11
319.209
 21
0.214974
 31
0.0
  0
LINE
  8
0
 62
     0
 10
319.209
 20
0.214974
 30
0.0
 11
319.053
 21
0.19706
 31
0.0
  0
LINE
  8
0
 62
     0
 10
319.053
 20
0.19706
 30
0.0
 11
318.896
 21
0.190169
 31
0.0
  0
LINE
  8
0
 62
     0
 10
318.896
 20
0.190169
 30
0.0
 11
2.096
 21
0.190169
 31
0.0
  0
LINE
  8
0
 62
     0
 10
2.096
 20
0.190169
 30
0.0
 11
1.9389
 21
0.19706
 31
0.0
  0
LINE
  8
0
 62
     0
 10
1.9389
 20
0.19706
 30
0.0
 11
1.7818
 21
0.214974
 31
0.0
  0
LINE
  8
0
 62
     0
 10
1.7818
 20
0.214974
 30
0.0
 11
1.62884
 21
0.245291
 31
0.0
  0
LINE
  8
0
 62
     0
 10
1.62884
 20
0.245291
 30
0.0
 11
1.47588
 21
0.28801
 31
0.0
  0
LINE
  8
0
 62
     0
 10
1.47588
 20
0.28801
 30
0.0
 11
1.32981
 21
0.343131
 31
0.0
  0
LINE
  8
0
 62
     0
 10
1.32981
 20
0.343131
 30
0.0
 11
1.18787
 21
0.407899
 31
0.0
  0
LINE
  8
0
 62
     0
 10
1.18787
 20
0.407899
 30
0.0
 11
1.05006
 21
0.485069
 31
0.0
  0
LINE
  8
0
 62
     0
 10
1.05006
 20
0.485069
 30
0.0
 11
0.919152
 21
0.571885
 31
0.0
  0
LINE
  8
0
 62
     0
 10
0.919152
 20
0.571885
 30
0.0
 11
0.796505
 21
0.669727
 31
0.0
  0
LINE
  8
0
 62
     0
 10
0.796505
 20
0.669727
 30
0.0
 11
0.680752
 21
0.775836
 31
0.0
  0
LINE
  8
0
 62
     0
 10
0.680752
 20
0.775836
 30
0.0
 11
0.574643
 21
0.891589
 31
0.0
  0
LINE
  8
0
 62
     0
 10
0.574643
 20
0.891589
 30
0.0
 11
0.4768
 21
1.01424
 31
0.0
  0
LINE
  8
0
 62
     0
 10
0.4768
 20
1.01424
 30
0.0
 11
0.389985
 21
1.14515
 31
0.0
  0
LINE
  8
0
 62
     0
 10
0.389985
 20
1.14515
 30
0.0
 11
0.312815
 21
1.28295
 31
0.0
  0
LINE
  8
0
 62
     0
 10
0.312815
 20
1.28295
 30
0.0
 11
0.248047
 21
1.42489
 31
0.0
  0
LINE
  8
0
 62
     0
 10
0.248047
 20
1.42489
 30
0.0
 11
0.192925
 21
1.57097
 31
0.0
  0
LINE
  8
0
 62
     0
 10
0.192925
 20
1.57097
 30
0.0
 11
0.150206
 21
1.72393
 31
0.0
  0
LINE
  8
0
 62
     0
 10
0.150206
 20
1.72393
 30
0.0
 11
0.119889
 21
1.87827
 31
0.0
  0
LINE
  8
0
 62
     0
 10
0.119889
 20
1.87827
 30
0.0
 11
0.101975
 21
2.03399
 31
0.0
  0
LINE
  8
0
 62
     0
 10
0.101975
 20
2.03399
 30
0.0
 11
0.0950846
 21
2.1897
 31
0.0
  0
LINE
  8
0
 62
     0
 10
0.0950846
 20
2.1897
 30
0.0
 11
0.0950846
 21
91.3903
 31
0.0
  0
LINE
  8
0
 62
     0
 10
0.0950846
 20
91.3903
 30
0.0
 11
0.101975
 21
91.5472
 31
0.0
  0
LINE
  8
0
 62
     0
 10
0.101975
 20
91.5472
 30
0.0
 11
0.119889
 21
91.7042
 31
0.0
  0
LINE
  8
0
 62
     0
 10
0.119889
 20
91.7042
 30
0.0
 11
0.150206
 21
91.8573
 31
0.0
  0
LINE
  8
0
 62
     0
 10
0.150206
 20
91.8573
 30
0.0
 11
0.192925
 21
92.0101
 31
0.0
  0
LINE
  8
0
 62
     0
 10
0.192925
 20
92.0101
 30
0.0
 11
0.248047
 21
92.1561
 31
0.0
  0
LINE
  8
0
 62
     0
 10
0.248047
 20
92.1561
 30
0.0
 11
0.312815
 21
92.2983
 31
0.0
  0
LINE
  8
0
 62
     0
 10
0.312815
 20
92.2983
 30
0.0
 11
0.389985
 21
92.4359
 31
0.0
  0
LINE
  8
0
 62
     0
 10
0.389985
 20
92.4359
 30
0.0
 11
0.4768
 21
92.5671
 31
0.0
  0
LINE
  8
0
 62
     0
 10
0.4768
 20
92.5671
 30
0.0
 11
0.574643
 21
92.6895
 31
0.0
  0
LINE
  8
0
 62
     0
 10
0.574643
 20
92.6895
 30
0.0
 11
0.680752
 21
92.8053
 31
0.0
  0
LINE
  8
0
 62
     0
 10
0.680752
 20
92.8053
 30
0.0
 11
0.796505
 21
92.9114
 31
0.0
  0
LINE
  8
0
 62
     0
 10
0.796505
 20
92.9114
 30
0.0
 11
0.919152
 21
93.0092
 31
0.0
  0
LINE
  8
0
 62
     0
 10
0.919152
 20
93.0092
 30
0.0
 11
1.05006
 21
93.0963
 31
0.0
  0
LINE
  8
0
 62
     0
 10
1.05006
 20
93.0963
 30
0.0
 11
1.18787
 21
93.1732
 31
0.0
  0
LINE
  8
0
 62
     0
 10
1.18787
 20
93.1732
 30
0.0
 11
1.32981
 21
93.2381
 31
0.0
  0
LINE
  8
0
 62
     0
 10
1.32981
 20
93.2381
 30
0.0
 11
1.47588
 21
93.2931
 31
0.0
  0
LINE
  8
0
 62
     0
 10
1.47588
 20
93.2931
 30
0.0
 11
1.62884
 21
93.3358
 31
0.0
  0
LINE
  8
0
 62
     0
 10
1.62884
 20
93.3358
 30
0.0
 11
1.7818
 21
93.3662
 31
0.0
  0
LINE
  8
0
 62
     0
 10
1.7818
 20
93.3662
 30
0.0
 11
1.9389
 21
93.3842
 31
0.0
  0
LINE
  8
0
 62
     0
 10
1.9389
 20
93.3842
 30
0.0
 11
2.096
 21
93.3909
 31
0.0
  0
LINE
  8
0
 62
     0
 10
2.096
 20
93.3909
 30
0.0
 11
318.896
 21
93.3909
 31
0.0
  0
LINE
  8
0
 62
     0
 10
3.6008
 20
5.71197
 30
0.0
 11
3.15295
 21
5.4846
 31
0.0
  0
LINE
  8
0
 62
     0
 10
3.15295
 20
5.4846
 30
0.0
 11
2.80017
 21
5.13045
 31
0.0
  0
LINE
  8
0
 62
     0
 10
2.80017
 20
5.13045
 30
0.0
 11
2.57418
 21
4.68394
 31
0.0
  0
LINE
  8
0
 62
     0
 10
2.57418
 20
4.68394
 30
0.0
 11
2.49425
 21
4.18924
 31
0.0
  0
LINE
  8
0
 62
     0
 10
2.49425
 20
4.18924
 30
0.0
 11
2.57418
 21
3.69591
 31
0.0
  0
LINE
  8
0
 62
     0
 10
2.57418
 20
3.69591
 30
0.0
 11
2.80017
 21
3.24942
 31
0.0
  0
LINE
  8
0
 62
     0
 10
2.80017
 20
3.24942
 30
0.0
 11
3.15295
 21
2.89526
 31
0.0
  0
LINE
  8
0
 62
     0
 10
3.15295
 20
2.89526
 30
0.0
 11
3.6008
 21
2.66926
 31
0.0
  0
LINE
  8
0
 62
     0
 10
3.6008
 20
2.66926
 30
0.0
 11
4.09416
 21
2.59071
 31
0.0
  0
LINE
  8
0
 62
     0
 10
4.09416
 20
2.59071
 30
0.0
 11
4.58886
 21
2.66926
 31
0.0
  0
LINE
  8
0
 62
     0
 10
4.58886
 20
2.66926
 30
0.0
 11
5.03534
 21
2.89526
 31
0.0
  0
LINE
  8
0
 62
     0
 10
5.03534
 20
2.89526
 30
0.0
 11
5.38949
 21
3.24942
 31
0.0
  0
LINE
  8
0
 62
     0
 10
5.38949
 20
3.24942
 30
0.0
 11
5.61689
 21
3.69591
 31
0.0
  0
LINE
  8
0
 62
     0
 10
5.61689
 20
3.69591
 30
0.0
 11
5.69405
 21
4.18924
 31
0.0
  0
LINE
  8
0
 62
     0
 10
5.69405
 20
4.18924
 30
0.0
 11
5.61689
 21
4.68394
 31
0.0
  0
LINE
  8
0
 62
     0
 10
5.61689
 20
4.68394
 30
0.0
 11
5.38949
 21
5.13045
 31
0.0
  0
LINE
  8
0
 62
     0
 10
5.38949
 20
5.13045
 30
0.0
 11
5.03534
 21
5.4846
 31
0.0
  0
LINE
  8
0
 62
     0
 10
5.03534
 20
5.4846
 30
0.0
 11
4.58886
 21
5.71197
 31
0.0
  0
LINE
  8
0
 62
     0
 10
4.58886
 20
5.71197
 30
0.0
 11
4.09416
 21
5.78915
 31
0.0
  0
LINE
  8
0
 62
     0
 10
4.09416
 20
5.78915
 30
0.0
 11
3.6008
 21
5.71197
 31
0.0
  0
LINE
  8
0
 62
     0
 10
81.8003
 20
5.71197
 30
0.0
 11
81.3537
 21
5.4846
 31
0.0
  0
LINE
  8
0
 62
     0
 10
81.3537
 20
5.4846
 30
0.0
 11
81.001
 21
5.13045
 31
0.0
  0
LINE
  8
0
 62
     0
 10
81.001
 20
5.13045
 30
0.0
 11
80.7738
 21
4.68394
 31
0.0
  0
LINE
  8
0
 62
     0
 10
80.7738
 20
4.68394
 30
0.0
 11
80.6951
 21
4.18924
 31
0.0
  0
LINE
  8
0
 62
     0
 10
80.6951
 20
4.18924
 30
0.0
 11
80.7738
 21
3.69591
 31
0.0
  0
LINE
  8
0
 62
     0
 10
80.7738
 20
3.69591
 30
0.0
 11
81.001
 21
3.24942
 31
0.0
  0
LINE
  8
0
 62
     0
 10
81.001
 20
3.24942
 30
0.0
 11
81.3537
 21
2.89526
 31
0.0
  0
LINE
  8
0
 62
     0
 10
81.3537
 20
2.89526
 30
0.0
 11
81.8003
 21
2.66926
 31
0.0
  0
LINE
  8
0
 62
     0
 10
81.8003
 20
2.66926
 30
0.0
 11
82.2949
 21
2.59071
 31
0.0
  0
LINE
  8
0
 62
     0
 10
82.2949
 20
2.59071
 30
0.0
 11
82.7899
 21
2.66926
 31
0.0
  0
LINE
  8
0
 62
     0
 10
82.7899
 20
2.66926
 30
0.0
 11
83.2347
 21
2.89526
 31
0.0
  0
LINE
  8
0
 62
     0
 10
83.2347
 20
2.89526
 30
0.0
 11
83.5889
 21
3.24942
 31
0.0
  0
LINE
  8
0
 62
     0
 10
83.5889
 20
3.24942
 30
0.0
 11
83.8165
 21
3.69591
 31
0.0
  0
LINE
  8
0
 62
     0
 10
83.8165
 20
3.69591
 30
0.0
 11
83.8951
 21
4.18924
 31
0.0
  0
LINE
  8
0
 62
     0
 10
83.8951
 20
4.18924
 30
0.0
 11
83.8165
 21
4.68394
 31
0.0
  0
LINE
  8
0
 62
     0
 10
83.8165
 20
4.68394
 30
0.0
 11
83.5889
 21
5.13045
 31
0.0
  0
LINE
  8
0
 62
     0
 10
83.5889
 20
5.13045
 30
0.0
 11
83.2347
 21
5.4846
 31
0.0
  0
LINE
  8
0
 62
     0
 10
83.2347
 20
5.4846
 30
0.0
 11
82.7899
 21
5.71197
 31
0.0
  0
LINE
  8
0
 62
     0
 10
82.7899
 20
5.71197
 30
0.0
 11
82.2949
 21
5.78915
 31
0.0
  0
LINE
  8
0
 62
     0
 10
82.2949
 20
5.78915
 30
0.0
 11
81.8003
 21
5.71197
 31
0.0
  0
LINE
  8
0
 62
     0
 10
160.001
 20
5.71197
 30
0.0
 11
159.556
 21
5.4846
 31
0.0
  0
LINE
  8
0
 62
     0
 10
159.556
 20
5.4846
 30
0.0
 11
159.202
 21
5.13045
 31
0.0
  0
LINE
  8
0
 62
     0
 10
159.202
 20
5.13045
 30
0.0
 11
158.973
 21
4.68394
 31
0.0
  0
LINE
  8
0
 62
     0
 10
158.973
 20
4.68394
 30
0.0
 11
158.896
 21
4.18924
 31
0.0
  0
LINE
  8
0
 62
     0
 10
158.896
 20
4.18924
 30
0.0
 11
158.973
 21
3.69591
 31
0.0
  0
LINE
  8
0
 62
     0
 10
158.973
 20
3.69591
 30
0.0
 11
159.202
 21
3.24942
 31
0.0
  0
LINE
  8
0
 62
     0
 10
159.202
 20
3.24942
 30
0.0
 11
159.556
 21
2.89526
 31
0.0
  0
LINE
  8
0
 62
     0
 10
159.556
 20
2.89526
 30
0.0
 11
160.001
 21
2.66926
 31
0.0
  0
LINE
  8
0
 62
     0
 10
160.001
 20
2.66926
 30
0.0
 11
160.496
 21
2.59071
 31
0.0
  0
LINE
  8
0
 62
     0
 10
160.496
 20
2.59071
 30
0.0
 11
160.989
 21
2.66926
 31
0.0
  0
LINE
  8
0
 62
     0
 10
160.989
 20
2.66926
 30
0.0
 11
161.436
 21
2.89526
 31
0.0
  0
LINE
  8
0
 62
     0
 10
161.436
 20
2.89526
 30
0.0
 11
161.79
 21
3.24942
 31
0.0
  0
LINE
  8
0
 62
     0
 10
161.79
 20
3.24942
 30
0.0
 11
162.017
 21
3.69591
 31
0.0
  0
LINE
  8
0
 62
     0
 10
162.017
 20
3.69591
 30
0.0
 11
162.096
 21
4.18924
 31
0.0
  0
LINE
  8
0
 62
     0
 10
162.096
 20
4.18924
 30
0.0
 11
162.017
 21
4.68394
 31
0.0
  0
LINE
  8
0
 62
     0
 10
162.017
 20
4.68394
 30
0.0
 11
161.79
 21
5.13045
 31
0.0
  0
LINE
  8
0
 62
     0
 10
161.79
 20
5.13045
 30
0.0
 11
161.436
 21
5.4846
 31
0.0
  0
LINE
  8
0
 62
     0
 10
161.436
 20
5.4846
 30
0.0
 11
160.989
 21
5.71197
 31
0.0
  0
LINE
  8
0
 62
     0
 10
160.989
 20
5.71197
 30
0.0
 11
160.496
 21
5.78915
 31
0.0
  0
LINE
  8
0
 62
     0
 10
160.496
 20
5.78915
 30
0.0
 11
160.001
 21
5.71197
 31
0.0
  0
LINE
  8
0
 62
     0
 10
238.202
 20
5.71197
 30
0.0
 11
237.756
 21
5.4846
 31
0.0
  0
LINE
  8
0
 62
     0
 10
237.756
 20
5.4846
 30
0.0
 11
237.401
 21
5.13045
 31
0.0
  0
LINE
  8
0
 62
     0
 10
237.401
 20
5.13045
 30
0.0
 11
237.174
 21
4.68394
 31
0.0
  0
LINE
  8
0
 62
     0
 10
237.174
 20
4.68394
 30
0.0
 11
237.096
 21
4.18924
 31
0.0
  0
LINE
  8
0
 62
     0
 10
237.096
 20
4.18924
 30
0.0
 11
237.174
 21
3.69591
 31
0.0
  0
LINE
  8
0
 62
     0
 10
237.174
 20
3.69591
 30
0.0
 11
237.401
 21
3.24942
 31
0.0
  0
LINE
  8
0
 62
     0
 10
237.401
 20
3.24942
 30
0.0
 11
237.756
 21
2.89526
 31
0.0
  0
LINE
  8
0
 62
     0
 10
237.756
 20
2.89526
 30
0.0
 11
238.202
 21
2.66926
 31
0.0
  0
LINE
  8
0
 62
     0
 10
238.202
 20
2.66926
 30
0.0
 11
238.695
 21
2.59071
 31
0.0
  0
LINE
  8
0
 62
     0
 10
238.695
 20
2.59071
 30
0.0
 11
239.19
 21
2.66926
 31
0.0
  0
LINE
  8
0
 62
     0
 10
239.19
 20
2.66926
 30
0.0
 11
239.637
 21
2.89526
 31
0.0
  0
LINE
  8
0
 62
     0
 10
239.637
 20
2.89526
 30
0.0
 11
239.991
 21
3.24942
 31
0.0
  0
LINE
  8
0
 62
     0
 10
239.991
 20
3.24942
 30
0.0
 11
240.217
 21
3.69591
 31
0.0
  0
LINE
  8
0
 62
     0
 10
240.217
 20
3.69591
 30
0.0
 11
240.295
 21
4.18924
 31
0.0
  0
LINE
  8
0
 62
     0
 10
240.295
 20
4.18924
 30
0.0
 11
240.217
 21
4.68394
 31
0.0
  0
LINE
  8
0
 62
     0
 10
240.217
 20
4.68394
 30
0.0
 11
239.991
 21
5.13045
 31
0.0
  0
LINE
  8
0
 62
     0
 10
239.991
 20
5.13045
 30
0.0
 11
239.637
 21
5.4846
 31
0.0
  0
LINE
  8
0
 62
     0
 10
239.637
 20
5.4846
 30
0.0
 11
239.19
 21
5.71197
 31
0.0
  0
LINE
  8
0
 62
     0
 10
239.19
 20
5.71197
 30
0.0
 11
238.695
 21
5.78915
 31
0.0
  0
LINE
  8
0
 62
     0
 10
238.695
 20
5.78915
 30
0.0
 11
238.202
 21
5.71197
 31
0.0
  0
LINE
  8
0
 62
     0
 10
316.402
 20
5.71197
 30
0.0
 11
315.955
 21
5.4846
 31
0.0
  0
LINE
  8
0
 62
     0
 10
315.955
 20
5.4846
 30
0.0
 11
315.601
 21
5.13045
 31
0.0
  0
LINE
  8
0
 62
     0
 10
315.601
 20
5.13045
 30
0.0
 11
315.375
 21
4.68394
 31
0.0
  0
LINE
  8
0
 62
     0
 10
315.375
 20
4.68394
 30
0.0
 11
315.297
 21
4.18924
 31
0.0
  0
LINE
  8
0
 62
     0
 10
315.297
 20
4.18924
 30
0.0
 11
315.375
 21
3.69591
 31
0.0
  0
LINE
  8
0
 62
     0
 10
315.375
 20
3.69591
 30
0.0
 11
315.601
 21
3.24942
 31
0.0
  0
LINE
  8
0
 62
     0
 10
315.601
 20
3.24942
 30
0.0
 11
315.955
 21
2.89526
 31
0.0
  0
LINE
  8
0
 62
     0
 10
315.955
 20
2.89526
 30
0.0
 11
316.402
 21
2.66926
 31
0.0
  0
LINE
  8
0
 62
     0
 10
316.402
 20
2.66926
 30
0.0
 11
316.896
 21
2.59071
 31
0.0
  0
LINE
  8
0
 62
     0
 10
316.896
 20
2.59071
 30
0.0
 11
317.391
 21
2.66926
 31
0.0
  0
LINE
  8
0
 62
     0
 10
317.391
 20
2.66926
 30
0.0
 11
317.836
 21
2.89526
 31
0.0
  0
LINE
  8
0
 62
     0
 10
317.836
 20
2.89526
 30
0.0
 11
318.19
 21
3.24942
 31
0.0
  0
LINE
  8
0
 62
     0
 10
318.19
 20
3.24942
 30
0.0
 11
318.418
 21
3.69591
 31
0.0
  0
LINE
  8
0
 62
     0
 10
318.418
 20
3.69591
 30
0.0
 11
318.496
 21
4.18924
 31
0.0
  0
LINE
  8
0
 62
     0
 10
318.496
 20
4.18924
 30
0.0
 11
318.418
 21
4.68394
 31
0.0
  0
LINE
  8
0
 62
     0
 10
318.418
 20
4.68394
 30
0.0
 11
318.19
 21
5.13045
 31
0.0
  0
LINE
  8
0
 62
     0
 10
318.19
 20
5.13045
 30
0.0
 11
317.836
 21
5.4846
 31
0.0
  0
LINE
  8
0
 62
     0
 10
317.836
 20
5.4846
 30
0.0
 11
317.391
 21
5.71197
 31
0.0
  0
LINE
  8
0
 62
     0
 10
317.391
 20
5.71197
 30
0.0
 11
316.896
 21
5.78915
 31
0.0
  0
LINE
  8
0
 62
     0
 10
316.896
 20
5.78915
 30
0.0
 11
316.402
 21
5.71197
 31
0.0
  0
LINE
  8
0
 62
     0
 10
186.833
 20
25.7156
 30
0.0
 11
186.833
 21
21.0151
 31
0.0
  0
LINE
  8
0
 62
     0
 10
186.833
 20
21.0151
 30
0.0
 11
185.307
 21
21.0151
 31
0.0
  0
LINE
  8
0
 62
     0
 10
185.307
 20
21.0151
 30
0.0
 11
185.307
 21
24.2452
 31
0.0
  0
LINE
  8
0
 62
     0
 10
185.307
 20
24.2452
 30
0.0
 11
183.582
 21
24.2452
 31
0.0
  0
LINE
  8
0
 62
     0
 10
183.582
 20
24.2452
 30
0.0
 11
183.582
 21
25.1657
 31
0.0
  0
LINE
  8
0
 62
     0
 10
183.582
 20
25.1657
 30
0.0
 11
180.282
 21
25.1657
 31
0.0
  0
LINE
  8
0
 62
     0
 10
180.282
 20
25.1657
 30
0.0
 11
180.282
 21
24.2452
 31
0.0
  0
LINE
  8
0
 62
     0
 10
180.282
 20
24.2452
 30
0.0
 11
178.558
 21
24.2452
 31
0.0
  0
LINE
  8
0
 62
     0
 10
178.558
 20
24.2452
 30
0.0
 11
178.558
 21
21.0151
 31
0.0
  0
LINE
  8
0
 62
     0
 10
178.558
 20
21.0151
 30
0.0
 11
177.733
 21
21.0151
 31
0.0
  0
LINE
  8
0
 62
     0
 10
177.733
 20
21.0151
 30
0.0
 11
177.733
 21
18.2163
 31
0.0
  0
LINE
  8
0
 62
     0
 10
177.733
 20
18.2163
 30
0.0
 11
178.558
 21
18.2163
 31
0.0
  0
LINE
  8
0
 62
     0
 10
178.558
 20
18.2163
 30
0.0
 11
178.558
 21
11.9462
 31
0.0
  0
LINE
  8
0
 62
     0
 10
178.558
 20
11.9462
 30
0.0
 11
180.282
 21
11.9462
 31
0.0
  0
LINE
  8
0
 62
     0
 10
180.282
 20
11.9462
 30
0.0
 11
180.282
 21
10.965
 31
0.0
  0
LINE
  8
0
 62
     0
 10
180.282
 20
10.965
 30
0.0
 11
183.582
 21
10.965
 31
0.0
  0
LINE
  8
0
 62
     0
 10
183.582
 20
10.965
 30
0.0
 11
183.582
 21
11.9462
 31
0.0
  0
LINE
  8
0
 62
     0
 10
183.582
 20
11.9462
 30
0.0
 11
185.307
 21
11.9462
 31
0.0
  0
LINE
  8
0
 62
     0
 10
185.307
 20
11.9462
 30
0.0
 11
185.307
 21
16.4152
 31
0.0
  0
LINE
  8
0
 62
     0
 10
185.307
 20
16.4152
 30
0.0
 11
186.833
 21
16.4152
 31
0.0
  0
LINE
  8
0
 62
     0
 10
186.833
 20
16.4152
 30
0.0
 11
186.833
 21
11.7161
 31
0.0
  0
LINE
  8
0
 62
     0
 10
186.833
 20
11.7161
 30
0.0
 11
200.833
 21
11.7161
 31
0.0
  0
LINE
  8
0
 62
     0
 10
200.833
 20
11.7161
 30
0.0
 11
200.833
 21
16.4152
 31
0.0
  0
LINE
  8
0
 62
     0
 10
200.833
 20
16.4152
 30
0.0
 11
202.358
 21
16.4152
 31
0.0
  0
LINE
  8
0
 62
     0
 10
202.358
 20
16.4152
 30
0.0
 11
202.358
 21
11.9462
 31
0.0
  0
LINE
  8
0
 62
     0
 10
202.358
 20
11.9462
 30
0.0
 11
204.082
 21
11.9462
 31
0.0
  0
LINE
  8
0
 62
     0
 10
204.082
 20
11.9462
 30
0.0
 11
204.082
 21
10.965
 31
0.0
  0
LINE
  8
0
 62
     0
 10
204.082
 20
10.965
 30
0.0
 11
207.382
 21
10.965
 31
0.0
  0
LINE
  8
0
 62
     0
 10
207.382
 20
10.965
 30
0.0
 11
207.382
 21
11.9462
 31
0.0
  0
LINE
  8
0
 62
     0
 10
207.382
 20
11.9462
 30
0.0
 11
209.108
 21
11.9462
 31
0.0
  0
LINE
  8
0
 62
     0
 10
209.108
 20
11.9462
 30
0.0
 11
209.108
 21
18.2163
 31
0.0
  0
LINE
  8
0
 62
     0
 10
209.108
 20
18.2163
 30
0.0
 11
209.933
 21
18.2163
 31
0.0
  0
LINE
  8
0
 62
     0
 10
209.933
 20
18.2163
 30
0.0
 11
209.933
 21
21.0151
 31
0.0
  0
LINE
  8
0
 62
     0
 10
209.933
 20
21.0151
 30
0.0
 11
209.108
 21
21.0151
 31
0.0
  0
LINE
  8
0
 62
     0
 10
209.108
 20
21.0151
 30
0.0
 11
209.108
 21
24.2452
 31
0.0
  0
LINE
  8
0
 62
     0
 10
209.108
 20
24.2452
 30
0.0
 11
207.382
 21
24.2452
 31
0.0
  0
LINE
  8
0
 62
     0
 10
207.382
 20
24.2452
 30
0.0
 11
207.382
 21
25.1657
 31
0.0
  0
LINE
  8
0
 62
     0
 10
207.382
 20
25.1657
 30
0.0
 11
204.082
 21
25.1657
 31
0.0
  0
LINE
  8
0
 62
     0
 10
204.082
 20
25.1657
 30
0.0
 11
204.082
 21
24.2452
 31
0.0
  0
LINE
  8
0
 62
     0
 10
204.082
 20
24.2452
 30
0.0
 11
202.358
 21
24.2452
 31
0.0
  0
LINE
  8
0
 62
     0
 10
202.358
 20
24.2452
 30
0.0
 11
202.358
 21
21.0151
 31
0.0
  0
LINE
  8
0
 62
     0
 10
202.358
 20
21.0151
 30
0.0
 11
200.833
 21
21.0151
 31
0.0
  0
LINE
  8
0
 62
     0
 10
200.833
 20
21.0151
 30
0.0
 11
200.833
 21
25.7156
 31
0.0
  0
LINE
  8
0
 62
     0
 10
200.833
 20
25.7156
 30
0.0
 11
186.833
 21
25.7156
 31
0.0
  0
LINE
  8
0
 62
     0
 10
296.37
 20
25.7156
 30
0.0
 11
310.37
 21
25.7156
 31
0.0
  0
LINE
  8
0
 62
     0
 10
310.37
 20
25.7156
 30
0.0
 11
310.37
 21
11.7161
 31
0.0
  0
LINE
  8
0
 62
     0
 10
310.37
 20
11.7161
 30
0.0
 11
296.37
 21
11.7161
 31
0.0
  0
LINE
  8
0
 62
     0
 10
296.37
 20
11.7161
 30
0.0
 11
296.37
 21
25.7156
 31
0.0
  0
LINE
  8
0
 62
     0
 10
277.32
 20
25.7156
 30
0.0
 11
291.32
 21
25.7156
 31
0.0
  0
LINE
  8
0
 62
     0
 10
291.32
 20
25.7156
 30
0.0
 11
291.32
 21
11.7161
 31
0.0
  0
LINE
  8
0
 62
     0
 10
291.32
 20
11.7161
 30
0.0
 11
277.32
 21
11.7161
 31
0.0
  0
LINE
  8
0
 62
     0
 10
277.32
 20
11.7161
 30
0.0
 11
277.32
 21
25.7156
 31
0.0
  0
LINE
  8
0
 62
     0
 10
258.27
 20
25.7156
 30
0.0
 11
272.27
 21
25.7156
 31
0.0
  0
LINE
  8
0
 62
     0
 10
272.27
 20
25.7156
 30
0.0
 11
272.27
 21
11.7161
 31
0.0
  0
LINE
  8
0
 62
     0
 10
272.27
 20
11.7161
 30
0.0
 11
258.27
 21
11.7161
 31
0.0
  0
LINE
  8
0
 62
     0
 10
258.27
 20
11.7161
 30
0.0
 11
258.27
 21
25.7156
 31
0.0
  0
LINE
  8
0
 62
     0
 10
239.22
 20
25.7156
 30
0.0
 11
253.22
 21
25.7156
 31
0.0
  0
LINE
  8
0
 62
     0
 10
253.22
 20
25.7156
 30
0.0
 11
253.22
 21
11.7161
 31
0.0
  0
LINE
  8
0
 62
     0
 10
253.22
 20
11.7161
 30
0.0
 11
239.22
 21
11.7161
 31
0.0
  0
LINE
  8
0
 62
     0
 10
239.22
 20
11.7161
 30
0.0
 11
239.22
 21
25.7156
 31
0.0
  0
LINE
  8
0
 62
     0
 10
217.788
 20
25.7156
 30
0.0
 11
231.789
 21
25.7156
 31
0.0
  0
LINE
  8
0
 62
     0
 10
231.789
 20
25.7156
 30
0.0
 11
231.789
 21
11.7161
 31
0.0
  0
LINE
  8
0
 62
     0
 10
231.789
 20
11.7161
 30
0.0
 11
217.788
 21
11.7161
 31
0.0
  0
LINE
  8
0
 62
     0
 10
217.788
 20
11.7161
 30
0.0
 11
217.788
 21
25.7156
 31
0.0
  0
LINE
  8
0
 62
     0
 10
155.877
 20
25.7156
 30
0.0
 11
169.876
 21
25.7156
 31
0.0
  0
LINE
  8
0
 62
     0
 10
169.876
 20
25.7156
 30
0.0
 11
169.876
 21
11.7161
 31
0.0
  0
LINE
  8
0
 62
     0
 10
169.876
 20
11.7161
 30
0.0
 11
155.877
 21
11.7161
 31
0.0
  0
LINE
  8
0
 62
     0
 10
155.877
 20
11.7161
 30
0.0
 11
155.877
 21
25.7156
 31
0.0
  0
LINE
  8
0
 62
     0
 10
134.445
 20
25.7156
 30
0.0
 11
148.445
 21
25.7156
 31
0.0
  0
LINE
  8
0
 62
     0
 10
148.445
 20
25.7156
 30
0.0
 11
148.445
 21
11.7161
 31
0.0
  0
LINE
  8
0
 62
     0
 10
148.445
 20
11.7161
 30
0.0
 11
134.445
 21
11.7161
 31
0.0
  0
LINE
  8
0
 62
     0
 10
134.445
 20
11.7161
 30
0.0
 11
134.445
 21
25.7156
 31
0.0
  0
LINE
  8
0
 62
     0
 10
115.395
 20
25.7156
 30
0.0
 11
129.395
 21
25.7156
 31
0.0
  0
LINE
  8
0
 62
     0
 10
129.395
 20
25.7156
 30
0.0
 11
129.395
 21
11.7161
 31
0.0
  0
LINE
  8
0
 62
     0
 10
129.395
 20
11.7161
 30
0.0
 11
115.395
 21
11.7161
 31
0.0
  0
LINE
  8
0
 62
     0
 10
115.395
 20
11.7161
 30
0.0
 11
115.395
 21
25.7156
 31
0.0
  0
LINE
  8
0
 62
     0
 10
96.3454
 20
25.7156
 30
0.0
 11
110.345
 21
25.7156
 31
0.0
  0
LINE
  8
0
 62
     0
 10
110.345
 20
25.7156
 30
0.0
 11
110.345
 21
11.7161
 31
0.0
  0
LINE
  8
0
 62
     0
 10
110.345
 20
11.7161
 30
0.0
 11
96.3454
 21
11.7161
 31
0.0
  0
LINE
  8
0
 62
     0
 10
96.3454
 20
11.7161
 30
0.0
 11
96.3454
 21
25.7156
 31
0.0
  0
LINE
  8
0
 62
     0
 10
77.2954
 20
25.7156
 30
0.0
 11
91.295
 21
25.7156
 31
0.0
  0
LINE
  8
0
 62
     0
 10
91.295
 20
25.7156
 30
0.0
 11
91.295
 21
11.7161
 31
0.0
  0
LINE
  8
0
 62
     0
 10
91.295
 20
11.7161
 30
0.0
 11
77.2954
 21
11.7161
 31
0.0
  0
LINE
  8
0
 62
     0
 10
77.2954
 20
11.7161
 30
0.0
 11
77.2954
 21
25.7156
 31
0.0
  0
LINE
  8
0
 62
     0
 10
48.7204
 20
25.7156
 30
0.0
 11
62.72
 21
25.7156
 31
0.0
  0
LINE
  8
0
 62
     0
 10
62.72
 20
25.7156
 30
0.0
 11
62.72
 21
11.7161
 31
0.0
  0
LINE
  8
0
 62
     0
 10
62.72
 20
11.7161
 30
0.0
 11
48.7204
 21
11.7161
 31
0.0
  0
LINE
  8
0
 62
     0
 10
48.7204
 20
11.7161
 30
0.0
 11
48.7204
 21
25.7156
 31
0.0
  0
LINE
  8
0
 62
     0
 10
29.6706
 20
25.7156
 30
0.0
 11
43.67
 21
25.7156
 31
0.0
  0
LINE
  8
0
 62
     0
 10
43.67
 20
25.7156
 30
0.0
 11
43.67
 21
11.7161
 31
0.0
  0
LINE
  8
0
 62
     0
 10
43.67
 20
11.7161
 30
0.0
 11
29.6706
 21
11.7161
 31
0.0
  0
LINE
  8
0
 62
     0
 10
29.6706
 20
11.7161
 30
0.0
 11
29.6706
 21
25.7156
 31
0.0
  0
LINE
  8
0
 62
     0
 10
10.6192
 20
25.7156
 30
0.0
 11
24.62
 21
25.7156
 31
0.0
  0
LINE
  8
0
 62
     0
 10
24.62
 20
25.7156
 30
0.0
 11
24.62
 21
11.7161
 31
0.0
  0
LINE
  8
0
 62
     0
 10
24.62
 20
11.7161
 30
0.0
 11
10.6192
 21
11.7161
 31
0.0
  0
LINE
  8
0
 62
     0
 10
10.6192
 20
11.7161
 30
0.0
 11
10.6192
 21
25.7156
 31
0.0
  0
LINE
  8
0
 62
     0
 10
296.37
 20
44.7657
 30
0.0
 11
310.37
 21
44.7657
 31
0.0
  0
LINE
  8
0
 62
     0
 10
310.37
 20
44.7657
 30
0.0
 11
310.37
 21
30.7661
 31
0.0
  0
LINE
  8
0
 62
     0
 10
310.37
 20
30.7661
 30
0.0
 11
296.37
 21
30.7661
 31
0.0
  0
LINE
  8
0
 62
     0
 10
296.37
 20
30.7661
 30
0.0
 11
296.37
 21
44.7657
 31
0.0
  0
LINE
  8
0
 62
     0
 10
277.32
 20
44.7657
 30
0.0
 11
291.32
 21
44.7657
 31
0.0
  0
LINE
  8
0
 62
     0
 10
291.32
 20
44.7657
 30
0.0
 11
291.32
 21
30.7661
 31
0.0
  0
LINE
  8
0
 62
     0
 10
291.32
 20
30.7661
 30
0.0
 11
277.32
 21
30.7661
 31
0.0
  0
LINE
  8
0
 62
     0
 10
277.32
 20
30.7661
 30
0.0
 11
277.32
 21
44.7657
 31
0.0
  0
LINE
  8
0
 62
     0
 10
258.27
 20
44.7657
 30
0.0
 11
272.27
 21
44.7657
 31
0.0
  0
LINE
  8
0
 62
     0
 10
272.27
 20
44.7657
 30
0.0
 11
272.27
 21
30.7661
 31
0.0
  0
LINE
  8
0
 62
     0
 10
272.27
 20
30.7661
 30
0.0
 11
258.27
 21
30.7661
 31
0.0
  0
LINE
  8
0
 62
     0
 10
258.27
 20
30.7661
 30
0.0
 11
258.27
 21
44.7657
 31
0.0
  0
LINE
  8
0
 62
     0
 10
239.22
 20
44.7657
 30
0.0
 11
253.22
 21
44.7657
 31
0.0
  0
LINE
  8
0
 62
     0
 10
253.22
 20
44.7657
 30
0.0
 11
253.22
 21
30.7661
 31
0.0
  0
LINE
  8
0
 62
     0
 10
253.22
 20
30.7661
 30
0.0
 11
239.22
 21
30.7661
 31
0.0
  0
LINE
  8
0
 62
     0
 10
239.22
 20
30.7661
 30
0.0
 11
239.22
 21
44.7657
 31
0.0
  0
LINE
  8
0
 62
     0
 10
220.17
 20
44.7657
 30
0.0
 11
234.17
 21
44.7657
 31
0.0
  0
LINE
  8
0
 62
     0
 10
234.17
 20
44.7657
 30
0.0
 11
234.17
 21
30.7661
 31
0.0
  0
LINE
  8
0
 62
     0
 10
234.17
 20
30.7661
 30
0.0
 11
220.17
 21
30.7661
 31
0.0
  0
LINE
  8
0
 62
     0
 10
220.17
 20
30.7661
 30
0.0
 11
220.17
 21
44.7657
 31
0.0
  0
LINE
  8
0
 62
     0
 10
201.12
 20
44.7657
 30
0.0
 11
215.12
 21
44.7657
 31
0.0
  0
LINE
  8
0
 62
     0
 10
215.12
 20
44.7657
 30
0.0
 11
215.12
 21
30.7661
 31
0.0
  0
LINE
  8
0
 62
     0
 10
215.12
 20
30.7661
 30
0.0
 11
201.12
 21
30.7661
 31
0.0
  0
LINE
  8
0
 62
     0
 10
201.12
 20
30.7661
 30
0.0
 11
201.12
 21
44.7657
 31
0.0
  0
LINE
  8
0
 62
     0
 10
182.07
 20
44.7657
 30
0.0
 11
196.07
 21
44.7657
 31
0.0
  0
LINE
  8
0
 62
     0
 10
196.07
 20
44.7657
 30
0.0
 11
196.07
 21
30.7661
 31
0.0
  0
LINE
  8
0
 62
     0
 10
196.07
 20
30.7661
 30
0.0
 11
182.07
 21
30.7661
 31
0.0
  0
LINE
  8
0
 62
     0
 10
182.07
 20
30.7661
 30
0.0
 11
182.07
 21
44.7657
 31
0.0
  0
LINE
  8
0
 62
     0
 10
163.02
 20
44.7657
 30
0.0
 11
177.02
 21
44.7657
 31
0.0
  0
LINE
  8
0
 62
     0
 10
177.02
 20
44.7657
 30
0.0
 11
177.02
 21
30.7661
 31
0.0
  0
LINE
  8
0
 62
     0
 10
177.02
 20
30.7661
 30
0.0
 11
163.02
 21
30.7661
 31
0.0
  0
LINE
  8
0
 62
     0
 10
163.02
 20
30.7661
 30
0.0
 11
163.02
 21
44.7657
 31
0.0
  0
LINE
  8
0
 62
     0
 10
143.97
 20
44.7657
 30
0.0
 11
157.97
 21
44.7657
 31
0.0
  0
LINE
  8
0
 62
     0
 10
157.97
 20
44.7657
 30
0.0
 11
157.97
 21
30.7661
 31
0.0
  0
LINE
  8
0
 62
     0
 10
157.97
 20
30.7661
 30
0.0
 11
143.97
 21
30.7661
 31
0.0
  0
LINE
  8
0
 62
     0
 10
143.97
 20
30.7661
 30
0.0
 11
143.97
 21
44.7657
 31
0.0
  0
LINE
  8
0
 62
     0
 10
124.919
 20
44.7657
 30
0.0
 11
138.92
 21
44.7657
 31
0.0
  0
LINE
  8
0
 62
     0
 10
138.92
 20
44.7657
 30
0.0
 11
138.92
 21
30.7661
 31
0.0
  0
LINE
  8
0
 62
     0
 10
138.92
 20
30.7661
 30
0.0
 11
124.919
 21
30.7661
 31
0.0
  0
LINE
  8
0
 62
     0
 10
124.919
 20
30.7661
 30
0.0
 11
124.919
 21
44.7657
 31
0.0
  0
LINE
  8
0
 62
     0
 10
105.87
 20
44.7657
 30
0.0
 11
119.87
 21
44.7657
 31
0.0
  0
LINE
  8
0
 62
     0
 10
119.87
 20
44.7657
 30
0.0
 11
119.87
 21
30.7661
 31
0.0
  0
LINE
  8
0
 62
     0
 10
119.87
 20
30.7661
 30
0.0
 11
105.87
 21
30.7661
 31
0.0
  0
LINE
  8
0
 62
     0
 10
105.87
 20
30.7661
 30
0.0
 11
105.87
 21
44.7657
 31
0.0
  0
LINE
  8
0
 62
     0
 10
82.0579
 20
44.7657
 30
0.0
 11
96.0575
 21
44.7657
 31
0.0
  0
LINE
  8
0
 62
     0
 10
96.0575
 20
44.7657
 30
0.0
 11
96.0575
 21
30.7661
 31
0.0
  0
LINE
  8
0
 62
     0
 10
96.0575
 20
30.7661
 30
0.0
 11
82.0579
 21
30.7661
 31
0.0
  0
LINE
  8
0
 62
     0
 10
82.0579
 20
30.7661
 30
0.0
 11
82.0579
 21
44.7657
 31
0.0
  0
LINE
  8
0
 62
     0
 10
48.7204
 20
44.7657
 30
0.0
 11
62.72
 21
44.7657
 31
0.0
  0
LINE
  8
0
 62
     0
 10
62.72
 20
44.7657
 30
0.0
 11
62.72
 21
30.7661
 31
0.0
  0
LINE
  8
0
 62
     0
 10
62.72
 20
30.7661
 30
0.0
 11
48.7204
 21
30.7661
 31
0.0
  0
LINE
  8
0
 62
     0
 10
48.7204
 20
30.7661
 30
0.0
 11
48.7204
 21
44.7657
 31
0.0
  0
LINE
  8
0
 62
     0
 10
29.6706
 20
44.7657
 30
0.0
 11
43.67
 21
44.7657
 31
0.0
  0
LINE
  8
0
 62
     0
 10
43.67
 20
44.7657
 30
0.0
 11
43.67
 21
30.7661
 31
0.0
  0
LINE
  8
0
 62
     0
 10
43.67
 20
30.7661
 30
0.0
 11
29.6706
 21
30.7661
 31
0.0
  0
LINE
  8
0
 62
     0
 10
29.6706
 20
30.7661
 30
0.0
 11
29.6706
 21
44.7657
 31
0.0
  0
LINE
  8
0
 62
     0
 10
10.6192
 20
44.7657
 30
0.0
 11
24.62
 21
44.7657
 31
0.0
  0
LINE
  8
0
 62
     0
 10
24.62
 20
44.7657
 30
0.0
 11
24.62
 21
30.7661
 31
0.0
  0
LINE
  8
0
 62
     0
 10
24.62
 20
30.7661
 30
0.0
 11
10.6192
 21
30.7661
 31
0.0
  0
LINE
  8
0
 62
     0
 10
10.6192
 20
30.7661
 30
0.0
 11
10.6192
 21
44.7657
 31
0.0
  0
LINE
  8
0
 62
     0
 10
293.988
 20
63.8157
 30
0.0
 11
307.989
 21
63.8157
 31
0.0
  0
LINE
  8
0
 62
     0
 10
307.989
 20
63.8157
 30
0.0
 11
307.989
 21
49.8161
 31
0.0
  0
LINE
  8
0
 62
     0
 10
307.989
 20
49.8161
 30
0.0
 11
293.988
 21
49.8161
 31
0.0
  0
LINE
  8
0
 62
     0
 10
293.988
 20
49.8161
 30
0.0
 11
293.988
 21
63.8157
 31
0.0
  0
LINE
  8
0
 62
     0
 10
272.558
 20
63.8157
 30
0.0
 11
286.558
 21
63.8157
 31
0.0
  0
LINE
  8
0
 62
     0
 10
286.558
 20
63.8157
 30
0.0
 11
286.558
 21
49.8161
 31
0.0
  0
LINE
  8
0
 62
     0
 10
286.558
 20
49.8161
 30
0.0
 11
272.558
 21
49.8161
 31
0.0
  0
LINE
  8
0
 62
     0
 10
272.558
 20
49.8161
 30
0.0
 11
272.558
 21
63.8157
 31
0.0
  0
LINE
  8
0
 62
     0
 10
253.507
 20
63.8157
 30
0.0
 11
267.508
 21
63.8157
 31
0.0
  0
LINE
  8
0
 62
     0
 10
267.508
 20
63.8157
 30
0.0
 11
267.508
 21
49.8161
 31
0.0
  0
LINE
  8
0
 62
     0
 10
267.508
 20
49.8161
 30
0.0
 11
253.507
 21
49.8161
 31
0.0
  0
LINE
  8
0
 62
     0
 10
253.507
 20
49.8161
 30
0.0
 11
253.507
 21
63.8157
 31
0.0
  0
LINE
  8
0
 62
     0
 10
234.458
 20
63.8157
 30
0.0
 11
248.458
 21
63.8157
 31
0.0
  0
LINE
  8
0
 62
     0
 10
248.458
 20
63.8157
 30
0.0
 11
248.458
 21
49.8161
 31
0.0
  0
LINE
  8
0
 62
     0
 10
248.458
 20
49.8161
 30
0.0
 11
234.458
 21
49.8161
 31
0.0
  0
LINE
  8
0
 62
     0
 10
234.458
 20
49.8161
 30
0.0
 11
234.458
 21
63.8157
 31
0.0
  0
LINE
  8
0
 62
     0
 10
215.408
 20
63.8157
 30
0.0
 11
229.408
 21
63.8157
 31
0.0
  0
LINE
  8
0
 62
     0
 10
229.408
 20
63.8157
 30
0.0
 11
229.408
 21
49.8161
 31
0.0
  0
LINE
  8
0
 62
     0
 10
229.408
 20
49.8161
 30
0.0
 11
215.408
 21
49.8161
 31
0.0
  0
LINE
  8
0
 62
     0
 10
215.408
 20
49.8161
 30
0.0
 11
215.408
 21
63.8157
 31
0.0
  0
LINE
  8
0
 62
     0
 10
196.358
 20
63.8157
 30
0.0
 11
210.358
 21
63.8157
 31
0.0
  0
LINE
  8
0
 62
     0
 10
210.358
 20
63.8157
 30
0.0
 11
210.358
 21
49.8161
 31
0.0
  0
LINE
  8
0
 62
     0
 10
210.358
 20
49.8161
 30
0.0
 11
196.358
 21
49.8161
 31
0.0
  0
LINE
  8
0
 62
     0
 10
196.358
 20
49.8161
 30
0.0
 11
196.358
 21
63.8157
 31
0.0
  0
LINE
  8
0
 62
     0
 10
177.308
 20
63.8157
 30
0.0
 11
191.308
 21
63.8157
 31
0.0
  0
LINE
  8
0
 62
     0
 10
191.308
 20
63.8157
 30
0.0
 11
191.308
 21
49.8161
 31
0.0
  0
LINE
  8
0
 62
     0
 10
191.308
 20
49.8161
 30
0.0
 11
177.308
 21
49.8161
 31
0.0
  0
LINE
  8
0
 62
     0
 10
177.308
 20
49.8161
 30
0.0
 11
177.308
 21
63.8157
 31
0.0
  0
LINE
  8
0
 62
     0
 10
158.258
 20
63.8157
 30
0.0
 11
172.258
 21
63.8157
 31
0.0
  0
LINE
  8
0
 62
     0
 10
172.258
 20
63.8157
 30
0.0
 11
172.258
 21
49.8161
 31
0.0
  0
LINE
  8
0
 62
     0
 10
172.258
 20
49.8161
 30
0.0
 11
158.258
 21
49.8161
 31
0.0
  0
LINE
  8
0
 62
     0
 10
158.258
 20
49.8161
 30
0.0
 11
158.258
 21
63.8157
 31
0.0
  0
LINE
  8
0
 62
     0
 10
139.208
 20
63.8157
 30
0.0
 11
153.208
 21
63.8157
 31
0.0
  0
LINE
  8
0
 62
     0
 10
153.208
 20
63.8157
 30
0.0
 11
153.208
 21
49.8161
 31
0.0
  0
LINE
  8
0
 62
     0
 10
153.208
 20
49.8161
 30
0.0
 11
139.208
 21
49.8161
 31
0.0
  0
LINE
  8
0
 62
     0
 10
139.208
 20
49.8161
 30
0.0
 11
139.208
 21
63.8157
 31
0.0
  0
LINE
  8
0
 62
     0
 10
120.158
 20
63.8157
 30
0.0
 11
134.158
 21
63.8157
 31
0.0
  0
LINE
  8
0
 62
     0
 10
134.158
 20
63.8157
 30
0.0
 11
134.158
 21
49.8161
 31
0.0
  0
LINE
  8
0
 62
     0
 10
134.158
 20
49.8161
 30
0.0
 11
120.158
 21
49.8161
 31
0.0
  0
LINE
  8
0
 62
     0
 10
120.158
 20
49.8161
 30
0.0
 11
120.158
 21
63.8157
 31
0.0
  0
LINE
  8
0
 62
     0
 10
101.108
 20
63.8157
 30
0.0
 11
115.108
 21
63.8157
 31
0.0
  0
LINE
  8
0
 62
     0
 10
115.108
 20
63.8157
 30
0.0
 11
115.108
 21
49.8161
 31
0.0
  0
LINE
  8
0
 62
     0
 10
115.108
 20
49.8161
 30
0.0
 11
101.108
 21
49.8161
 31
0.0
  0
LINE
  8
0
 62
     0
 10
101.108
 20
49.8161
 30
0.0
 11
101.108
 21
63.8157
 31
0.0
  0
LINE
  8
0
 62
     0
 10
79.6766
 20
63.8157
 30
0.0
 11
93.6763
 21
63.8157
 31
0.0
  0
LINE
  8
0
 62
     0
 10
93.6763
 20
63.8157
 30
0.0
 11
93.6763
 21
49.8161
 31
0.0
  0
LINE
  8
0
 62
     0
 10
93.6763
 20
49.8161
 30
0.0
 11
79.6766
 21
49.8161
 31
0.0
  0
LINE
  8
0
 62
     0
 10
79.6766
 20
49.8161
 30
0.0
 11
79.6766
 21
63.8157
 31
0.0
  0
LINE
  8
0
 62
     0
 10
48.7204
 20
63.8157
 30
0.0
 11
62.72
 21
63.8157
 31
0.0
  0
LINE
  8
0
 62
     0
 10
62.72
 20
63.8157
 30
0.0
 11
62.72
 21
49.8161
 31
0.0
  0
LINE
  8
0
 62
     0
 10
62.72
 20
49.8161
 30
0.0
 11
48.7204
 21
49.8161
 31
0.0
  0
LINE
  8
0
 62
     0
 10
48.7204
 20
49.8161
 30
0.0
 11
48.7204
 21
63.8157
 31
0.0
  0
LINE
  8
0
 62
     0
 10
29.6706
 20
63.8157
 30
0.0
 11
43.67
 21
63.8157
 31
0.0
  0
LINE
  8
0
 62
     0
 10
43.67
 20
63.8157
 30
0.0
 11
43.67
 21
49.8161
 31
0.0
  0
LINE
  8
0
 62
     0
 10
43.67
 20
49.8161
 30
0.0
 11
29.6706
 21
49.8161
 31
0.0
  0
LINE
  8
0
 62
     0
 10
29.6706
 20
49.8161
 30
0.0
 11
29.6706
 21
63.8157
 31
0.0
  0
LINE
  8
0
 62
     0
 10
10.6192
 20
63.8157
 30
0.0
 11
24.62
 21
63.8157
 31
0.0
  0
LINE
  8
0
 62
     0
 10
24.62
 20
63.8157
 30
0.0
 11
24.62
 21
49.8161
 31
0.0
  0
LINE
  8
0
 62
     0
 10
24.62
 20
49.8161
 30
0.0
 11
10.6192
 21
49.8161
 31
0.0
  0
LINE
  8
0
 62
     0
 10
10.6192
 20
49.8161
 30
0.0
 11
10.6192
 21
63.8157
 31
0.0
  0
LINE
  8
0
 62
     0
 10
291.608
 20
82.8668
 30
0.0
 11
305.608
 21
82.8668
 31
0.0
  0
LINE
  8
0
 62
     0
 10
305.608
 20
82.8668
 30
0.0
 11
305.608
 21
68.8661
 31
0.0
  0
LINE
  8
0
 62
     0
 10
305.608
 20
68.8661
 30
0.0
 11
291.608
 21
68.8661
 31
0.0
  0
LINE
  8
0
 62
     0
 10
291.608
 20
68.8661
 30
0.0
 11
291.608
 21
82.8668
 31
0.0
  0
LINE
  8
0
 62
     0
 10
267.795
 20
82.8668
 30
0.0
 11
281.795
 21
82.8668
 31
0.0
  0
LINE
  8
0
 62
     0
 10
281.795
 20
82.8668
 30
0.0
 11
281.795
 21
68.8661
 31
0.0
  0
LINE
  8
0
 62
     0
 10
281.795
 20
68.8661
 30
0.0
 11
267.795
 21
68.8661
 31
0.0
  0
LINE
  8
0
 62
     0
 10
267.795
 20
68.8661
 30
0.0
 11
267.795
 21
82.8668
 31
0.0
  0
LINE
  8
0
 62
     0
 10
248.745
 20
82.8668
 30
0.0
 11
262.745
 21
82.8668
 31
0.0
  0
LINE
  8
0
 62
     0
 10
262.745
 20
82.8668
 30
0.0
 11
262.745
 21
68.8661
 31
0.0
  0
LINE
  8
0
 62
     0
 10
262.745
 20
68.8661
 30
0.0
 11
248.745
 21
68.8661
 31
0.0
  0
LINE
  8
0
 62
     0
 10
248.745
 20
68.8661
 30
0.0
 11
248.745
 21
82.8668
 31
0.0
  0
LINE
  8
0
 62
     0
 10
229.695
 20
82.8668
 30
0.0
 11
243.695
 21
82.8668
 31
0.0
  0
LINE
  8
0
 62
     0
 10
243.695
 20
82.8668
 30
0.0
 11
243.695
 21
68.8661
 31
0.0
  0
LINE
  8
0
 62
     0
 10
243.695
 20
68.8661
 30
0.0
 11
229.695
 21
68.8661
 31
0.0
  0
LINE
  8
0
 62
     0
 10
229.695
 20
68.8661
 30
0.0
 11
229.695
 21
82.8668
 31
0.0
  0
LINE
  8
0
 62
     0
 10
210.645
 20
82.8668
 30
0.0
 11
224.645
 21
82.8668
 31
0.0
  0
LINE
  8
0
 62
     0
 10
224.645
 20
82.8668
 30
0.0
 11
224.645
 21
68.8661
 31
0.0
  0
LINE
  8
0
 62
     0
 10
224.645
 20
68.8661
 30
0.0
 11
210.645
 21
68.8661
 31
0.0
  0
LINE
  8
0
 62
     0
 10
210.645
 20
68.8661
 30
0.0
 11
210.645
 21
82.8668
 31
0.0
  0
LINE
  8
0
 62
     0
 10
191.595
 20
82.8668
 30
0.0
 11
205.595
 21
82.8668
 31
0.0
  0
LINE
  8
0
 62
     0
 10
205.595
 20
82.8668
 30
0.0
 11
205.595
 21
68.8661
 31
0.0
  0
LINE
  8
0
 62
     0
 10
205.595
 20
68.8661
 30
0.0
 11
191.595
 21
68.8661
 31
0.0
  0
LINE
  8
0
 62
     0
 10
191.595
 20
68.8661
 30
0.0
 11
191.595
 21
82.8668
 31
0.0
  0
LINE
  8
0
 62
     0
 10
172.545
 20
82.8668
 30
0.0
 11
186.545
 21
82.8668
 31
0.0
  0
LINE
  8
0
 62
     0
 10
186.545
 20
82.8668
 30
0.0
 11
186.545
 21
68.8661
 31
0.0
  0
LINE
  8
0
 62
     0
 10
186.545
 20
68.8661
 30
0.0
 11
172.545
 21
68.8661
 31
0.0
  0
LINE
  8
0
 62
     0
 10
172.545
 20
68.8661
 30
0.0
 11
172.545
 21
82.8668
 31
0.0
  0
LINE
  8
0
 62
     0
 10
153.495
 20
82.8668
 30
0.0
 11
167.495
 21
82.8668
 31
0.0
  0
LINE
  8
0
 62
     0
 10
167.495
 20
82.8668
 30
0.0
 11
167.495
 21
68.8661
 31
0.0
  0
LINE
  8
0
 62
     0
 10
167.495
 20
68.8661
 30
0.0
 11
153.495
 21
68.8661
 31
0.0
  0
LINE
  8
0
 62
     0
 10
153.495
 20
68.8661
 30
0.0
 11
153.495
 21
82.8668
 31
0.0
  0
LINE
  8
0
 62
     0
 10
134.445
 20
82.8668
 30
0.0
 11
148.445
 21
82.8668
 31
0.0
  0
LINE
  8
0
 62
     0
 10
148.445
 20
82.8668
 30
0.0
 11
148.445
 21
68.8661
 31
0.0
  0
LINE
  8
0
 62
     0
 10
148.445
 20
68.8661
 30
0.0
 11
134.445
 21
68.8661
 31
0.0
  0
LINE
  8
0
 62
     0
 10
134.445
 20
68.8661
 30
0.0
 11
134.445
 21
82.8668
 31
0.0
  0
LINE
  8
0
 62
     0
 10
115.395
 20
82.8668
 30
0.0
 11
129.395
 21
82.8668
 31
0.0
  0
LINE
  8
0
 62
     0
 10
129.395
 20
82.8668
 30
0.0
 11
129.395
 21
68.8661
 31
0.0
  0
LINE
  8
0
 62
     0
 10
129.395
 20
68.8661
 30
0.0
 11
115.395
 21
68.8661
 31
0.0
  0
LINE
  8
0
 62
     0
 10
115.395
 20
68.8661
 30
0.0
 11
115.395
 21
82.8668
 31
0.0
  0
LINE
  8
0
 62
     0
 10
96.3454
 20
82.8668
 30
0.0
 11
110.345
 21
82.8668
 31
0.0
  0
LINE
  8
0
 62
     0
 10
110.345
 20
82.8668
 30
0.0
 11
110.345
 21
68.8661
 31
0.0
  0
LINE
  8
0
 62
     0
 10
110.345
 20
68.8661
 30
0.0
 11
96.3454
 21
68.8661
 31
0.0
  0
LINE
  8
0
 62
     0
 10
96.3454
 20
68.8661
 30
0.0
 11
96.3454
 21
82.8668
 31
0.0
  0
LINE
  8
0
 62
     0
 10
77.2954
 20
82.8668
 30
0.0
 11
91.295
 21
82.8668
 31
0.0
  0
LINE
  8
0
 62
     0
 10
91.295
 20
82.8668
 30
0.0
 11
91.295
 21
68.8661
 31
0.0
  0
LINE
  8
0
 62
     0
 10
91.295
 20
68.8661
 30
0.0
 11
77.2954
 21
68.8661
 31
0.0
  0
LINE
  8
0
 62
     0
 10
77.2954
 20
68.8661
 30
0.0
 11
77.2954
 21
82.8668
 31
0.0
  0
LINE
  8
0
 62
     0
 10
48.7204
 20
82.8668
 30
0.0
 11
62.72
 21
82.8668
 31
0.0
  0
LINE
  8
0
 62
     0
 10
62.72
 20
82.8668
 30
0.0
 11
62.72
 21
68.8661
 31
0.0
  0
LINE
  8
0
 62
     0
 10
62.72
 20
68.8661
 30
0.0
 11
48.7204
 21
68.8661
 31
0.0
  0
LINE
  8
0
 62
     0
 10
48.7204
 20
68.8661
 30
0.0
 11
48.7204
 21
82.8668
 31
0.0
  0
LINE
  8
0
 62
     0
 10
29.6706
 20
82.8668
 30
0.0
 11
43.67
 21
82.8668
 31
0.0
  0
LINE
  8
0
 62
     0
 10
43.67
 20
82.8668
 30
0.0
 11
43.67
 21
68.8661
 31
0.0
  0
LINE
  8
0
 62
     0
 10
43.67
 20
68.8661
 30
0.0
 11
29.6706
 21
68.8661
 31
0.0
  0
LINE
  8
0
 62
     0
 10
29.6706
 20
68.8661
 30
0.0
 11
29.6706
 21
82.8668
 31
0.0
  0
LINE
  8
0
 62
     0
 10
10.6192
 20
82.8668
 30
0.0
 11
24.62
 21
82.8668
 31
0.0
  0
LINE
  8
0
 62
     0
 10
24.62
 20
82.8668
 30
0.0
 11
24.62
 21
68.8661
 31
0.0
  0
LINE
  8
0
 62
     0
 10
24.62
 20
68.8661
 30
0.0
 11
10.6192
 21
68.8661
 31
0.0
  0
LINE
  8
0
 62
     0
 10
10.6192
 20
68.8661
 30
0.0
 11
10.6192
 21
82.8668
 31
0.0
  0
LINE
  8
0
 62
     0
 10
3.6008
 20
90.9119
 30
0.0
 11
3.15295
 21
90.6861
 31
0.0
  0
LINE
  8
0
 62
     0
 10
3.15295
 20
90.6861
 30
0.0
 11
2.80017
 21
90.3333
 31
0.0
  0
LINE
  8
0
 62
     0
 10
2.80017
 20
90.3333
 30
0.0
 11
2.57418
 21
89.8853
 31
0.0
  0
LINE
  8
0
 62
     0
 10
2.57418
 20
89.8853
 30
0.0
 11
2.49425
 21
89.3907
 31
0.0
  0
LINE
  8
0
 62
     0
 10
2.49425
 20
89.3907
 30
0.0
 11
2.57418
 21
88.8972
 31
0.0
  0
LINE
  8
0
 62
     0
 10
2.57418
 20
88.8972
 30
0.0
 11
2.80017
 21
88.4509
 31
0.0
  0
LINE
  8
0
 62
     0
 10
2.80017
 20
88.4509
 30
0.0
 11
3.15295
 21
88.0967
 31
0.0
  0
LINE
  8
0
 62
     0
 10
3.15295
 20
88.0967
 30
0.0
 11
3.6008
 21
87.8692
 31
0.0
  0
LINE
  8
0
 62
     0
 10
3.6008
 20
87.8692
 30
0.0
 11
4.09416
 21
87.7905
 31
0.0
  0
LINE
  8
0
 62
     0
 10
4.09416
 20
87.7905
 30
0.0
 11
4.58886
 21
87.8692
 31
0.0
  0
LINE
  8
0
 62
     0
 10
4.58886
 20
87.8692
 30
0.0
 11
5.03534
 21
88.0967
 31
0.0
  0
LINE
  8
0
 62
     0
 10
5.03534
 20
88.0967
 30
0.0
 11
5.38949
 21
88.4509
 31
0.0
  0
LINE
  8
0
 62
     0
 10
5.38949
 20
88.4509
 30
0.0
 11
5.61689
 21
88.8972
 31
0.0
  0
LINE
  8
0
 62
     0
 10
5.61689
 20
88.8972
 30
0.0
 11
5.69405
 21
89.3907
 31
0.0
  0
LINE
  8
0
 62
     0
 10
5.69405
 20
89.3907
 30
0.0
 11
5.61689
 21
89.8853
 31
0.0
  0
LINE
  8
0
 62
     0
 10
5.61689
 20
89.8853
 30
0.0
 11
5.38949
 21
90.3333
 31
0.0
  0
LINE
  8
0
 62
     0
 10
5.38949
 20
90.3333
 30
0.0
 11
5.03534
 21
90.6861
 31
0.0
  0
LINE
  8
0
 62
     0
 10
5.03534
 20
90.6861
 30
0.0
 11
4.58886
 21
90.9119
 31
0.0
  0
LINE
  8
0
 62
     0
 10
4.58886
 20
90.9119
 30
0.0
 11
4.09416
 21
90.9906
 31
0.0
  0
LINE
  8
0
 62
     0
 10
4.09416
 20
90.9906
 30
0.0
 11
3.6008
 21
90.9119
 31
0.0
  0
LINE
  8
0
 62
     0
 10
316.402
 20
90.9119
 30
0.0
 11
315.955
 21
90.6861
 31
0.0
  0
LINE
  8
0
 62
     0
 10
315.955
 20
90.6861
 30
0.0
 11
315.601
 21
90.3333
 31
0.0
  0
LINE
  8
0
 62
     0
 10
315.601
 20
90.3333
 30
0.0
 11
315.375
 21
89.8853
 31
0.0
  0
LINE
  8
0
 62
     0
 10
315.375
 20
89.8853
 30
0.0
 11
315.297
 21
89.3907
 31
0.0
  0
LINE
  8
0
 62
     0
 10
315.297
 20
89.3907
 30
0.0
 11
315.375
 21
88.8972
 31
0.0
  0
LINE
  8
0
 62
     0
 10
315.375
 20
88.8972
 30
0.0
 11
315.601
 21
88.4509
 31
0.0
  0
LINE
  8
0
 62
     0
 10
315.601
 20
88.4509
 30
0.0
 11
315.955
 21
88.0967
 31
0.0
  0
LINE
  8
0
 62
     0
 10
315.955
 20
88.0967
 30
0.0
 11
316.402
 21
87.8692
 31
0.0
  0
LINE
  8
0
 62
     0
 10
316.402
 20
87.8692
 30
0.0
 11
316.896
 21
87.7905
 31
0.0
  0
LINE
  8
0
 62
     0
 10
316.896
 20
87.7905
 30
0.0
 11
317.391
 21
87.8692
 31
0.0
  0
LINE
  8
0
 62
     0
 10
317.391
 20
87.8692
 30
0.0
 11
317.836
 21
88.0967
 31
0.0
  0
LINE
  8
0
 62
     0
 10
317.836
 20
88.0967
 30
0.0
 11
318.19
 21
88.4509
 31
0.0
  0
LINE
  8
0
 62
     0
 10
318.19
 20
88.4509
 30
0.0
 11
318.418
 21
88.8972
 31
0.0
  0
LINE
  8
0
 62
     0
 10
318.418
 20
88.8972
 30
0.0
 11
318.496
 21
89.3907
 31
0.0
  0
LINE
  8
0
 62
     0
 10
318.496
 20
89.3907
 30
0.0
 11
318.418
 21
89.8853
 31
0.0
  0
LINE
  8
0
 62
     0
 10
318.418
 20
89.8853
 30
0.0
 11
318.19
 21
90.3333
 31
0.0
  0
LINE
  8
0
 62
     0
 10
318.19
 20
90.3333
 30
0.0
 11
317.836
 21
90.6861
 31
0.0
  0
LINE
  8
0
 62
     0
 10
317.836
 20
90.6861
 30
0.0
 11
317.391
 21
90.9119
 31
0.0
  0
LINE
  8
0
 62
     0
 10
317.391
 20
90.9119
 30
0.0
 11
316.896
 21
90.9906
 31
0.0
  0
LINE
  8
0
 62
     0
 10
316.896
 20
90.9906
 30
0.0
 11
316.402
 21
90.9119
 31
0.0
  0
LINE
  8
0
 62
     0
 10
238.202
 20
90.9119
 30
0.0
 11
237.756
 21
90.6861
 31
0.0
  0
LINE
  8
0
 62
     0
 10
237.756
 20
90.6861
 30
0.0
 11
237.401
 21
90.3333
 31
0.0
  0
LINE
  8
0
 62
     0
 10
237.401
 20
90.3333
 30
0.0
 11
237.174
 21
89.8853
 31
0.0
  0
LINE
  8
0
 62
     0
 10
237.174
 20
89.8853
 30
0.0
 11
237.096
 21
89.3907
 31
0.0
  0
LINE
  8
0
 62
     0
 10
237.096
 20
89.3907
 30
0.0
 11
237.174
 21
88.8972
 31
0.0
  0
LINE
  8
0
 62
     0
 10
237.174
 20
88.8972
 30
0.0
 11
237.401
 21
88.4509
 31
0.0
  0
LINE
  8
0
 62
     0
 10
237.401
 20
88.4509
 30
0.0
 11
237.756
 21
88.0967
 31
0.0
  0
LINE
  8
0
 62
     0
 10
237.756
 20
88.0967
 30
0.0
 11
238.202
 21
87.8692
 31
0.0
  0
LINE
  8
0
 62
     0
 10
238.202
 20
87.8692
 30
0.0
 11
238.695
 21
87.7905
 31
0.0
  0
LINE
  8
0
 62
     0
 10
238.695
 20
87.7905
 30
0.0
 11
239.19
 21
87.8692
 31
0.0
  0
LINE
  8
0
 62
     0
 10
239.19
 20
87.8692
 30
0.0
 11
239.637
 21
88.0967
 31
0.0
  0
LINE
  8
0
 62
     0
 10
239.637
 20
88.0967
 30
0.0
 11
239.991
 21
88.4509
 31
0.0
  0
LINE
  8
0
 62
     0
 10
239.991
 20
88.4509
 30
0.0
 11
240.217
 21
88.8972
 31
0.0
  0
LINE
  8
0
 62
     0
 10
240.217
 20
88.8972
 30
0.0
 11
240.295
 21
89.3907
 31
0.0
  0
LINE
  8
0
 62
     0
 10
240.295
 20
89.3907
 30
0.0
 11
240.217
 21
89.8853
 31
0.0
  0
LINE
  8
0
 62
     0
 10
240.217
 20
89.8853
 30
0.0
 11
239.991
 21
90.3333
 31
0.0
  0
LINE
  8
0
 62
     0
 10
239.991
 20
90.3333
 30
0.0
 11
239.637
 21
90.6861
 31
0.0
  0
LINE
  8
0
 62
     0
 10
239.637
 20
90.6861
 30
0.0
 11
239.19
 21
90.9119
 31
0.0
  0
LINE
  8
0
 62
     0
 10
239.19
 20
90.9119
 30
0.0
 11
238.695
 21
90.9906
 31
0.0
  0
LINE
  8
0
 62
     0
 10
238.695
 20
90.9906
 30
0.0
 11
238.202
 21
90.9119
 31
0.0
  0
LINE
  8
0
 62
     0
 10
160.001
 20
90.9119
 30
0.0
 11
159.556
 21
90.6861
 31
0.0
  0
LINE
  8
0
 62
     0
 10
159.556
 20
90.6861
 30
0.0
 11
159.202
 21
90.3333
 31
0.0
  0
LINE
  8
0
 62
     0
 10
159.202
 20
90.3333
 30
0.0
 11
158.973
 21
89.8853
 31
0.0
  0
LINE
  8
0
 62
     0
 10
158.973
 20
89.8853
 30
0.0
 11
158.896
 21
89.3907
 31
0.0
  0
LINE
  8
0
 62
     0
 10
158.896
 20
89.3907
 30
0.0
 11
158.973
 21
88.8972
 31
0.0
  0
LINE
  8
0
 62
     0
 10
158.973
 20
88.8972
 30
0.0
 11
159.202
 21
88.4509
 31
0.0
  0
LINE
  8
0
 62
     0
 10
159.202
 20
88.4509
 30
0.0
 11
159.556
 21
88.0967
 31
0.0
  0
LINE
  8
0
 62
     0
 10
159.556
 20
88.0967
 30
0.0
 11
160.001
 21
87.8692
 31
0.0
  0
LINE
  8
0
 62
     0
 10
160.001
 20
87.8692
 30
0.0
 11
160.496
 21
87.7905
 31
0.0
  0
LINE
  8
0
 62
     0
 10
160.496
 20
87.7905
 30
0.0
 11
160.989
 21
87.8692
 31
0.0
  0
LINE
  8
0
 62
     0
 10
160.989
 20
87.8692
 30
0.0
 11
161.436
 21
88.0967
 31
0.0
  0
LINE
  8
0
 62
     0
 10
161.436
 20
88.0967
 30
0.0
 11
161.79
 21
88.4509
 31
0.0
  0
LINE
  8
0
 62
     0
 10
161.79
 20
88.4509
 30
0.0
 11
162.017
 21
88.8972
 31
0.0
  0
LINE
  8
0
 62
     0
 10
162.017
 20
88.8972
 30
0.0
 11
162.096
 21
89.3907
 31
0.0
  0
LINE
  8
0
 62
     0
 10
162.096
 20
89.3907
 30
0.0
 11
162.017
 21
89.8853
 31
0.0
  0
LINE
  8
0
 62
     0
 10
162.017
 20
89.8853
 30
0.0
 11
161.79
 21
90.3333
 31
0.0
  0
LINE
  8
0
 62
     0
 10
161.79
 20
90.3333
 30
0.0
 11
161.436
 21
90.6861
 31
0.0
  0
LINE
  8
0
 62
     0
 10
161.436
 20
90.6861
 30
0.0
 11
160.989
 21
90.9119
 31
0.0
  0
LINE
  8
0
 62
     0
 10
160.989
 20
90.9119
 30
0.0
 11
160.496
 21
90.9906
 31
0.0
  0
LINE
  8
0
 62
     0
 10
160.496
 20
90.9906
 30
0.0
 11
160.001
 21
90.9119
 31
0.0
  0
LINE
  8
0
 62
     0
 10
81.8003
 20
90.9119
 30
0.0
 11
81.3537
 21
90.6861
 31
0.0
  0
LINE
  8
0
 62
     0
 10
81.3537
 20
90.6861
 30
0.0
 11
81.001
 21
90.3333
 31
0.0
  0
LINE
  8
0
 62
     0
 10
81.001
 20
90.3333
 30
0.0
 11
80.7738
 21
89.8853
 31
0.0
  0
LINE
  8
0
 62
     0
 10
80.7738
 20
89.8853
 30
0.0
 11
80.6951
 21
89.3907
 31
0.0
  0
LINE
  8
0
 62
     0
 10
80.6951
 20
89.3907
 30
0.0
 11
80.7738
 21
88.8972
 31
0.0
  0
LINE
  8
0
 62
     0
 10
80.7738
 20
88.8972
 30
0.0
 11
81.001
 21
88.4509
 31
0.0
  0
LINE
  8
0
 62
     0
 10
81.001
 20
88.4509
 30
0.0
 11
81.3537
 21
88.0967
 31
0.0
  0
LINE
  8
0
 62
     0
 10
81.3537
 20
88.0967
 30
0.0
 11
81.8003
 21
87.8692
 31
0.0
  0
LINE
  8
0
 62
     0
 10
81.8003
 20
87.8692
 30
0.0
 11
82.2949
 21
87.7905
 31
0.0
  0
LINE
  8
0
 62
     0
 10
82.2949
 20
87.7905
 30
0.0
 11
82.7899
 21
87.8692
 31
0.0
  0
LINE
  8
0
 62
     0
 10
82.7899
 20
87.8692
 30
0.0
 11
83.2347
 21
88.0967
 31
0.0
  0
LINE
  8
0
 62
     0
 10
83.2347
 20
88.0967
 30
0.0
 11
83.5889
 21
88.4509
 31
0.0
  0
LINE
  8
0
 62
     0
 10
83.5889
 20
88.4509
 30
0.0
 11
83.8165
 21
88.8972
 31
0.0
  0
LINE
  8
0
 62
     0
 10
83.8165
 20
88.8972
 30
0.0
 11
83.8951
 21
89.3907
 31
0.0
  0
LINE
  8
0
 62
     0
 10
83.8951
 20
89.3907
 30
0.0
 11
83.8165
 21
89.8853
 31
0.0
  0
LINE
  8
0
 62
     0
 10
83.8165
 20
89.8853
 30
0.0
 11
83.5889
 21
90.3333
 31
0.0
  0
LINE
  8
0
 62
     0
 10
83.5889
 20
90.3333
 30
0.0
 11
83.2347
 21
90.6861
 31
0.0
  0
LINE
  8
0
 62
     0
 10
83.2347
 20
90.6861
 30
0.0
 11
82.7899
 21
90.9119
 31
0.0
  0
LINE
  8
0
 62
     0
 10
82.7899
 20
90.9119
 30
0.0
 11
82.2949
 21
90.9906
 31
0.0
  0
LINE
  8
0
 62
     0
 10
82.2949
 20
90.9906
 30
0.0
 11
81.8003
 21
90.9119
 31
0.0
  0
ENDSEC
  0
EOF
