M48
; DRILL file {KiCad (5.1.6)-1} date 06/30/20 22:31:10
; FORMAT={-:-/ absolute / inch / decimal}
; #@! TF.CreationDate,2020-06-30T22:31:10-04:00
; #@! TF.GenerationSoftware,Kicad,Pcbnew,(5.1.6)-1
; #@! TF.FileFunction,Plated,1,2,PTH
FMAT,2
INCH
T1C0.0157
T2C0.0236
T3C0.0579
%
G90
G05
T1
X2.795Y-3.665
X2.975Y-3.535
X2.9825Y-2.1275
X3.0Y-2.875
X3.0Y-3.625
X3.025Y-2.0312
X3.025Y-2.16
X3.0938Y-2.2412
X3.095Y-3.365
X3.115Y-3.26
X3.16Y-1.98
X3.1948Y-2.2402
X3.2275Y-3.1475
X3.3125Y-1.9062
X3.3125Y-2.125
X3.36Y-3.795
X3.39Y-2.98
X3.4643Y-1.9807
X3.5312Y-2.24
X3.6Y-2.0312
X3.6Y-2.16
X3.6425Y-2.1275
X3.78Y-3.58
X3.8125Y-2.875
X3.8125Y-3.625
X7.625Y-3.6875
X9.0938Y-3.125
X9.9375Y-3.125
X10.6875Y-3.125
X11.4375Y-3.125
X12.1875Y-3.125
T3
X6.1625Y-2.525
X6.4125Y-2.425
X11.225Y-1.775
X11.475Y-1.675
X7.85Y-3.275
X8.1Y-3.175
X10.85Y-4.025
X11.1Y-3.925
X8.4125Y-2.525
X8.6625Y-2.425
X2.6Y-3.275
X2.85Y-3.175
X2.6Y-1.775
X2.85Y-1.675
X7.1Y-3.275
X7.35Y-3.175
X9.725Y-1.775
X9.975Y-1.675
X5.975Y-4.025
X6.225Y-3.925
X4.85Y-3.275
X5.1Y-3.175
X1.85Y-2.525
X2.1Y-2.425
X10.85Y-3.275
X11.1Y-3.175
X2.6Y-4.025
X2.85Y-3.925
X8.0375Y-4.025
X8.2875Y-3.925
X5.6Y-3.275
X5.85Y-3.175
X12.35Y-3.275
X12.6Y-3.175
X6.8187Y-4.025
X7.0687Y-3.925
X5.225Y-4.025
X5.475Y-3.925
X12.1625Y-1.775
X12.4125Y-1.675
X5.4125Y-2.525
X5.6625Y-2.425
X7.475Y-1.775
X7.725Y-1.675
X6.35Y-3.275
X6.6Y-3.175
X1.1Y-2.525
X1.35Y-2.425
X5.975Y-1.775
X6.225Y-1.675
X1.85Y-3.275
X2.1Y-3.175
X3.8188Y-2.525
X4.0687Y-2.425
X5.225Y-1.775
X5.475Y-1.675
X4.475Y-4.025
X4.725Y-3.925
X9.2562Y-4.025
X9.5062Y-3.925
X1.85Y-4.025
X2.1Y-3.925
X7.6625Y-2.525
X7.9125Y-2.425
X3.725Y-1.775
X3.975Y-1.675
X8.225Y-1.775
X8.475Y-1.675
X6.9125Y-2.525
X7.1625Y-2.425
X6.725Y-1.775
X6.975Y-1.675
X8.6Y-3.275
X8.85Y-3.175
X8.975Y-1.775
X9.225Y-1.675
X3.9125Y-3.275
X4.1625Y-3.175
X3.725Y-4.025
X3.975Y-3.925
X2.6Y-2.525
X2.85Y-2.425
X1.1Y-1.775
X1.35Y-1.675
X10.1Y-4.025
X10.35Y-3.925
X9.35Y-3.275
X9.6Y-3.175
X9.9125Y-2.525
X10.1625Y-2.425
X10.1Y-3.275
X10.35Y-3.175
X10.475Y-1.775
X10.725Y-1.675
X12.35Y-4.025
X12.6Y-3.925
X1.1Y-4.025
X1.35Y-3.925
X4.6625Y-2.525
X4.9125Y-2.425
X11.6Y-4.025
X11.85Y-3.925
X9.1625Y-2.525
X9.4125Y-2.425
X1.85Y-1.775
X2.1Y-1.675
X11.6Y-3.275
X11.85Y-3.175
X11.4125Y-2.525
X11.6625Y-2.425
X10.6625Y-2.525
X10.9125Y-2.425
X12.2562Y-2.525
X12.5062Y-2.425
X4.475Y-1.775
X4.725Y-1.675
X1.1Y-3.275
X1.35Y-3.175
T2
G00X3.1424Y-1.5281
M15
G01X3.1424Y-1.5517
M16
G05
G00X3.1424Y-1.6828
M15
G01X3.1424Y-1.7261
M16
G05
G00X3.4826Y-1.5281
M15
G01X3.4826Y-1.5517
M16
G05
G00X3.4826Y-1.6828
M15
G01X3.4826Y-1.7261
M16
G05
T0
M30
