G04 #@! TF.GenerationSoftware,KiCad,Pcbnew,(5.1.6)-1*
G04 #@! TF.CreationDate,2020-06-23T20:41:26-04:00*
G04 #@! TF.ProjectId,Trout-59,54726f75-742d-4353-992e-6b696361645f,rev?*
G04 #@! TF.SameCoordinates,Original*
G04 #@! TF.FileFunction,Legend,Bot*
G04 #@! TF.FilePolarity,Positive*
%FSLAX46Y46*%
G04 Gerber Fmt 4.6, Leading zero omitted, Abs format (unit mm)*
G04 Created by KiCad (PCBNEW (5.1.6)-1) date 2020-06-23 20:41:26*
%MOMM*%
%LPD*%
G01*
G04 APERTURE LIST*
%ADD10C,0.250000*%
%ADD11C,0.120000*%
%ADD12C,0.150000*%
%ADD13C,2.350000*%
%ADD14C,4.087800*%
%ADD15C,1.850000*%
%ADD16C,0.100000*%
%ADD17C,3.148000*%
%ADD18R,1.900000X1.200000*%
%ADD19R,0.700000X1.550000*%
%ADD20R,0.400000X1.550000*%
%ADD21C,0.750000*%
%ADD22R,1.500000X1.300000*%
%ADD23R,0.750000X1.160000*%
%ADD24R,1.300000X1.000000*%
G04 APERTURE END LIST*
D10*
X84928201Y-107950764D02*
G75*
G02*
X88106249Y-107950001I1590549J-6349236D01*
G01*
D11*
X85928299Y-100806250D02*
G75*
G03*
X85928299Y-100806250I-203299J0D01*
G01*
D10*
X86518750Y-100806250D02*
X87219475Y-99279598D01*
X85725001Y-99218751D02*
X86518750Y-100806250D01*
X86440856Y-106441797D02*
G75*
G02*
X85725001Y-99218751I4046644J4048047D01*
G01*
X87219475Y-99279597D02*
G75*
G02*
X86518749Y-106362499I-4669475J-3114153D01*
G01*
X86518750Y-106362500D02*
X88106250Y-107950000D01*
X86518750Y-106362500D02*
X84931250Y-107950000D01*
X318697714Y-114216571D02*
X318697714Y-112716571D01*
X317840571Y-114216571D01*
X317840571Y-112716571D01*
X316912000Y-114216571D02*
X317054857Y-114145142D01*
X317126285Y-114073714D01*
X317197714Y-113930857D01*
X317197714Y-113502285D01*
X317126285Y-113359428D01*
X317054857Y-113288000D01*
X316912000Y-113216571D01*
X316697714Y-113216571D01*
X316554857Y-113288000D01*
X316483428Y-113359428D01*
X316412000Y-113502285D01*
X316412000Y-113930857D01*
X316483428Y-114073714D01*
X316554857Y-114145142D01*
X316697714Y-114216571D01*
X316912000Y-114216571D01*
X315983428Y-113216571D02*
X315412000Y-113216571D01*
X315769142Y-112716571D02*
X315769142Y-114002285D01*
X315697714Y-114145142D01*
X315554857Y-114216571D01*
X315412000Y-114216571D01*
X313840571Y-113788000D02*
X313126285Y-113788000D01*
X313983428Y-114216571D02*
X313483428Y-112716571D01*
X312983428Y-114216571D01*
X311340571Y-114216571D02*
X311340571Y-112716571D01*
X310840571Y-113788000D01*
X310340571Y-112716571D01*
X310340571Y-114216571D01*
X309412000Y-114216571D02*
X309554857Y-114145142D01*
X309626285Y-114073714D01*
X309697714Y-113930857D01*
X309697714Y-113502285D01*
X309626285Y-113359428D01*
X309554857Y-113288000D01*
X309412000Y-113216571D01*
X309197714Y-113216571D01*
X309054857Y-113288000D01*
X308983428Y-113359428D01*
X308912000Y-113502285D01*
X308912000Y-113930857D01*
X308983428Y-114073714D01*
X309054857Y-114145142D01*
X309197714Y-114216571D01*
X309412000Y-114216571D01*
X308054857Y-114216571D02*
X308197714Y-114145142D01*
X308269142Y-114073714D01*
X308340571Y-113930857D01*
X308340571Y-113502285D01*
X308269142Y-113359428D01*
X308197714Y-113288000D01*
X308054857Y-113216571D01*
X307840571Y-113216571D01*
X307697714Y-113288000D01*
X307626285Y-113359428D01*
X307554857Y-113502285D01*
X307554857Y-113930857D01*
X307626285Y-114073714D01*
X307697714Y-114145142D01*
X307840571Y-114216571D01*
X308054857Y-114216571D01*
X306983428Y-114145142D02*
X306840571Y-114216571D01*
X306554857Y-114216571D01*
X306412000Y-114145142D01*
X306340571Y-114002285D01*
X306340571Y-113930857D01*
X306412000Y-113788000D01*
X306554857Y-113716571D01*
X306769142Y-113716571D01*
X306912000Y-113645142D01*
X306983428Y-113502285D01*
X306983428Y-113430857D01*
X306912000Y-113288000D01*
X306769142Y-113216571D01*
X306554857Y-113216571D01*
X306412000Y-113288000D01*
X305126285Y-114145142D02*
X305269142Y-114216571D01*
X305554857Y-114216571D01*
X305697714Y-114145142D01*
X305769142Y-114002285D01*
X305769142Y-113430857D01*
X305697714Y-113288000D01*
X305554857Y-113216571D01*
X305269142Y-113216571D01*
X305126285Y-113288000D01*
X305054857Y-113430857D01*
X305054857Y-113573714D01*
X305769142Y-113716571D01*
D12*
G04 #@! TO.C,U1*
X79200195Y-85725000D02*
X79606781Y-85318414D01*
X86518750Y-93043555D02*
X86996047Y-92566258D01*
X93837305Y-85725000D02*
X93360008Y-86202297D01*
X86518750Y-78406445D02*
X86041453Y-78883742D01*
X79200195Y-85725000D02*
X79677492Y-86202297D01*
X86518750Y-78406445D02*
X86996047Y-78883742D01*
X93837305Y-85725000D02*
X93360008Y-85247703D01*
X86518750Y-93043555D02*
X86041453Y-92566258D01*
X79606781Y-85318414D02*
X78705220Y-84416852D01*
G04 #@! TO.C,SW1*
X98028000Y-59237000D02*
G75*
G03*
X98028000Y-59237000I-1000000J0D01*
G01*
X94428000Y-56637000D02*
X94428000Y-61837000D01*
X99628000Y-56637000D02*
X94428000Y-56637000D01*
X99628000Y-61837000D02*
X99628000Y-56637000D01*
X94428000Y-61837000D02*
X99628000Y-61837000D01*
D11*
G04 #@! TO.C,Y1*
X95853000Y-74804000D02*
X95853000Y-78104000D01*
X95853000Y-78104000D02*
X91853000Y-78104000D01*
G04 #@! TO.C,U2*
X85747500Y-50535000D02*
X85747500Y-52335000D01*
X82527500Y-52335000D02*
X82527500Y-49885000D01*
G04 #@! TO.C,R6*
X90403750Y-54233578D02*
X90403750Y-53716422D01*
X88983750Y-54233578D02*
X88983750Y-53716422D01*
G04 #@! TO.C,R5*
X79291250Y-54233578D02*
X79291250Y-53716422D01*
X77871250Y-54233578D02*
X77871250Y-53716422D01*
G04 #@! TO.C,R4*
X89219204Y-95934888D02*
X89584888Y-95569204D01*
X88215112Y-94930796D02*
X88580796Y-94565112D01*
G04 #@! TO.C,R3*
X81672500Y-54233578D02*
X81672500Y-53716422D01*
X80252500Y-54233578D02*
X80252500Y-53716422D01*
G04 #@! TO.C,R2*
X88022500Y-54233578D02*
X88022500Y-53716422D01*
X86602500Y-54233578D02*
X86602500Y-53716422D01*
G04 #@! TO.C,R1*
X84151801Y-76388367D02*
X83786117Y-76754051D01*
X83147709Y-75384275D02*
X82782025Y-75749959D01*
G04 #@! TO.C,F1*
X79153936Y-57383000D02*
X80358064Y-57383000D01*
X79153936Y-59203000D02*
X80358064Y-59203000D01*
G04 #@! TO.C,D59*
X322468750Y-111787500D02*
X320468750Y-111787500D01*
X320468750Y-111787500D02*
X320468750Y-107887500D01*
X322468750Y-111787500D02*
X322468750Y-107887500D01*
G04 #@! TO.C,D58*
X303418750Y-111787500D02*
X301418750Y-111787500D01*
X301418750Y-111787500D02*
X301418750Y-107887500D01*
X303418750Y-111787500D02*
X303418750Y-107887500D01*
G04 #@! TO.C,D57*
X284368750Y-111787500D02*
X282368750Y-111787500D01*
X282368750Y-111787500D02*
X282368750Y-107887500D01*
X284368750Y-111787500D02*
X284368750Y-107887500D01*
G04 #@! TO.C,D56*
X265318750Y-111787500D02*
X263318750Y-111787500D01*
X263318750Y-111787500D02*
X263318750Y-107887500D01*
X265318750Y-111787500D02*
X265318750Y-107887500D01*
G04 #@! TO.C,D55*
X243887500Y-111787500D02*
X241887500Y-111787500D01*
X241887500Y-111787500D02*
X241887500Y-107887500D01*
X243887500Y-111787500D02*
X243887500Y-107887500D01*
G04 #@! TO.C,D54*
X212931250Y-111787500D02*
X210931250Y-111787500D01*
X210931250Y-111787500D02*
X210931250Y-107887500D01*
X212931250Y-111787500D02*
X212931250Y-107887500D01*
G04 #@! TO.C,D53*
X181975000Y-111787500D02*
X179975000Y-111787500D01*
X179975000Y-111787500D02*
X179975000Y-107887500D01*
X181975000Y-111787500D02*
X181975000Y-107887500D01*
G04 #@! TO.C,D52*
X160543750Y-111787500D02*
X158543750Y-111787500D01*
X158543750Y-111787500D02*
X158543750Y-107887500D01*
X160543750Y-111787500D02*
X160543750Y-107887500D01*
G04 #@! TO.C,D51*
X141493750Y-111787500D02*
X139493750Y-111787500D01*
X139493750Y-111787500D02*
X139493750Y-107887500D01*
X141493750Y-111787500D02*
X141493750Y-107887500D01*
G04 #@! TO.C,D50*
X122443750Y-111787500D02*
X120443750Y-111787500D01*
X120443750Y-111787500D02*
X120443750Y-107887500D01*
X122443750Y-111787500D02*
X122443750Y-107887500D01*
G04 #@! TO.C,D49*
X103393750Y-111787500D02*
X101393750Y-111787500D01*
X101393750Y-111787500D02*
X101393750Y-107887500D01*
X103393750Y-111787500D02*
X103393750Y-107887500D01*
G04 #@! TO.C,D48*
X74818750Y-111787500D02*
X72818750Y-111787500D01*
X72818750Y-111787500D02*
X72818750Y-107887500D01*
X74818750Y-111787500D02*
X74818750Y-107887500D01*
G04 #@! TO.C,D47*
X55768750Y-111787500D02*
X53768750Y-111787500D01*
X53768750Y-111787500D02*
X53768750Y-107887500D01*
X55768750Y-111787500D02*
X55768750Y-107887500D01*
G04 #@! TO.C,D46*
X36718750Y-111787500D02*
X34718750Y-111787500D01*
X34718750Y-111787500D02*
X34718750Y-107887500D01*
X36718750Y-111787500D02*
X36718750Y-107887500D01*
G04 #@! TO.C,D45*
X322468750Y-92737500D02*
X320468750Y-92737500D01*
X320468750Y-92737500D02*
X320468750Y-88837500D01*
X322468750Y-92737500D02*
X322468750Y-88837500D01*
G04 #@! TO.C,D44*
X303418750Y-92737500D02*
X301418750Y-92737500D01*
X301418750Y-92737500D02*
X301418750Y-88837500D01*
X303418750Y-92737500D02*
X303418750Y-88837500D01*
G04 #@! TO.C,D43*
X284368750Y-92737500D02*
X282368750Y-92737500D01*
X282368750Y-92737500D02*
X282368750Y-88837500D01*
X284368750Y-92737500D02*
X284368750Y-88837500D01*
G04 #@! TO.C,D42*
X265318750Y-92737500D02*
X263318750Y-92737500D01*
X263318750Y-92737500D02*
X263318750Y-88837500D01*
X265318750Y-92737500D02*
X265318750Y-88837500D01*
G04 #@! TO.C,D41*
X246268750Y-92737500D02*
X244268750Y-92737500D01*
X244268750Y-92737500D02*
X244268750Y-88837500D01*
X246268750Y-92737500D02*
X246268750Y-88837500D01*
G04 #@! TO.C,D40*
X227218750Y-92737500D02*
X225218750Y-92737500D01*
X225218750Y-92737500D02*
X225218750Y-88837500D01*
X227218750Y-92737500D02*
X227218750Y-88837500D01*
G04 #@! TO.C,D39*
X208168750Y-92737500D02*
X206168750Y-92737500D01*
X206168750Y-92737500D02*
X206168750Y-88837500D01*
X208168750Y-92737500D02*
X208168750Y-88837500D01*
G04 #@! TO.C,D38*
X189118750Y-92737500D02*
X187118750Y-92737500D01*
X187118750Y-92737500D02*
X187118750Y-88837500D01*
X189118750Y-92737500D02*
X189118750Y-88837500D01*
G04 #@! TO.C,D37*
X170068750Y-92737500D02*
X168068750Y-92737500D01*
X168068750Y-92737500D02*
X168068750Y-88837500D01*
X170068750Y-92737500D02*
X170068750Y-88837500D01*
G04 #@! TO.C,D36*
X151018750Y-92737500D02*
X149018750Y-92737500D01*
X149018750Y-92737500D02*
X149018750Y-88837500D01*
X151018750Y-92737500D02*
X151018750Y-88837500D01*
G04 #@! TO.C,D35*
X131968750Y-92737500D02*
X129968750Y-92737500D01*
X129968750Y-92737500D02*
X129968750Y-88837500D01*
X131968750Y-92737500D02*
X131968750Y-88837500D01*
G04 #@! TO.C,D34*
X108156250Y-92737500D02*
X106156250Y-92737500D01*
X106156250Y-92737500D02*
X106156250Y-88837500D01*
X108156250Y-92737500D02*
X108156250Y-88837500D01*
G04 #@! TO.C,D33*
X74818750Y-92737500D02*
X72818750Y-92737500D01*
X72818750Y-92737500D02*
X72818750Y-88837500D01*
X74818750Y-92737500D02*
X74818750Y-88837500D01*
G04 #@! TO.C,D32*
X55768750Y-92737500D02*
X53768750Y-92737500D01*
X53768750Y-92737500D02*
X53768750Y-88837500D01*
X55768750Y-92737500D02*
X55768750Y-88837500D01*
G04 #@! TO.C,D31*
X36718750Y-92737500D02*
X34718750Y-92737500D01*
X34718750Y-92737500D02*
X34718750Y-88837500D01*
X36718750Y-92737500D02*
X36718750Y-88837500D01*
G04 #@! TO.C,D30*
X320087500Y-73687500D02*
X318087500Y-73687500D01*
X318087500Y-73687500D02*
X318087500Y-69787500D01*
X320087500Y-73687500D02*
X320087500Y-69787500D01*
G04 #@! TO.C,D29*
X298656250Y-73687500D02*
X296656250Y-73687500D01*
X296656250Y-73687500D02*
X296656250Y-69787500D01*
X298656250Y-73687500D02*
X298656250Y-69787500D01*
G04 #@! TO.C,D28*
X279606250Y-73687500D02*
X277606250Y-73687500D01*
X277606250Y-73687500D02*
X277606250Y-69787500D01*
X279606250Y-73687500D02*
X279606250Y-69787500D01*
G04 #@! TO.C,D27*
X260556250Y-73687500D02*
X258556250Y-73687500D01*
X258556250Y-73687500D02*
X258556250Y-69787500D01*
X260556250Y-73687500D02*
X260556250Y-69787500D01*
G04 #@! TO.C,D26*
X241506250Y-73687500D02*
X239506250Y-73687500D01*
X239506250Y-73687500D02*
X239506250Y-69787500D01*
X241506250Y-73687500D02*
X241506250Y-69787500D01*
G04 #@! TO.C,D25*
X222456250Y-73687500D02*
X220456250Y-73687500D01*
X220456250Y-73687500D02*
X220456250Y-69787500D01*
X222456250Y-73687500D02*
X222456250Y-69787500D01*
G04 #@! TO.C,D24*
X203406250Y-73687500D02*
X201406250Y-73687500D01*
X201406250Y-73687500D02*
X201406250Y-69787500D01*
X203406250Y-73687500D02*
X203406250Y-69787500D01*
G04 #@! TO.C,D23*
X184356250Y-73687500D02*
X182356250Y-73687500D01*
X182356250Y-73687500D02*
X182356250Y-69787500D01*
X184356250Y-73687500D02*
X184356250Y-69787500D01*
G04 #@! TO.C,D22*
X165306250Y-73687500D02*
X163306250Y-73687500D01*
X163306250Y-73687500D02*
X163306250Y-69787500D01*
X165306250Y-73687500D02*
X165306250Y-69787500D01*
G04 #@! TO.C,D21*
X146256250Y-73687500D02*
X144256250Y-73687500D01*
X144256250Y-73687500D02*
X144256250Y-69787500D01*
X146256250Y-73687500D02*
X146256250Y-69787500D01*
G04 #@! TO.C,D20*
X127206250Y-73687500D02*
X125206250Y-73687500D01*
X125206250Y-73687500D02*
X125206250Y-69787500D01*
X127206250Y-73687500D02*
X127206250Y-69787500D01*
G04 #@! TO.C,D19*
X105775000Y-73687500D02*
X103775000Y-73687500D01*
X103775000Y-73687500D02*
X103775000Y-69787500D01*
X105775000Y-73687500D02*
X105775000Y-69787500D01*
G04 #@! TO.C,D18*
X74818750Y-73687500D02*
X72818750Y-73687500D01*
X72818750Y-73687500D02*
X72818750Y-69787500D01*
X74818750Y-73687500D02*
X74818750Y-69787500D01*
G04 #@! TO.C,D17*
X55768750Y-73687500D02*
X53768750Y-73687500D01*
X53768750Y-73687500D02*
X53768750Y-69787500D01*
X55768750Y-73687500D02*
X55768750Y-69787500D01*
G04 #@! TO.C,D16*
X36718750Y-73687500D02*
X34718750Y-73687500D01*
X34718750Y-73687500D02*
X34718750Y-69787500D01*
X36718750Y-73687500D02*
X36718750Y-69787500D01*
G04 #@! TO.C,D15*
X317706250Y-54637500D02*
X315706250Y-54637500D01*
X315706250Y-54637500D02*
X315706250Y-50737500D01*
X317706250Y-54637500D02*
X317706250Y-50737500D01*
G04 #@! TO.C,D14*
X293893750Y-54637500D02*
X291893750Y-54637500D01*
X291893750Y-54637500D02*
X291893750Y-50737500D01*
X293893750Y-54637500D02*
X293893750Y-50737500D01*
G04 #@! TO.C,D13*
X274843750Y-54637500D02*
X272843750Y-54637500D01*
X272843750Y-54637500D02*
X272843750Y-50737500D01*
X274843750Y-54637500D02*
X274843750Y-50737500D01*
G04 #@! TO.C,D12*
X255793750Y-54637500D02*
X253793750Y-54637500D01*
X253793750Y-54637500D02*
X253793750Y-50737500D01*
X255793750Y-54637500D02*
X255793750Y-50737500D01*
G04 #@! TO.C,D11*
X236743750Y-54637500D02*
X234743750Y-54637500D01*
X234743750Y-54637500D02*
X234743750Y-50737500D01*
X236743750Y-54637500D02*
X236743750Y-50737500D01*
G04 #@! TO.C,D10*
X217693750Y-54637500D02*
X215693750Y-54637500D01*
X215693750Y-54637500D02*
X215693750Y-50737500D01*
X217693750Y-54637500D02*
X217693750Y-50737500D01*
G04 #@! TO.C,D9*
X198643750Y-54637500D02*
X196643750Y-54637500D01*
X196643750Y-54637500D02*
X196643750Y-50737500D01*
X198643750Y-54637500D02*
X198643750Y-50737500D01*
G04 #@! TO.C,D8*
X179593750Y-54637500D02*
X177593750Y-54637500D01*
X177593750Y-54637500D02*
X177593750Y-50737500D01*
X179593750Y-54637500D02*
X179593750Y-50737500D01*
G04 #@! TO.C,D7*
X160543750Y-54637500D02*
X158543750Y-54637500D01*
X158543750Y-54637500D02*
X158543750Y-50737500D01*
X160543750Y-54637500D02*
X160543750Y-50737500D01*
G04 #@! TO.C,D6*
X141493750Y-54637500D02*
X139493750Y-54637500D01*
X139493750Y-54637500D02*
X139493750Y-50737500D01*
X141493750Y-54637500D02*
X141493750Y-50737500D01*
G04 #@! TO.C,D5*
X122443750Y-54637500D02*
X120443750Y-54637500D01*
X120443750Y-54637500D02*
X120443750Y-50737500D01*
X122443750Y-54637500D02*
X122443750Y-50737500D01*
G04 #@! TO.C,D4*
X103393750Y-54637500D02*
X101393750Y-54637500D01*
X101393750Y-54637500D02*
X101393750Y-50737500D01*
X103393750Y-54637500D02*
X103393750Y-50737500D01*
G04 #@! TO.C,D3*
X74818750Y-54637500D02*
X72818750Y-54637500D01*
X72818750Y-54637500D02*
X72818750Y-50737500D01*
X74818750Y-54637500D02*
X74818750Y-50737500D01*
G04 #@! TO.C,D2*
X55768750Y-54637500D02*
X53768750Y-54637500D01*
X53768750Y-54637500D02*
X53768750Y-50737500D01*
X55768750Y-54637500D02*
X55768750Y-50737500D01*
G04 #@! TO.C,D1*
X36718750Y-54637500D02*
X34718750Y-54637500D01*
X34718750Y-54637500D02*
X34718750Y-50737500D01*
X36718750Y-54637500D02*
X36718750Y-50737500D01*
G04 #@! TO.C,C7*
X77102612Y-89219204D02*
X77468296Y-89584888D01*
X78106704Y-88215112D02*
X78472388Y-88580796D01*
G04 #@! TO.C,C6*
X84377888Y-94422796D02*
X84012204Y-94057112D01*
X83373796Y-95426888D02*
X83008112Y-95061204D01*
G04 #@! TO.C,C5*
X95569204Y-89584888D02*
X95934888Y-89219204D01*
X94565112Y-88580796D02*
X94930796Y-88215112D01*
G04 #@! TO.C,C4*
X86837954Y-73709888D02*
X87203638Y-73344204D01*
X85833862Y-72705796D02*
X86199546Y-72340112D01*
G04 #@! TO.C,C3*
X81647388Y-77468296D02*
X81281704Y-77102612D01*
X80643296Y-78472388D02*
X80277612Y-78106704D01*
G04 #@! TO.C,C2*
X91251204Y-74598888D02*
X91616888Y-74233204D01*
X90247112Y-73594796D02*
X90612796Y-73229112D01*
G04 #@! TO.C,C1*
X96699000Y-75257922D02*
X96699000Y-75775078D01*
X98119000Y-75257922D02*
X98119000Y-75775078D01*
G04 #@! TO.C,U1*
D12*
X82176777Y-91144468D02*
X81604357Y-91716888D01*
X81503342Y-91750560D01*
X81435998Y-91750560D01*
X81334983Y-91716888D01*
X81200296Y-91582201D01*
X81166624Y-91481186D01*
X81166624Y-91413842D01*
X81200296Y-91312827D01*
X81772716Y-90740407D01*
X80358502Y-90740407D02*
X80762563Y-91144468D01*
X80560533Y-90942438D02*
X81267639Y-90235331D01*
X81233968Y-90403690D01*
X81233968Y-90538377D01*
X81267639Y-90639392D01*
G04 #@! TO.C,SW1*
X98361333Y-55577761D02*
X98218476Y-55625380D01*
X97980380Y-55625380D01*
X97885142Y-55577761D01*
X97837523Y-55530142D01*
X97789904Y-55434904D01*
X97789904Y-55339666D01*
X97837523Y-55244428D01*
X97885142Y-55196809D01*
X97980380Y-55149190D01*
X98170857Y-55101571D01*
X98266095Y-55053952D01*
X98313714Y-55006333D01*
X98361333Y-54911095D01*
X98361333Y-54815857D01*
X98313714Y-54720619D01*
X98266095Y-54673000D01*
X98170857Y-54625380D01*
X97932761Y-54625380D01*
X97789904Y-54673000D01*
X97456571Y-54625380D02*
X97218476Y-55625380D01*
X97028000Y-54911095D01*
X96837523Y-55625380D01*
X96599428Y-54625380D01*
X95694666Y-55625380D02*
X96266095Y-55625380D01*
X95980380Y-55625380D02*
X95980380Y-54625380D01*
X96075619Y-54768238D01*
X96170857Y-54863476D01*
X96266095Y-54911095D01*
G04 #@! TO.C,USB1*
X85875595Y-45214880D02*
X85875595Y-46024404D01*
X85827976Y-46119642D01*
X85780357Y-46167261D01*
X85685119Y-46214880D01*
X85494642Y-46214880D01*
X85399404Y-46167261D01*
X85351785Y-46119642D01*
X85304166Y-46024404D01*
X85304166Y-45214880D01*
X84875595Y-46167261D02*
X84732738Y-46214880D01*
X84494642Y-46214880D01*
X84399404Y-46167261D01*
X84351785Y-46119642D01*
X84304166Y-46024404D01*
X84304166Y-45929166D01*
X84351785Y-45833928D01*
X84399404Y-45786309D01*
X84494642Y-45738690D01*
X84685119Y-45691071D01*
X84780357Y-45643452D01*
X84827976Y-45595833D01*
X84875595Y-45500595D01*
X84875595Y-45405357D01*
X84827976Y-45310119D01*
X84780357Y-45262500D01*
X84685119Y-45214880D01*
X84447023Y-45214880D01*
X84304166Y-45262500D01*
X83542261Y-45691071D02*
X83399404Y-45738690D01*
X83351785Y-45786309D01*
X83304166Y-45881547D01*
X83304166Y-46024404D01*
X83351785Y-46119642D01*
X83399404Y-46167261D01*
X83494642Y-46214880D01*
X83875595Y-46214880D01*
X83875595Y-45214880D01*
X83542261Y-45214880D01*
X83447023Y-45262500D01*
X83399404Y-45310119D01*
X83351785Y-45405357D01*
X83351785Y-45500595D01*
X83399404Y-45595833D01*
X83447023Y-45643452D01*
X83542261Y-45691071D01*
X83875595Y-45691071D01*
X82351785Y-46214880D02*
X82923214Y-46214880D01*
X82637500Y-46214880D02*
X82637500Y-45214880D01*
X82732738Y-45357738D01*
X82827976Y-45452976D01*
X82923214Y-45500595D01*
G04 #@! TO.C,Y1*
X94329190Y-73980190D02*
X94329190Y-74456380D01*
X94662523Y-73456380D02*
X94329190Y-73980190D01*
X93995857Y-73456380D01*
X93138714Y-74456380D02*
X93710142Y-74456380D01*
X93424428Y-74456380D02*
X93424428Y-73456380D01*
X93519666Y-73599238D01*
X93614904Y-73694476D01*
X93710142Y-73742095D01*
G04 #@! TO.C,U2*
X84835904Y-48347380D02*
X84835904Y-49156904D01*
X84788285Y-49252142D01*
X84740666Y-49299761D01*
X84645428Y-49347380D01*
X84454952Y-49347380D01*
X84359714Y-49299761D01*
X84312095Y-49252142D01*
X84264476Y-49156904D01*
X84264476Y-48347380D01*
X83835904Y-48442619D02*
X83788285Y-48395000D01*
X83693047Y-48347380D01*
X83454952Y-48347380D01*
X83359714Y-48395000D01*
X83312095Y-48442619D01*
X83264476Y-48537857D01*
X83264476Y-48633095D01*
X83312095Y-48775952D01*
X83883523Y-49347380D01*
X83264476Y-49347380D01*
G04 #@! TO.C,R6*
X91796130Y-53808333D02*
X91319940Y-53475000D01*
X91796130Y-53236904D02*
X90796130Y-53236904D01*
X90796130Y-53617857D01*
X90843750Y-53713095D01*
X90891369Y-53760714D01*
X90986607Y-53808333D01*
X91129464Y-53808333D01*
X91224702Y-53760714D01*
X91272321Y-53713095D01*
X91319940Y-53617857D01*
X91319940Y-53236904D01*
X90796130Y-54665476D02*
X90796130Y-54475000D01*
X90843750Y-54379761D01*
X90891369Y-54332142D01*
X91034226Y-54236904D01*
X91224702Y-54189285D01*
X91605654Y-54189285D01*
X91700892Y-54236904D01*
X91748511Y-54284523D01*
X91796130Y-54379761D01*
X91796130Y-54570238D01*
X91748511Y-54665476D01*
X91700892Y-54713095D01*
X91605654Y-54760714D01*
X91367559Y-54760714D01*
X91272321Y-54713095D01*
X91224702Y-54665476D01*
X91177083Y-54570238D01*
X91177083Y-54379761D01*
X91224702Y-54284523D01*
X91272321Y-54236904D01*
X91367559Y-54189285D01*
G04 #@! TO.C,R5*
X77414380Y-53808333D02*
X76938190Y-53475000D01*
X77414380Y-53236904D02*
X76414380Y-53236904D01*
X76414380Y-53617857D01*
X76462000Y-53713095D01*
X76509619Y-53760714D01*
X76604857Y-53808333D01*
X76747714Y-53808333D01*
X76842952Y-53760714D01*
X76890571Y-53713095D01*
X76938190Y-53617857D01*
X76938190Y-53236904D01*
X76414380Y-54713095D02*
X76414380Y-54236904D01*
X76890571Y-54189285D01*
X76842952Y-54236904D01*
X76795333Y-54332142D01*
X76795333Y-54570238D01*
X76842952Y-54665476D01*
X76890571Y-54713095D01*
X76985809Y-54760714D01*
X77223904Y-54760714D01*
X77319142Y-54713095D01*
X77366761Y-54665476D01*
X77414380Y-54570238D01*
X77414380Y-54332142D01*
X77366761Y-54236904D01*
X77319142Y-54189285D01*
G04 #@! TO.C,R4*
X90504458Y-96618756D02*
X90403443Y-96046336D01*
X90908519Y-96214695D02*
X90201413Y-95507588D01*
X89932038Y-95776962D01*
X89898367Y-95877977D01*
X89898367Y-95945321D01*
X89932038Y-96046336D01*
X90033054Y-96147351D01*
X90134069Y-96181023D01*
X90201413Y-96181023D01*
X90302428Y-96147351D01*
X90571802Y-95877977D01*
X89426962Y-96753443D02*
X89898367Y-97224848D01*
X89325947Y-96315710D02*
X89999382Y-96652428D01*
X89561649Y-97090161D01*
G04 #@! TO.C,R3*
X83256380Y-54570333D02*
X82780190Y-54237000D01*
X83256380Y-53998904D02*
X82256380Y-53998904D01*
X82256380Y-54379857D01*
X82304000Y-54475095D01*
X82351619Y-54522714D01*
X82446857Y-54570333D01*
X82589714Y-54570333D01*
X82684952Y-54522714D01*
X82732571Y-54475095D01*
X82780190Y-54379857D01*
X82780190Y-53998904D01*
X82256380Y-54903666D02*
X82256380Y-55522714D01*
X82637333Y-55189380D01*
X82637333Y-55332238D01*
X82684952Y-55427476D01*
X82732571Y-55475095D01*
X82827809Y-55522714D01*
X83065904Y-55522714D01*
X83161142Y-55475095D01*
X83208761Y-55427476D01*
X83256380Y-55332238D01*
X83256380Y-55046523D01*
X83208761Y-54951285D01*
X83161142Y-54903666D01*
G04 #@! TO.C,R2*
X86050380Y-54570333D02*
X85574190Y-54237000D01*
X86050380Y-53998904D02*
X85050380Y-53998904D01*
X85050380Y-54379857D01*
X85098000Y-54475095D01*
X85145619Y-54522714D01*
X85240857Y-54570333D01*
X85383714Y-54570333D01*
X85478952Y-54522714D01*
X85526571Y-54475095D01*
X85574190Y-54379857D01*
X85574190Y-53998904D01*
X85145619Y-54951285D02*
X85098000Y-54998904D01*
X85050380Y-55094142D01*
X85050380Y-55332238D01*
X85098000Y-55427476D01*
X85145619Y-55475095D01*
X85240857Y-55522714D01*
X85336095Y-55522714D01*
X85478952Y-55475095D01*
X86050380Y-54903666D01*
X86050380Y-55522714D01*
G04 #@! TO.C,R1*
X82737919Y-75104467D02*
X82636904Y-74532047D01*
X83141980Y-74700406D02*
X82434874Y-73993299D01*
X82165499Y-74262673D01*
X82131828Y-74363688D01*
X82131828Y-74431032D01*
X82165499Y-74532047D01*
X82266515Y-74633062D01*
X82367530Y-74666734D01*
X82434874Y-74666734D01*
X82535889Y-74633062D01*
X82805263Y-74363688D01*
X82064484Y-75777902D02*
X82468545Y-75373841D01*
X82266515Y-75575872D02*
X81559408Y-74868765D01*
X81727767Y-74902437D01*
X81862454Y-74902437D01*
X81963469Y-74868765D01*
G04 #@! TO.C,F1*
X80089333Y-60041571D02*
X80422666Y-60041571D01*
X80422666Y-60565380D02*
X80422666Y-59565380D01*
X79946476Y-59565380D01*
X79041714Y-60565380D02*
X79613142Y-60565380D01*
X79327428Y-60565380D02*
X79327428Y-59565380D01*
X79422666Y-59708238D01*
X79517904Y-59803476D01*
X79613142Y-59851095D01*
G04 #@! TO.C,D59*
X323921130Y-108323214D02*
X322921130Y-108323214D01*
X322921130Y-108561309D01*
X322968750Y-108704166D01*
X323063988Y-108799404D01*
X323159226Y-108847023D01*
X323349702Y-108894642D01*
X323492559Y-108894642D01*
X323683035Y-108847023D01*
X323778273Y-108799404D01*
X323873511Y-108704166D01*
X323921130Y-108561309D01*
X323921130Y-108323214D01*
X322921130Y-109799404D02*
X322921130Y-109323214D01*
X323397321Y-109275595D01*
X323349702Y-109323214D01*
X323302083Y-109418452D01*
X323302083Y-109656547D01*
X323349702Y-109751785D01*
X323397321Y-109799404D01*
X323492559Y-109847023D01*
X323730654Y-109847023D01*
X323825892Y-109799404D01*
X323873511Y-109751785D01*
X323921130Y-109656547D01*
X323921130Y-109418452D01*
X323873511Y-109323214D01*
X323825892Y-109275595D01*
X323921130Y-110323214D02*
X323921130Y-110513690D01*
X323873511Y-110608928D01*
X323825892Y-110656547D01*
X323683035Y-110751785D01*
X323492559Y-110799404D01*
X323111607Y-110799404D01*
X323016369Y-110751785D01*
X322968750Y-110704166D01*
X322921130Y-110608928D01*
X322921130Y-110418452D01*
X322968750Y-110323214D01*
X323016369Y-110275595D01*
X323111607Y-110227976D01*
X323349702Y-110227976D01*
X323444940Y-110275595D01*
X323492559Y-110323214D01*
X323540178Y-110418452D01*
X323540178Y-110608928D01*
X323492559Y-110704166D01*
X323444940Y-110751785D01*
X323349702Y-110799404D01*
G04 #@! TO.C,D58*
X304871130Y-108323214D02*
X303871130Y-108323214D01*
X303871130Y-108561309D01*
X303918750Y-108704166D01*
X304013988Y-108799404D01*
X304109226Y-108847023D01*
X304299702Y-108894642D01*
X304442559Y-108894642D01*
X304633035Y-108847023D01*
X304728273Y-108799404D01*
X304823511Y-108704166D01*
X304871130Y-108561309D01*
X304871130Y-108323214D01*
X303871130Y-109799404D02*
X303871130Y-109323214D01*
X304347321Y-109275595D01*
X304299702Y-109323214D01*
X304252083Y-109418452D01*
X304252083Y-109656547D01*
X304299702Y-109751785D01*
X304347321Y-109799404D01*
X304442559Y-109847023D01*
X304680654Y-109847023D01*
X304775892Y-109799404D01*
X304823511Y-109751785D01*
X304871130Y-109656547D01*
X304871130Y-109418452D01*
X304823511Y-109323214D01*
X304775892Y-109275595D01*
X304299702Y-110418452D02*
X304252083Y-110323214D01*
X304204464Y-110275595D01*
X304109226Y-110227976D01*
X304061607Y-110227976D01*
X303966369Y-110275595D01*
X303918750Y-110323214D01*
X303871130Y-110418452D01*
X303871130Y-110608928D01*
X303918750Y-110704166D01*
X303966369Y-110751785D01*
X304061607Y-110799404D01*
X304109226Y-110799404D01*
X304204464Y-110751785D01*
X304252083Y-110704166D01*
X304299702Y-110608928D01*
X304299702Y-110418452D01*
X304347321Y-110323214D01*
X304394940Y-110275595D01*
X304490178Y-110227976D01*
X304680654Y-110227976D01*
X304775892Y-110275595D01*
X304823511Y-110323214D01*
X304871130Y-110418452D01*
X304871130Y-110608928D01*
X304823511Y-110704166D01*
X304775892Y-110751785D01*
X304680654Y-110799404D01*
X304490178Y-110799404D01*
X304394940Y-110751785D01*
X304347321Y-110704166D01*
X304299702Y-110608928D01*
G04 #@! TO.C,D57*
X285821130Y-108323214D02*
X284821130Y-108323214D01*
X284821130Y-108561309D01*
X284868750Y-108704166D01*
X284963988Y-108799404D01*
X285059226Y-108847023D01*
X285249702Y-108894642D01*
X285392559Y-108894642D01*
X285583035Y-108847023D01*
X285678273Y-108799404D01*
X285773511Y-108704166D01*
X285821130Y-108561309D01*
X285821130Y-108323214D01*
X284821130Y-109799404D02*
X284821130Y-109323214D01*
X285297321Y-109275595D01*
X285249702Y-109323214D01*
X285202083Y-109418452D01*
X285202083Y-109656547D01*
X285249702Y-109751785D01*
X285297321Y-109799404D01*
X285392559Y-109847023D01*
X285630654Y-109847023D01*
X285725892Y-109799404D01*
X285773511Y-109751785D01*
X285821130Y-109656547D01*
X285821130Y-109418452D01*
X285773511Y-109323214D01*
X285725892Y-109275595D01*
X284821130Y-110180357D02*
X284821130Y-110847023D01*
X285821130Y-110418452D01*
G04 #@! TO.C,D56*
X266771130Y-108323214D02*
X265771130Y-108323214D01*
X265771130Y-108561309D01*
X265818750Y-108704166D01*
X265913988Y-108799404D01*
X266009226Y-108847023D01*
X266199702Y-108894642D01*
X266342559Y-108894642D01*
X266533035Y-108847023D01*
X266628273Y-108799404D01*
X266723511Y-108704166D01*
X266771130Y-108561309D01*
X266771130Y-108323214D01*
X265771130Y-109799404D02*
X265771130Y-109323214D01*
X266247321Y-109275595D01*
X266199702Y-109323214D01*
X266152083Y-109418452D01*
X266152083Y-109656547D01*
X266199702Y-109751785D01*
X266247321Y-109799404D01*
X266342559Y-109847023D01*
X266580654Y-109847023D01*
X266675892Y-109799404D01*
X266723511Y-109751785D01*
X266771130Y-109656547D01*
X266771130Y-109418452D01*
X266723511Y-109323214D01*
X266675892Y-109275595D01*
X265771130Y-110704166D02*
X265771130Y-110513690D01*
X265818750Y-110418452D01*
X265866369Y-110370833D01*
X266009226Y-110275595D01*
X266199702Y-110227976D01*
X266580654Y-110227976D01*
X266675892Y-110275595D01*
X266723511Y-110323214D01*
X266771130Y-110418452D01*
X266771130Y-110608928D01*
X266723511Y-110704166D01*
X266675892Y-110751785D01*
X266580654Y-110799404D01*
X266342559Y-110799404D01*
X266247321Y-110751785D01*
X266199702Y-110704166D01*
X266152083Y-110608928D01*
X266152083Y-110418452D01*
X266199702Y-110323214D01*
X266247321Y-110275595D01*
X266342559Y-110227976D01*
G04 #@! TO.C,D55*
X245339880Y-108323214D02*
X244339880Y-108323214D01*
X244339880Y-108561309D01*
X244387500Y-108704166D01*
X244482738Y-108799404D01*
X244577976Y-108847023D01*
X244768452Y-108894642D01*
X244911309Y-108894642D01*
X245101785Y-108847023D01*
X245197023Y-108799404D01*
X245292261Y-108704166D01*
X245339880Y-108561309D01*
X245339880Y-108323214D01*
X244339880Y-109799404D02*
X244339880Y-109323214D01*
X244816071Y-109275595D01*
X244768452Y-109323214D01*
X244720833Y-109418452D01*
X244720833Y-109656547D01*
X244768452Y-109751785D01*
X244816071Y-109799404D01*
X244911309Y-109847023D01*
X245149404Y-109847023D01*
X245244642Y-109799404D01*
X245292261Y-109751785D01*
X245339880Y-109656547D01*
X245339880Y-109418452D01*
X245292261Y-109323214D01*
X245244642Y-109275595D01*
X244339880Y-110751785D02*
X244339880Y-110275595D01*
X244816071Y-110227976D01*
X244768452Y-110275595D01*
X244720833Y-110370833D01*
X244720833Y-110608928D01*
X244768452Y-110704166D01*
X244816071Y-110751785D01*
X244911309Y-110799404D01*
X245149404Y-110799404D01*
X245244642Y-110751785D01*
X245292261Y-110704166D01*
X245339880Y-110608928D01*
X245339880Y-110370833D01*
X245292261Y-110275595D01*
X245244642Y-110227976D01*
G04 #@! TO.C,D54*
X214383630Y-108323214D02*
X213383630Y-108323214D01*
X213383630Y-108561309D01*
X213431250Y-108704166D01*
X213526488Y-108799404D01*
X213621726Y-108847023D01*
X213812202Y-108894642D01*
X213955059Y-108894642D01*
X214145535Y-108847023D01*
X214240773Y-108799404D01*
X214336011Y-108704166D01*
X214383630Y-108561309D01*
X214383630Y-108323214D01*
X213383630Y-109799404D02*
X213383630Y-109323214D01*
X213859821Y-109275595D01*
X213812202Y-109323214D01*
X213764583Y-109418452D01*
X213764583Y-109656547D01*
X213812202Y-109751785D01*
X213859821Y-109799404D01*
X213955059Y-109847023D01*
X214193154Y-109847023D01*
X214288392Y-109799404D01*
X214336011Y-109751785D01*
X214383630Y-109656547D01*
X214383630Y-109418452D01*
X214336011Y-109323214D01*
X214288392Y-109275595D01*
X213716964Y-110704166D02*
X214383630Y-110704166D01*
X213336011Y-110466071D02*
X214050297Y-110227976D01*
X214050297Y-110847023D01*
G04 #@! TO.C,D53*
X183427380Y-108323214D02*
X182427380Y-108323214D01*
X182427380Y-108561309D01*
X182475000Y-108704166D01*
X182570238Y-108799404D01*
X182665476Y-108847023D01*
X182855952Y-108894642D01*
X182998809Y-108894642D01*
X183189285Y-108847023D01*
X183284523Y-108799404D01*
X183379761Y-108704166D01*
X183427380Y-108561309D01*
X183427380Y-108323214D01*
X182427380Y-109799404D02*
X182427380Y-109323214D01*
X182903571Y-109275595D01*
X182855952Y-109323214D01*
X182808333Y-109418452D01*
X182808333Y-109656547D01*
X182855952Y-109751785D01*
X182903571Y-109799404D01*
X182998809Y-109847023D01*
X183236904Y-109847023D01*
X183332142Y-109799404D01*
X183379761Y-109751785D01*
X183427380Y-109656547D01*
X183427380Y-109418452D01*
X183379761Y-109323214D01*
X183332142Y-109275595D01*
X182427380Y-110180357D02*
X182427380Y-110799404D01*
X182808333Y-110466071D01*
X182808333Y-110608928D01*
X182855952Y-110704166D01*
X182903571Y-110751785D01*
X182998809Y-110799404D01*
X183236904Y-110799404D01*
X183332142Y-110751785D01*
X183379761Y-110704166D01*
X183427380Y-110608928D01*
X183427380Y-110323214D01*
X183379761Y-110227976D01*
X183332142Y-110180357D01*
G04 #@! TO.C,D52*
X161996130Y-108323214D02*
X160996130Y-108323214D01*
X160996130Y-108561309D01*
X161043750Y-108704166D01*
X161138988Y-108799404D01*
X161234226Y-108847023D01*
X161424702Y-108894642D01*
X161567559Y-108894642D01*
X161758035Y-108847023D01*
X161853273Y-108799404D01*
X161948511Y-108704166D01*
X161996130Y-108561309D01*
X161996130Y-108323214D01*
X160996130Y-109799404D02*
X160996130Y-109323214D01*
X161472321Y-109275595D01*
X161424702Y-109323214D01*
X161377083Y-109418452D01*
X161377083Y-109656547D01*
X161424702Y-109751785D01*
X161472321Y-109799404D01*
X161567559Y-109847023D01*
X161805654Y-109847023D01*
X161900892Y-109799404D01*
X161948511Y-109751785D01*
X161996130Y-109656547D01*
X161996130Y-109418452D01*
X161948511Y-109323214D01*
X161900892Y-109275595D01*
X161091369Y-110227976D02*
X161043750Y-110275595D01*
X160996130Y-110370833D01*
X160996130Y-110608928D01*
X161043750Y-110704166D01*
X161091369Y-110751785D01*
X161186607Y-110799404D01*
X161281845Y-110799404D01*
X161424702Y-110751785D01*
X161996130Y-110180357D01*
X161996130Y-110799404D01*
G04 #@! TO.C,D51*
X142946130Y-108323214D02*
X141946130Y-108323214D01*
X141946130Y-108561309D01*
X141993750Y-108704166D01*
X142088988Y-108799404D01*
X142184226Y-108847023D01*
X142374702Y-108894642D01*
X142517559Y-108894642D01*
X142708035Y-108847023D01*
X142803273Y-108799404D01*
X142898511Y-108704166D01*
X142946130Y-108561309D01*
X142946130Y-108323214D01*
X141946130Y-109799404D02*
X141946130Y-109323214D01*
X142422321Y-109275595D01*
X142374702Y-109323214D01*
X142327083Y-109418452D01*
X142327083Y-109656547D01*
X142374702Y-109751785D01*
X142422321Y-109799404D01*
X142517559Y-109847023D01*
X142755654Y-109847023D01*
X142850892Y-109799404D01*
X142898511Y-109751785D01*
X142946130Y-109656547D01*
X142946130Y-109418452D01*
X142898511Y-109323214D01*
X142850892Y-109275595D01*
X142946130Y-110799404D02*
X142946130Y-110227976D01*
X142946130Y-110513690D02*
X141946130Y-110513690D01*
X142088988Y-110418452D01*
X142184226Y-110323214D01*
X142231845Y-110227976D01*
G04 #@! TO.C,D50*
X123896130Y-108323214D02*
X122896130Y-108323214D01*
X122896130Y-108561309D01*
X122943750Y-108704166D01*
X123038988Y-108799404D01*
X123134226Y-108847023D01*
X123324702Y-108894642D01*
X123467559Y-108894642D01*
X123658035Y-108847023D01*
X123753273Y-108799404D01*
X123848511Y-108704166D01*
X123896130Y-108561309D01*
X123896130Y-108323214D01*
X122896130Y-109799404D02*
X122896130Y-109323214D01*
X123372321Y-109275595D01*
X123324702Y-109323214D01*
X123277083Y-109418452D01*
X123277083Y-109656547D01*
X123324702Y-109751785D01*
X123372321Y-109799404D01*
X123467559Y-109847023D01*
X123705654Y-109847023D01*
X123800892Y-109799404D01*
X123848511Y-109751785D01*
X123896130Y-109656547D01*
X123896130Y-109418452D01*
X123848511Y-109323214D01*
X123800892Y-109275595D01*
X122896130Y-110466071D02*
X122896130Y-110561309D01*
X122943750Y-110656547D01*
X122991369Y-110704166D01*
X123086607Y-110751785D01*
X123277083Y-110799404D01*
X123515178Y-110799404D01*
X123705654Y-110751785D01*
X123800892Y-110704166D01*
X123848511Y-110656547D01*
X123896130Y-110561309D01*
X123896130Y-110466071D01*
X123848511Y-110370833D01*
X123800892Y-110323214D01*
X123705654Y-110275595D01*
X123515178Y-110227976D01*
X123277083Y-110227976D01*
X123086607Y-110275595D01*
X122991369Y-110323214D01*
X122943750Y-110370833D01*
X122896130Y-110466071D01*
G04 #@! TO.C,D49*
X104846130Y-108323214D02*
X103846130Y-108323214D01*
X103846130Y-108561309D01*
X103893750Y-108704166D01*
X103988988Y-108799404D01*
X104084226Y-108847023D01*
X104274702Y-108894642D01*
X104417559Y-108894642D01*
X104608035Y-108847023D01*
X104703273Y-108799404D01*
X104798511Y-108704166D01*
X104846130Y-108561309D01*
X104846130Y-108323214D01*
X104179464Y-109751785D02*
X104846130Y-109751785D01*
X103798511Y-109513690D02*
X104512797Y-109275595D01*
X104512797Y-109894642D01*
X104846130Y-110323214D02*
X104846130Y-110513690D01*
X104798511Y-110608928D01*
X104750892Y-110656547D01*
X104608035Y-110751785D01*
X104417559Y-110799404D01*
X104036607Y-110799404D01*
X103941369Y-110751785D01*
X103893750Y-110704166D01*
X103846130Y-110608928D01*
X103846130Y-110418452D01*
X103893750Y-110323214D01*
X103941369Y-110275595D01*
X104036607Y-110227976D01*
X104274702Y-110227976D01*
X104369940Y-110275595D01*
X104417559Y-110323214D01*
X104465178Y-110418452D01*
X104465178Y-110608928D01*
X104417559Y-110704166D01*
X104369940Y-110751785D01*
X104274702Y-110799404D01*
G04 #@! TO.C,D48*
X76271130Y-108323214D02*
X75271130Y-108323214D01*
X75271130Y-108561309D01*
X75318750Y-108704166D01*
X75413988Y-108799404D01*
X75509226Y-108847023D01*
X75699702Y-108894642D01*
X75842559Y-108894642D01*
X76033035Y-108847023D01*
X76128273Y-108799404D01*
X76223511Y-108704166D01*
X76271130Y-108561309D01*
X76271130Y-108323214D01*
X75604464Y-109751785D02*
X76271130Y-109751785D01*
X75223511Y-109513690D02*
X75937797Y-109275595D01*
X75937797Y-109894642D01*
X75699702Y-110418452D02*
X75652083Y-110323214D01*
X75604464Y-110275595D01*
X75509226Y-110227976D01*
X75461607Y-110227976D01*
X75366369Y-110275595D01*
X75318750Y-110323214D01*
X75271130Y-110418452D01*
X75271130Y-110608928D01*
X75318750Y-110704166D01*
X75366369Y-110751785D01*
X75461607Y-110799404D01*
X75509226Y-110799404D01*
X75604464Y-110751785D01*
X75652083Y-110704166D01*
X75699702Y-110608928D01*
X75699702Y-110418452D01*
X75747321Y-110323214D01*
X75794940Y-110275595D01*
X75890178Y-110227976D01*
X76080654Y-110227976D01*
X76175892Y-110275595D01*
X76223511Y-110323214D01*
X76271130Y-110418452D01*
X76271130Y-110608928D01*
X76223511Y-110704166D01*
X76175892Y-110751785D01*
X76080654Y-110799404D01*
X75890178Y-110799404D01*
X75794940Y-110751785D01*
X75747321Y-110704166D01*
X75699702Y-110608928D01*
G04 #@! TO.C,D47*
X57221130Y-108323214D02*
X56221130Y-108323214D01*
X56221130Y-108561309D01*
X56268750Y-108704166D01*
X56363988Y-108799404D01*
X56459226Y-108847023D01*
X56649702Y-108894642D01*
X56792559Y-108894642D01*
X56983035Y-108847023D01*
X57078273Y-108799404D01*
X57173511Y-108704166D01*
X57221130Y-108561309D01*
X57221130Y-108323214D01*
X56554464Y-109751785D02*
X57221130Y-109751785D01*
X56173511Y-109513690D02*
X56887797Y-109275595D01*
X56887797Y-109894642D01*
X56221130Y-110180357D02*
X56221130Y-110847023D01*
X57221130Y-110418452D01*
G04 #@! TO.C,D46*
X38171130Y-108323214D02*
X37171130Y-108323214D01*
X37171130Y-108561309D01*
X37218750Y-108704166D01*
X37313988Y-108799404D01*
X37409226Y-108847023D01*
X37599702Y-108894642D01*
X37742559Y-108894642D01*
X37933035Y-108847023D01*
X38028273Y-108799404D01*
X38123511Y-108704166D01*
X38171130Y-108561309D01*
X38171130Y-108323214D01*
X37504464Y-109751785D02*
X38171130Y-109751785D01*
X37123511Y-109513690D02*
X37837797Y-109275595D01*
X37837797Y-109894642D01*
X37171130Y-110704166D02*
X37171130Y-110513690D01*
X37218750Y-110418452D01*
X37266369Y-110370833D01*
X37409226Y-110275595D01*
X37599702Y-110227976D01*
X37980654Y-110227976D01*
X38075892Y-110275595D01*
X38123511Y-110323214D01*
X38171130Y-110418452D01*
X38171130Y-110608928D01*
X38123511Y-110704166D01*
X38075892Y-110751785D01*
X37980654Y-110799404D01*
X37742559Y-110799404D01*
X37647321Y-110751785D01*
X37599702Y-110704166D01*
X37552083Y-110608928D01*
X37552083Y-110418452D01*
X37599702Y-110323214D01*
X37647321Y-110275595D01*
X37742559Y-110227976D01*
G04 #@! TO.C,D45*
X323921130Y-89273214D02*
X322921130Y-89273214D01*
X322921130Y-89511309D01*
X322968750Y-89654166D01*
X323063988Y-89749404D01*
X323159226Y-89797023D01*
X323349702Y-89844642D01*
X323492559Y-89844642D01*
X323683035Y-89797023D01*
X323778273Y-89749404D01*
X323873511Y-89654166D01*
X323921130Y-89511309D01*
X323921130Y-89273214D01*
X323254464Y-90701785D02*
X323921130Y-90701785D01*
X322873511Y-90463690D02*
X323587797Y-90225595D01*
X323587797Y-90844642D01*
X322921130Y-91701785D02*
X322921130Y-91225595D01*
X323397321Y-91177976D01*
X323349702Y-91225595D01*
X323302083Y-91320833D01*
X323302083Y-91558928D01*
X323349702Y-91654166D01*
X323397321Y-91701785D01*
X323492559Y-91749404D01*
X323730654Y-91749404D01*
X323825892Y-91701785D01*
X323873511Y-91654166D01*
X323921130Y-91558928D01*
X323921130Y-91320833D01*
X323873511Y-91225595D01*
X323825892Y-91177976D01*
G04 #@! TO.C,D44*
X304871130Y-89273214D02*
X303871130Y-89273214D01*
X303871130Y-89511309D01*
X303918750Y-89654166D01*
X304013988Y-89749404D01*
X304109226Y-89797023D01*
X304299702Y-89844642D01*
X304442559Y-89844642D01*
X304633035Y-89797023D01*
X304728273Y-89749404D01*
X304823511Y-89654166D01*
X304871130Y-89511309D01*
X304871130Y-89273214D01*
X304204464Y-90701785D02*
X304871130Y-90701785D01*
X303823511Y-90463690D02*
X304537797Y-90225595D01*
X304537797Y-90844642D01*
X304204464Y-91654166D02*
X304871130Y-91654166D01*
X303823511Y-91416071D02*
X304537797Y-91177976D01*
X304537797Y-91797023D01*
G04 #@! TO.C,D43*
X285821130Y-89273214D02*
X284821130Y-89273214D01*
X284821130Y-89511309D01*
X284868750Y-89654166D01*
X284963988Y-89749404D01*
X285059226Y-89797023D01*
X285249702Y-89844642D01*
X285392559Y-89844642D01*
X285583035Y-89797023D01*
X285678273Y-89749404D01*
X285773511Y-89654166D01*
X285821130Y-89511309D01*
X285821130Y-89273214D01*
X285154464Y-90701785D02*
X285821130Y-90701785D01*
X284773511Y-90463690D02*
X285487797Y-90225595D01*
X285487797Y-90844642D01*
X284821130Y-91130357D02*
X284821130Y-91749404D01*
X285202083Y-91416071D01*
X285202083Y-91558928D01*
X285249702Y-91654166D01*
X285297321Y-91701785D01*
X285392559Y-91749404D01*
X285630654Y-91749404D01*
X285725892Y-91701785D01*
X285773511Y-91654166D01*
X285821130Y-91558928D01*
X285821130Y-91273214D01*
X285773511Y-91177976D01*
X285725892Y-91130357D01*
G04 #@! TO.C,D42*
X266771130Y-89273214D02*
X265771130Y-89273214D01*
X265771130Y-89511309D01*
X265818750Y-89654166D01*
X265913988Y-89749404D01*
X266009226Y-89797023D01*
X266199702Y-89844642D01*
X266342559Y-89844642D01*
X266533035Y-89797023D01*
X266628273Y-89749404D01*
X266723511Y-89654166D01*
X266771130Y-89511309D01*
X266771130Y-89273214D01*
X266104464Y-90701785D02*
X266771130Y-90701785D01*
X265723511Y-90463690D02*
X266437797Y-90225595D01*
X266437797Y-90844642D01*
X265866369Y-91177976D02*
X265818750Y-91225595D01*
X265771130Y-91320833D01*
X265771130Y-91558928D01*
X265818750Y-91654166D01*
X265866369Y-91701785D01*
X265961607Y-91749404D01*
X266056845Y-91749404D01*
X266199702Y-91701785D01*
X266771130Y-91130357D01*
X266771130Y-91749404D01*
G04 #@! TO.C,D41*
X247721130Y-89273214D02*
X246721130Y-89273214D01*
X246721130Y-89511309D01*
X246768750Y-89654166D01*
X246863988Y-89749404D01*
X246959226Y-89797023D01*
X247149702Y-89844642D01*
X247292559Y-89844642D01*
X247483035Y-89797023D01*
X247578273Y-89749404D01*
X247673511Y-89654166D01*
X247721130Y-89511309D01*
X247721130Y-89273214D01*
X247054464Y-90701785D02*
X247721130Y-90701785D01*
X246673511Y-90463690D02*
X247387797Y-90225595D01*
X247387797Y-90844642D01*
X247721130Y-91749404D02*
X247721130Y-91177976D01*
X247721130Y-91463690D02*
X246721130Y-91463690D01*
X246863988Y-91368452D01*
X246959226Y-91273214D01*
X247006845Y-91177976D01*
G04 #@! TO.C,D40*
X228671130Y-89273214D02*
X227671130Y-89273214D01*
X227671130Y-89511309D01*
X227718750Y-89654166D01*
X227813988Y-89749404D01*
X227909226Y-89797023D01*
X228099702Y-89844642D01*
X228242559Y-89844642D01*
X228433035Y-89797023D01*
X228528273Y-89749404D01*
X228623511Y-89654166D01*
X228671130Y-89511309D01*
X228671130Y-89273214D01*
X228004464Y-90701785D02*
X228671130Y-90701785D01*
X227623511Y-90463690D02*
X228337797Y-90225595D01*
X228337797Y-90844642D01*
X227671130Y-91416071D02*
X227671130Y-91511309D01*
X227718750Y-91606547D01*
X227766369Y-91654166D01*
X227861607Y-91701785D01*
X228052083Y-91749404D01*
X228290178Y-91749404D01*
X228480654Y-91701785D01*
X228575892Y-91654166D01*
X228623511Y-91606547D01*
X228671130Y-91511309D01*
X228671130Y-91416071D01*
X228623511Y-91320833D01*
X228575892Y-91273214D01*
X228480654Y-91225595D01*
X228290178Y-91177976D01*
X228052083Y-91177976D01*
X227861607Y-91225595D01*
X227766369Y-91273214D01*
X227718750Y-91320833D01*
X227671130Y-91416071D01*
G04 #@! TO.C,D39*
X209621130Y-89273214D02*
X208621130Y-89273214D01*
X208621130Y-89511309D01*
X208668750Y-89654166D01*
X208763988Y-89749404D01*
X208859226Y-89797023D01*
X209049702Y-89844642D01*
X209192559Y-89844642D01*
X209383035Y-89797023D01*
X209478273Y-89749404D01*
X209573511Y-89654166D01*
X209621130Y-89511309D01*
X209621130Y-89273214D01*
X208621130Y-90177976D02*
X208621130Y-90797023D01*
X209002083Y-90463690D01*
X209002083Y-90606547D01*
X209049702Y-90701785D01*
X209097321Y-90749404D01*
X209192559Y-90797023D01*
X209430654Y-90797023D01*
X209525892Y-90749404D01*
X209573511Y-90701785D01*
X209621130Y-90606547D01*
X209621130Y-90320833D01*
X209573511Y-90225595D01*
X209525892Y-90177976D01*
X209621130Y-91273214D02*
X209621130Y-91463690D01*
X209573511Y-91558928D01*
X209525892Y-91606547D01*
X209383035Y-91701785D01*
X209192559Y-91749404D01*
X208811607Y-91749404D01*
X208716369Y-91701785D01*
X208668750Y-91654166D01*
X208621130Y-91558928D01*
X208621130Y-91368452D01*
X208668750Y-91273214D01*
X208716369Y-91225595D01*
X208811607Y-91177976D01*
X209049702Y-91177976D01*
X209144940Y-91225595D01*
X209192559Y-91273214D01*
X209240178Y-91368452D01*
X209240178Y-91558928D01*
X209192559Y-91654166D01*
X209144940Y-91701785D01*
X209049702Y-91749404D01*
G04 #@! TO.C,D38*
X190571130Y-89273214D02*
X189571130Y-89273214D01*
X189571130Y-89511309D01*
X189618750Y-89654166D01*
X189713988Y-89749404D01*
X189809226Y-89797023D01*
X189999702Y-89844642D01*
X190142559Y-89844642D01*
X190333035Y-89797023D01*
X190428273Y-89749404D01*
X190523511Y-89654166D01*
X190571130Y-89511309D01*
X190571130Y-89273214D01*
X189571130Y-90177976D02*
X189571130Y-90797023D01*
X189952083Y-90463690D01*
X189952083Y-90606547D01*
X189999702Y-90701785D01*
X190047321Y-90749404D01*
X190142559Y-90797023D01*
X190380654Y-90797023D01*
X190475892Y-90749404D01*
X190523511Y-90701785D01*
X190571130Y-90606547D01*
X190571130Y-90320833D01*
X190523511Y-90225595D01*
X190475892Y-90177976D01*
X189999702Y-91368452D02*
X189952083Y-91273214D01*
X189904464Y-91225595D01*
X189809226Y-91177976D01*
X189761607Y-91177976D01*
X189666369Y-91225595D01*
X189618750Y-91273214D01*
X189571130Y-91368452D01*
X189571130Y-91558928D01*
X189618750Y-91654166D01*
X189666369Y-91701785D01*
X189761607Y-91749404D01*
X189809226Y-91749404D01*
X189904464Y-91701785D01*
X189952083Y-91654166D01*
X189999702Y-91558928D01*
X189999702Y-91368452D01*
X190047321Y-91273214D01*
X190094940Y-91225595D01*
X190190178Y-91177976D01*
X190380654Y-91177976D01*
X190475892Y-91225595D01*
X190523511Y-91273214D01*
X190571130Y-91368452D01*
X190571130Y-91558928D01*
X190523511Y-91654166D01*
X190475892Y-91701785D01*
X190380654Y-91749404D01*
X190190178Y-91749404D01*
X190094940Y-91701785D01*
X190047321Y-91654166D01*
X189999702Y-91558928D01*
G04 #@! TO.C,D37*
X171521130Y-89273214D02*
X170521130Y-89273214D01*
X170521130Y-89511309D01*
X170568750Y-89654166D01*
X170663988Y-89749404D01*
X170759226Y-89797023D01*
X170949702Y-89844642D01*
X171092559Y-89844642D01*
X171283035Y-89797023D01*
X171378273Y-89749404D01*
X171473511Y-89654166D01*
X171521130Y-89511309D01*
X171521130Y-89273214D01*
X170521130Y-90177976D02*
X170521130Y-90797023D01*
X170902083Y-90463690D01*
X170902083Y-90606547D01*
X170949702Y-90701785D01*
X170997321Y-90749404D01*
X171092559Y-90797023D01*
X171330654Y-90797023D01*
X171425892Y-90749404D01*
X171473511Y-90701785D01*
X171521130Y-90606547D01*
X171521130Y-90320833D01*
X171473511Y-90225595D01*
X171425892Y-90177976D01*
X170521130Y-91130357D02*
X170521130Y-91797023D01*
X171521130Y-91368452D01*
G04 #@! TO.C,D36*
X152471130Y-89273214D02*
X151471130Y-89273214D01*
X151471130Y-89511309D01*
X151518750Y-89654166D01*
X151613988Y-89749404D01*
X151709226Y-89797023D01*
X151899702Y-89844642D01*
X152042559Y-89844642D01*
X152233035Y-89797023D01*
X152328273Y-89749404D01*
X152423511Y-89654166D01*
X152471130Y-89511309D01*
X152471130Y-89273214D01*
X151471130Y-90177976D02*
X151471130Y-90797023D01*
X151852083Y-90463690D01*
X151852083Y-90606547D01*
X151899702Y-90701785D01*
X151947321Y-90749404D01*
X152042559Y-90797023D01*
X152280654Y-90797023D01*
X152375892Y-90749404D01*
X152423511Y-90701785D01*
X152471130Y-90606547D01*
X152471130Y-90320833D01*
X152423511Y-90225595D01*
X152375892Y-90177976D01*
X151471130Y-91654166D02*
X151471130Y-91463690D01*
X151518750Y-91368452D01*
X151566369Y-91320833D01*
X151709226Y-91225595D01*
X151899702Y-91177976D01*
X152280654Y-91177976D01*
X152375892Y-91225595D01*
X152423511Y-91273214D01*
X152471130Y-91368452D01*
X152471130Y-91558928D01*
X152423511Y-91654166D01*
X152375892Y-91701785D01*
X152280654Y-91749404D01*
X152042559Y-91749404D01*
X151947321Y-91701785D01*
X151899702Y-91654166D01*
X151852083Y-91558928D01*
X151852083Y-91368452D01*
X151899702Y-91273214D01*
X151947321Y-91225595D01*
X152042559Y-91177976D01*
G04 #@! TO.C,D35*
X133421130Y-89273214D02*
X132421130Y-89273214D01*
X132421130Y-89511309D01*
X132468750Y-89654166D01*
X132563988Y-89749404D01*
X132659226Y-89797023D01*
X132849702Y-89844642D01*
X132992559Y-89844642D01*
X133183035Y-89797023D01*
X133278273Y-89749404D01*
X133373511Y-89654166D01*
X133421130Y-89511309D01*
X133421130Y-89273214D01*
X132421130Y-90177976D02*
X132421130Y-90797023D01*
X132802083Y-90463690D01*
X132802083Y-90606547D01*
X132849702Y-90701785D01*
X132897321Y-90749404D01*
X132992559Y-90797023D01*
X133230654Y-90797023D01*
X133325892Y-90749404D01*
X133373511Y-90701785D01*
X133421130Y-90606547D01*
X133421130Y-90320833D01*
X133373511Y-90225595D01*
X133325892Y-90177976D01*
X132421130Y-91701785D02*
X132421130Y-91225595D01*
X132897321Y-91177976D01*
X132849702Y-91225595D01*
X132802083Y-91320833D01*
X132802083Y-91558928D01*
X132849702Y-91654166D01*
X132897321Y-91701785D01*
X132992559Y-91749404D01*
X133230654Y-91749404D01*
X133325892Y-91701785D01*
X133373511Y-91654166D01*
X133421130Y-91558928D01*
X133421130Y-91320833D01*
X133373511Y-91225595D01*
X133325892Y-91177976D01*
G04 #@! TO.C,D34*
X109608630Y-89273214D02*
X108608630Y-89273214D01*
X108608630Y-89511309D01*
X108656250Y-89654166D01*
X108751488Y-89749404D01*
X108846726Y-89797023D01*
X109037202Y-89844642D01*
X109180059Y-89844642D01*
X109370535Y-89797023D01*
X109465773Y-89749404D01*
X109561011Y-89654166D01*
X109608630Y-89511309D01*
X109608630Y-89273214D01*
X108608630Y-90177976D02*
X108608630Y-90797023D01*
X108989583Y-90463690D01*
X108989583Y-90606547D01*
X109037202Y-90701785D01*
X109084821Y-90749404D01*
X109180059Y-90797023D01*
X109418154Y-90797023D01*
X109513392Y-90749404D01*
X109561011Y-90701785D01*
X109608630Y-90606547D01*
X109608630Y-90320833D01*
X109561011Y-90225595D01*
X109513392Y-90177976D01*
X108941964Y-91654166D02*
X109608630Y-91654166D01*
X108561011Y-91416071D02*
X109275297Y-91177976D01*
X109275297Y-91797023D01*
G04 #@! TO.C,D33*
X71889880Y-89273214D02*
X70889880Y-89273214D01*
X70889880Y-89511309D01*
X70937500Y-89654166D01*
X71032738Y-89749404D01*
X71127976Y-89797023D01*
X71318452Y-89844642D01*
X71461309Y-89844642D01*
X71651785Y-89797023D01*
X71747023Y-89749404D01*
X71842261Y-89654166D01*
X71889880Y-89511309D01*
X71889880Y-89273214D01*
X70889880Y-90177976D02*
X70889880Y-90797023D01*
X71270833Y-90463690D01*
X71270833Y-90606547D01*
X71318452Y-90701785D01*
X71366071Y-90749404D01*
X71461309Y-90797023D01*
X71699404Y-90797023D01*
X71794642Y-90749404D01*
X71842261Y-90701785D01*
X71889880Y-90606547D01*
X71889880Y-90320833D01*
X71842261Y-90225595D01*
X71794642Y-90177976D01*
X70889880Y-91130357D02*
X70889880Y-91749404D01*
X71270833Y-91416071D01*
X71270833Y-91558928D01*
X71318452Y-91654166D01*
X71366071Y-91701785D01*
X71461309Y-91749404D01*
X71699404Y-91749404D01*
X71794642Y-91701785D01*
X71842261Y-91654166D01*
X71889880Y-91558928D01*
X71889880Y-91273214D01*
X71842261Y-91177976D01*
X71794642Y-91130357D01*
G04 #@! TO.C,D32*
X56316369Y-91701785D02*
X57316369Y-91701785D01*
X57316369Y-91463690D01*
X57268750Y-91320833D01*
X57173511Y-91225595D01*
X57078273Y-91177976D01*
X56887797Y-91130357D01*
X56744940Y-91130357D01*
X56554464Y-91177976D01*
X56459226Y-91225595D01*
X56363988Y-91320833D01*
X56316369Y-91463690D01*
X56316369Y-91701785D01*
X57316369Y-90797023D02*
X57316369Y-90177976D01*
X56935416Y-90511309D01*
X56935416Y-90368452D01*
X56887797Y-90273214D01*
X56840178Y-90225595D01*
X56744940Y-90177976D01*
X56506845Y-90177976D01*
X56411607Y-90225595D01*
X56363988Y-90273214D01*
X56316369Y-90368452D01*
X56316369Y-90654166D01*
X56363988Y-90749404D01*
X56411607Y-90797023D01*
X57221130Y-89797023D02*
X57268750Y-89749404D01*
X57316369Y-89654166D01*
X57316369Y-89416071D01*
X57268750Y-89320833D01*
X57221130Y-89273214D01*
X57125892Y-89225595D01*
X57030654Y-89225595D01*
X56887797Y-89273214D01*
X56316369Y-89844642D01*
X56316369Y-89225595D01*
G04 #@! TO.C,D31*
X38171130Y-89273214D02*
X37171130Y-89273214D01*
X37171130Y-89511309D01*
X37218750Y-89654166D01*
X37313988Y-89749404D01*
X37409226Y-89797023D01*
X37599702Y-89844642D01*
X37742559Y-89844642D01*
X37933035Y-89797023D01*
X38028273Y-89749404D01*
X38123511Y-89654166D01*
X38171130Y-89511309D01*
X38171130Y-89273214D01*
X37171130Y-90177976D02*
X37171130Y-90797023D01*
X37552083Y-90463690D01*
X37552083Y-90606547D01*
X37599702Y-90701785D01*
X37647321Y-90749404D01*
X37742559Y-90797023D01*
X37980654Y-90797023D01*
X38075892Y-90749404D01*
X38123511Y-90701785D01*
X38171130Y-90606547D01*
X38171130Y-90320833D01*
X38123511Y-90225595D01*
X38075892Y-90177976D01*
X38171130Y-91749404D02*
X38171130Y-91177976D01*
X38171130Y-91463690D02*
X37171130Y-91463690D01*
X37313988Y-91368452D01*
X37409226Y-91273214D01*
X37456845Y-91177976D01*
G04 #@! TO.C,D30*
X321539880Y-70223214D02*
X320539880Y-70223214D01*
X320539880Y-70461309D01*
X320587500Y-70604166D01*
X320682738Y-70699404D01*
X320777976Y-70747023D01*
X320968452Y-70794642D01*
X321111309Y-70794642D01*
X321301785Y-70747023D01*
X321397023Y-70699404D01*
X321492261Y-70604166D01*
X321539880Y-70461309D01*
X321539880Y-70223214D01*
X320539880Y-71127976D02*
X320539880Y-71747023D01*
X320920833Y-71413690D01*
X320920833Y-71556547D01*
X320968452Y-71651785D01*
X321016071Y-71699404D01*
X321111309Y-71747023D01*
X321349404Y-71747023D01*
X321444642Y-71699404D01*
X321492261Y-71651785D01*
X321539880Y-71556547D01*
X321539880Y-71270833D01*
X321492261Y-71175595D01*
X321444642Y-71127976D01*
X320539880Y-72366071D02*
X320539880Y-72461309D01*
X320587500Y-72556547D01*
X320635119Y-72604166D01*
X320730357Y-72651785D01*
X320920833Y-72699404D01*
X321158928Y-72699404D01*
X321349404Y-72651785D01*
X321444642Y-72604166D01*
X321492261Y-72556547D01*
X321539880Y-72461309D01*
X321539880Y-72366071D01*
X321492261Y-72270833D01*
X321444642Y-72223214D01*
X321349404Y-72175595D01*
X321158928Y-72127976D01*
X320920833Y-72127976D01*
X320730357Y-72175595D01*
X320635119Y-72223214D01*
X320587500Y-72270833D01*
X320539880Y-72366071D01*
G04 #@! TO.C,D29*
X300108630Y-70223214D02*
X299108630Y-70223214D01*
X299108630Y-70461309D01*
X299156250Y-70604166D01*
X299251488Y-70699404D01*
X299346726Y-70747023D01*
X299537202Y-70794642D01*
X299680059Y-70794642D01*
X299870535Y-70747023D01*
X299965773Y-70699404D01*
X300061011Y-70604166D01*
X300108630Y-70461309D01*
X300108630Y-70223214D01*
X299203869Y-71175595D02*
X299156250Y-71223214D01*
X299108630Y-71318452D01*
X299108630Y-71556547D01*
X299156250Y-71651785D01*
X299203869Y-71699404D01*
X299299107Y-71747023D01*
X299394345Y-71747023D01*
X299537202Y-71699404D01*
X300108630Y-71127976D01*
X300108630Y-71747023D01*
X300108630Y-72223214D02*
X300108630Y-72413690D01*
X300061011Y-72508928D01*
X300013392Y-72556547D01*
X299870535Y-72651785D01*
X299680059Y-72699404D01*
X299299107Y-72699404D01*
X299203869Y-72651785D01*
X299156250Y-72604166D01*
X299108630Y-72508928D01*
X299108630Y-72318452D01*
X299156250Y-72223214D01*
X299203869Y-72175595D01*
X299299107Y-72127976D01*
X299537202Y-72127976D01*
X299632440Y-72175595D01*
X299680059Y-72223214D01*
X299727678Y-72318452D01*
X299727678Y-72508928D01*
X299680059Y-72604166D01*
X299632440Y-72651785D01*
X299537202Y-72699404D01*
G04 #@! TO.C,D28*
X281058630Y-70223214D02*
X280058630Y-70223214D01*
X280058630Y-70461309D01*
X280106250Y-70604166D01*
X280201488Y-70699404D01*
X280296726Y-70747023D01*
X280487202Y-70794642D01*
X280630059Y-70794642D01*
X280820535Y-70747023D01*
X280915773Y-70699404D01*
X281011011Y-70604166D01*
X281058630Y-70461309D01*
X281058630Y-70223214D01*
X280153869Y-71175595D02*
X280106250Y-71223214D01*
X280058630Y-71318452D01*
X280058630Y-71556547D01*
X280106250Y-71651785D01*
X280153869Y-71699404D01*
X280249107Y-71747023D01*
X280344345Y-71747023D01*
X280487202Y-71699404D01*
X281058630Y-71127976D01*
X281058630Y-71747023D01*
X280487202Y-72318452D02*
X280439583Y-72223214D01*
X280391964Y-72175595D01*
X280296726Y-72127976D01*
X280249107Y-72127976D01*
X280153869Y-72175595D01*
X280106250Y-72223214D01*
X280058630Y-72318452D01*
X280058630Y-72508928D01*
X280106250Y-72604166D01*
X280153869Y-72651785D01*
X280249107Y-72699404D01*
X280296726Y-72699404D01*
X280391964Y-72651785D01*
X280439583Y-72604166D01*
X280487202Y-72508928D01*
X280487202Y-72318452D01*
X280534821Y-72223214D01*
X280582440Y-72175595D01*
X280677678Y-72127976D01*
X280868154Y-72127976D01*
X280963392Y-72175595D01*
X281011011Y-72223214D01*
X281058630Y-72318452D01*
X281058630Y-72508928D01*
X281011011Y-72604166D01*
X280963392Y-72651785D01*
X280868154Y-72699404D01*
X280677678Y-72699404D01*
X280582440Y-72651785D01*
X280534821Y-72604166D01*
X280487202Y-72508928D01*
G04 #@! TO.C,D27*
X262008630Y-70223214D02*
X261008630Y-70223214D01*
X261008630Y-70461309D01*
X261056250Y-70604166D01*
X261151488Y-70699404D01*
X261246726Y-70747023D01*
X261437202Y-70794642D01*
X261580059Y-70794642D01*
X261770535Y-70747023D01*
X261865773Y-70699404D01*
X261961011Y-70604166D01*
X262008630Y-70461309D01*
X262008630Y-70223214D01*
X261103869Y-71175595D02*
X261056250Y-71223214D01*
X261008630Y-71318452D01*
X261008630Y-71556547D01*
X261056250Y-71651785D01*
X261103869Y-71699404D01*
X261199107Y-71747023D01*
X261294345Y-71747023D01*
X261437202Y-71699404D01*
X262008630Y-71127976D01*
X262008630Y-71747023D01*
X261008630Y-72080357D02*
X261008630Y-72747023D01*
X262008630Y-72318452D01*
G04 #@! TO.C,D26*
X242958630Y-70223214D02*
X241958630Y-70223214D01*
X241958630Y-70461309D01*
X242006250Y-70604166D01*
X242101488Y-70699404D01*
X242196726Y-70747023D01*
X242387202Y-70794642D01*
X242530059Y-70794642D01*
X242720535Y-70747023D01*
X242815773Y-70699404D01*
X242911011Y-70604166D01*
X242958630Y-70461309D01*
X242958630Y-70223214D01*
X242053869Y-71175595D02*
X242006250Y-71223214D01*
X241958630Y-71318452D01*
X241958630Y-71556547D01*
X242006250Y-71651785D01*
X242053869Y-71699404D01*
X242149107Y-71747023D01*
X242244345Y-71747023D01*
X242387202Y-71699404D01*
X242958630Y-71127976D01*
X242958630Y-71747023D01*
X241958630Y-72604166D02*
X241958630Y-72413690D01*
X242006250Y-72318452D01*
X242053869Y-72270833D01*
X242196726Y-72175595D01*
X242387202Y-72127976D01*
X242768154Y-72127976D01*
X242863392Y-72175595D01*
X242911011Y-72223214D01*
X242958630Y-72318452D01*
X242958630Y-72508928D01*
X242911011Y-72604166D01*
X242863392Y-72651785D01*
X242768154Y-72699404D01*
X242530059Y-72699404D01*
X242434821Y-72651785D01*
X242387202Y-72604166D01*
X242339583Y-72508928D01*
X242339583Y-72318452D01*
X242387202Y-72223214D01*
X242434821Y-72175595D01*
X242530059Y-72127976D01*
G04 #@! TO.C,D25*
X223908630Y-70223214D02*
X222908630Y-70223214D01*
X222908630Y-70461309D01*
X222956250Y-70604166D01*
X223051488Y-70699404D01*
X223146726Y-70747023D01*
X223337202Y-70794642D01*
X223480059Y-70794642D01*
X223670535Y-70747023D01*
X223765773Y-70699404D01*
X223861011Y-70604166D01*
X223908630Y-70461309D01*
X223908630Y-70223214D01*
X223003869Y-71175595D02*
X222956250Y-71223214D01*
X222908630Y-71318452D01*
X222908630Y-71556547D01*
X222956250Y-71651785D01*
X223003869Y-71699404D01*
X223099107Y-71747023D01*
X223194345Y-71747023D01*
X223337202Y-71699404D01*
X223908630Y-71127976D01*
X223908630Y-71747023D01*
X222908630Y-72651785D02*
X222908630Y-72175595D01*
X223384821Y-72127976D01*
X223337202Y-72175595D01*
X223289583Y-72270833D01*
X223289583Y-72508928D01*
X223337202Y-72604166D01*
X223384821Y-72651785D01*
X223480059Y-72699404D01*
X223718154Y-72699404D01*
X223813392Y-72651785D01*
X223861011Y-72604166D01*
X223908630Y-72508928D01*
X223908630Y-72270833D01*
X223861011Y-72175595D01*
X223813392Y-72127976D01*
G04 #@! TO.C,D24*
X204858630Y-70223214D02*
X203858630Y-70223214D01*
X203858630Y-70461309D01*
X203906250Y-70604166D01*
X204001488Y-70699404D01*
X204096726Y-70747023D01*
X204287202Y-70794642D01*
X204430059Y-70794642D01*
X204620535Y-70747023D01*
X204715773Y-70699404D01*
X204811011Y-70604166D01*
X204858630Y-70461309D01*
X204858630Y-70223214D01*
X203953869Y-71175595D02*
X203906250Y-71223214D01*
X203858630Y-71318452D01*
X203858630Y-71556547D01*
X203906250Y-71651785D01*
X203953869Y-71699404D01*
X204049107Y-71747023D01*
X204144345Y-71747023D01*
X204287202Y-71699404D01*
X204858630Y-71127976D01*
X204858630Y-71747023D01*
X204191964Y-72604166D02*
X204858630Y-72604166D01*
X203811011Y-72366071D02*
X204525297Y-72127976D01*
X204525297Y-72747023D01*
G04 #@! TO.C,D23*
X185808630Y-70223214D02*
X184808630Y-70223214D01*
X184808630Y-70461309D01*
X184856250Y-70604166D01*
X184951488Y-70699404D01*
X185046726Y-70747023D01*
X185237202Y-70794642D01*
X185380059Y-70794642D01*
X185570535Y-70747023D01*
X185665773Y-70699404D01*
X185761011Y-70604166D01*
X185808630Y-70461309D01*
X185808630Y-70223214D01*
X184903869Y-71175595D02*
X184856250Y-71223214D01*
X184808630Y-71318452D01*
X184808630Y-71556547D01*
X184856250Y-71651785D01*
X184903869Y-71699404D01*
X184999107Y-71747023D01*
X185094345Y-71747023D01*
X185237202Y-71699404D01*
X185808630Y-71127976D01*
X185808630Y-71747023D01*
X184808630Y-72080357D02*
X184808630Y-72699404D01*
X185189583Y-72366071D01*
X185189583Y-72508928D01*
X185237202Y-72604166D01*
X185284821Y-72651785D01*
X185380059Y-72699404D01*
X185618154Y-72699404D01*
X185713392Y-72651785D01*
X185761011Y-72604166D01*
X185808630Y-72508928D01*
X185808630Y-72223214D01*
X185761011Y-72127976D01*
X185713392Y-72080357D01*
G04 #@! TO.C,D22*
X166758630Y-70223214D02*
X165758630Y-70223214D01*
X165758630Y-70461309D01*
X165806250Y-70604166D01*
X165901488Y-70699404D01*
X165996726Y-70747023D01*
X166187202Y-70794642D01*
X166330059Y-70794642D01*
X166520535Y-70747023D01*
X166615773Y-70699404D01*
X166711011Y-70604166D01*
X166758630Y-70461309D01*
X166758630Y-70223214D01*
X165853869Y-71175595D02*
X165806250Y-71223214D01*
X165758630Y-71318452D01*
X165758630Y-71556547D01*
X165806250Y-71651785D01*
X165853869Y-71699404D01*
X165949107Y-71747023D01*
X166044345Y-71747023D01*
X166187202Y-71699404D01*
X166758630Y-71127976D01*
X166758630Y-71747023D01*
X165853869Y-72127976D02*
X165806250Y-72175595D01*
X165758630Y-72270833D01*
X165758630Y-72508928D01*
X165806250Y-72604166D01*
X165853869Y-72651785D01*
X165949107Y-72699404D01*
X166044345Y-72699404D01*
X166187202Y-72651785D01*
X166758630Y-72080357D01*
X166758630Y-72699404D01*
G04 #@! TO.C,D21*
X147708630Y-70223214D02*
X146708630Y-70223214D01*
X146708630Y-70461309D01*
X146756250Y-70604166D01*
X146851488Y-70699404D01*
X146946726Y-70747023D01*
X147137202Y-70794642D01*
X147280059Y-70794642D01*
X147470535Y-70747023D01*
X147565773Y-70699404D01*
X147661011Y-70604166D01*
X147708630Y-70461309D01*
X147708630Y-70223214D01*
X146803869Y-71175595D02*
X146756250Y-71223214D01*
X146708630Y-71318452D01*
X146708630Y-71556547D01*
X146756250Y-71651785D01*
X146803869Y-71699404D01*
X146899107Y-71747023D01*
X146994345Y-71747023D01*
X147137202Y-71699404D01*
X147708630Y-71127976D01*
X147708630Y-71747023D01*
X147708630Y-72699404D02*
X147708630Y-72127976D01*
X147708630Y-72413690D02*
X146708630Y-72413690D01*
X146851488Y-72318452D01*
X146946726Y-72223214D01*
X146994345Y-72127976D01*
G04 #@! TO.C,D20*
X128658630Y-70223214D02*
X127658630Y-70223214D01*
X127658630Y-70461309D01*
X127706250Y-70604166D01*
X127801488Y-70699404D01*
X127896726Y-70747023D01*
X128087202Y-70794642D01*
X128230059Y-70794642D01*
X128420535Y-70747023D01*
X128515773Y-70699404D01*
X128611011Y-70604166D01*
X128658630Y-70461309D01*
X128658630Y-70223214D01*
X127753869Y-71175595D02*
X127706250Y-71223214D01*
X127658630Y-71318452D01*
X127658630Y-71556547D01*
X127706250Y-71651785D01*
X127753869Y-71699404D01*
X127849107Y-71747023D01*
X127944345Y-71747023D01*
X128087202Y-71699404D01*
X128658630Y-71127976D01*
X128658630Y-71747023D01*
X127658630Y-72366071D02*
X127658630Y-72461309D01*
X127706250Y-72556547D01*
X127753869Y-72604166D01*
X127849107Y-72651785D01*
X128039583Y-72699404D01*
X128277678Y-72699404D01*
X128468154Y-72651785D01*
X128563392Y-72604166D01*
X128611011Y-72556547D01*
X128658630Y-72461309D01*
X128658630Y-72366071D01*
X128611011Y-72270833D01*
X128563392Y-72223214D01*
X128468154Y-72175595D01*
X128277678Y-72127976D01*
X128039583Y-72127976D01*
X127849107Y-72175595D01*
X127753869Y-72223214D01*
X127706250Y-72270833D01*
X127658630Y-72366071D01*
G04 #@! TO.C,D19*
X107227380Y-70223214D02*
X106227380Y-70223214D01*
X106227380Y-70461309D01*
X106275000Y-70604166D01*
X106370238Y-70699404D01*
X106465476Y-70747023D01*
X106655952Y-70794642D01*
X106798809Y-70794642D01*
X106989285Y-70747023D01*
X107084523Y-70699404D01*
X107179761Y-70604166D01*
X107227380Y-70461309D01*
X107227380Y-70223214D01*
X107227380Y-71747023D02*
X107227380Y-71175595D01*
X107227380Y-71461309D02*
X106227380Y-71461309D01*
X106370238Y-71366071D01*
X106465476Y-71270833D01*
X106513095Y-71175595D01*
X107227380Y-72223214D02*
X107227380Y-72413690D01*
X107179761Y-72508928D01*
X107132142Y-72556547D01*
X106989285Y-72651785D01*
X106798809Y-72699404D01*
X106417857Y-72699404D01*
X106322619Y-72651785D01*
X106275000Y-72604166D01*
X106227380Y-72508928D01*
X106227380Y-72318452D01*
X106275000Y-72223214D01*
X106322619Y-72175595D01*
X106417857Y-72127976D01*
X106655952Y-72127976D01*
X106751190Y-72175595D01*
X106798809Y-72223214D01*
X106846428Y-72318452D01*
X106846428Y-72508928D01*
X106798809Y-72604166D01*
X106751190Y-72651785D01*
X106655952Y-72699404D01*
G04 #@! TO.C,D18*
X76271130Y-70223214D02*
X75271130Y-70223214D01*
X75271130Y-70461309D01*
X75318750Y-70604166D01*
X75413988Y-70699404D01*
X75509226Y-70747023D01*
X75699702Y-70794642D01*
X75842559Y-70794642D01*
X76033035Y-70747023D01*
X76128273Y-70699404D01*
X76223511Y-70604166D01*
X76271130Y-70461309D01*
X76271130Y-70223214D01*
X76271130Y-71747023D02*
X76271130Y-71175595D01*
X76271130Y-71461309D02*
X75271130Y-71461309D01*
X75413988Y-71366071D01*
X75509226Y-71270833D01*
X75556845Y-71175595D01*
X75699702Y-72318452D02*
X75652083Y-72223214D01*
X75604464Y-72175595D01*
X75509226Y-72127976D01*
X75461607Y-72127976D01*
X75366369Y-72175595D01*
X75318750Y-72223214D01*
X75271130Y-72318452D01*
X75271130Y-72508928D01*
X75318750Y-72604166D01*
X75366369Y-72651785D01*
X75461607Y-72699404D01*
X75509226Y-72699404D01*
X75604464Y-72651785D01*
X75652083Y-72604166D01*
X75699702Y-72508928D01*
X75699702Y-72318452D01*
X75747321Y-72223214D01*
X75794940Y-72175595D01*
X75890178Y-72127976D01*
X76080654Y-72127976D01*
X76175892Y-72175595D01*
X76223511Y-72223214D01*
X76271130Y-72318452D01*
X76271130Y-72508928D01*
X76223511Y-72604166D01*
X76175892Y-72651785D01*
X76080654Y-72699404D01*
X75890178Y-72699404D01*
X75794940Y-72651785D01*
X75747321Y-72604166D01*
X75699702Y-72508928D01*
G04 #@! TO.C,D17*
X57221130Y-70223214D02*
X56221130Y-70223214D01*
X56221130Y-70461309D01*
X56268750Y-70604166D01*
X56363988Y-70699404D01*
X56459226Y-70747023D01*
X56649702Y-70794642D01*
X56792559Y-70794642D01*
X56983035Y-70747023D01*
X57078273Y-70699404D01*
X57173511Y-70604166D01*
X57221130Y-70461309D01*
X57221130Y-70223214D01*
X57221130Y-71747023D02*
X57221130Y-71175595D01*
X57221130Y-71461309D02*
X56221130Y-71461309D01*
X56363988Y-71366071D01*
X56459226Y-71270833D01*
X56506845Y-71175595D01*
X56221130Y-72080357D02*
X56221130Y-72747023D01*
X57221130Y-72318452D01*
G04 #@! TO.C,D16*
X38171130Y-70223214D02*
X37171130Y-70223214D01*
X37171130Y-70461309D01*
X37218750Y-70604166D01*
X37313988Y-70699404D01*
X37409226Y-70747023D01*
X37599702Y-70794642D01*
X37742559Y-70794642D01*
X37933035Y-70747023D01*
X38028273Y-70699404D01*
X38123511Y-70604166D01*
X38171130Y-70461309D01*
X38171130Y-70223214D01*
X38171130Y-71747023D02*
X38171130Y-71175595D01*
X38171130Y-71461309D02*
X37171130Y-71461309D01*
X37313988Y-71366071D01*
X37409226Y-71270833D01*
X37456845Y-71175595D01*
X37171130Y-72604166D02*
X37171130Y-72413690D01*
X37218750Y-72318452D01*
X37266369Y-72270833D01*
X37409226Y-72175595D01*
X37599702Y-72127976D01*
X37980654Y-72127976D01*
X38075892Y-72175595D01*
X38123511Y-72223214D01*
X38171130Y-72318452D01*
X38171130Y-72508928D01*
X38123511Y-72604166D01*
X38075892Y-72651785D01*
X37980654Y-72699404D01*
X37742559Y-72699404D01*
X37647321Y-72651785D01*
X37599702Y-72604166D01*
X37552083Y-72508928D01*
X37552083Y-72318452D01*
X37599702Y-72223214D01*
X37647321Y-72175595D01*
X37742559Y-72127976D01*
G04 #@! TO.C,D15*
X319158630Y-51173214D02*
X318158630Y-51173214D01*
X318158630Y-51411309D01*
X318206250Y-51554166D01*
X318301488Y-51649404D01*
X318396726Y-51697023D01*
X318587202Y-51744642D01*
X318730059Y-51744642D01*
X318920535Y-51697023D01*
X319015773Y-51649404D01*
X319111011Y-51554166D01*
X319158630Y-51411309D01*
X319158630Y-51173214D01*
X319158630Y-52697023D02*
X319158630Y-52125595D01*
X319158630Y-52411309D02*
X318158630Y-52411309D01*
X318301488Y-52316071D01*
X318396726Y-52220833D01*
X318444345Y-52125595D01*
X318158630Y-53601785D02*
X318158630Y-53125595D01*
X318634821Y-53077976D01*
X318587202Y-53125595D01*
X318539583Y-53220833D01*
X318539583Y-53458928D01*
X318587202Y-53554166D01*
X318634821Y-53601785D01*
X318730059Y-53649404D01*
X318968154Y-53649404D01*
X319063392Y-53601785D01*
X319111011Y-53554166D01*
X319158630Y-53458928D01*
X319158630Y-53220833D01*
X319111011Y-53125595D01*
X319063392Y-53077976D01*
G04 #@! TO.C,D14*
X295346130Y-51173214D02*
X294346130Y-51173214D01*
X294346130Y-51411309D01*
X294393750Y-51554166D01*
X294488988Y-51649404D01*
X294584226Y-51697023D01*
X294774702Y-51744642D01*
X294917559Y-51744642D01*
X295108035Y-51697023D01*
X295203273Y-51649404D01*
X295298511Y-51554166D01*
X295346130Y-51411309D01*
X295346130Y-51173214D01*
X295346130Y-52697023D02*
X295346130Y-52125595D01*
X295346130Y-52411309D02*
X294346130Y-52411309D01*
X294488988Y-52316071D01*
X294584226Y-52220833D01*
X294631845Y-52125595D01*
X294679464Y-53554166D02*
X295346130Y-53554166D01*
X294298511Y-53316071D02*
X295012797Y-53077976D01*
X295012797Y-53697023D01*
G04 #@! TO.C,D13*
X276296130Y-51173214D02*
X275296130Y-51173214D01*
X275296130Y-51411309D01*
X275343750Y-51554166D01*
X275438988Y-51649404D01*
X275534226Y-51697023D01*
X275724702Y-51744642D01*
X275867559Y-51744642D01*
X276058035Y-51697023D01*
X276153273Y-51649404D01*
X276248511Y-51554166D01*
X276296130Y-51411309D01*
X276296130Y-51173214D01*
X276296130Y-52697023D02*
X276296130Y-52125595D01*
X276296130Y-52411309D02*
X275296130Y-52411309D01*
X275438988Y-52316071D01*
X275534226Y-52220833D01*
X275581845Y-52125595D01*
X275296130Y-53030357D02*
X275296130Y-53649404D01*
X275677083Y-53316071D01*
X275677083Y-53458928D01*
X275724702Y-53554166D01*
X275772321Y-53601785D01*
X275867559Y-53649404D01*
X276105654Y-53649404D01*
X276200892Y-53601785D01*
X276248511Y-53554166D01*
X276296130Y-53458928D01*
X276296130Y-53173214D01*
X276248511Y-53077976D01*
X276200892Y-53030357D01*
G04 #@! TO.C,D12*
X257246130Y-51173214D02*
X256246130Y-51173214D01*
X256246130Y-51411309D01*
X256293750Y-51554166D01*
X256388988Y-51649404D01*
X256484226Y-51697023D01*
X256674702Y-51744642D01*
X256817559Y-51744642D01*
X257008035Y-51697023D01*
X257103273Y-51649404D01*
X257198511Y-51554166D01*
X257246130Y-51411309D01*
X257246130Y-51173214D01*
X257246130Y-52697023D02*
X257246130Y-52125595D01*
X257246130Y-52411309D02*
X256246130Y-52411309D01*
X256388988Y-52316071D01*
X256484226Y-52220833D01*
X256531845Y-52125595D01*
X256341369Y-53077976D02*
X256293750Y-53125595D01*
X256246130Y-53220833D01*
X256246130Y-53458928D01*
X256293750Y-53554166D01*
X256341369Y-53601785D01*
X256436607Y-53649404D01*
X256531845Y-53649404D01*
X256674702Y-53601785D01*
X257246130Y-53030357D01*
X257246130Y-53649404D01*
G04 #@! TO.C,D11*
X238196130Y-51173214D02*
X237196130Y-51173214D01*
X237196130Y-51411309D01*
X237243750Y-51554166D01*
X237338988Y-51649404D01*
X237434226Y-51697023D01*
X237624702Y-51744642D01*
X237767559Y-51744642D01*
X237958035Y-51697023D01*
X238053273Y-51649404D01*
X238148511Y-51554166D01*
X238196130Y-51411309D01*
X238196130Y-51173214D01*
X238196130Y-52697023D02*
X238196130Y-52125595D01*
X238196130Y-52411309D02*
X237196130Y-52411309D01*
X237338988Y-52316071D01*
X237434226Y-52220833D01*
X237481845Y-52125595D01*
X238196130Y-53649404D02*
X238196130Y-53077976D01*
X238196130Y-53363690D02*
X237196130Y-53363690D01*
X237338988Y-53268452D01*
X237434226Y-53173214D01*
X237481845Y-53077976D01*
G04 #@! TO.C,D10*
X219146130Y-51173214D02*
X218146130Y-51173214D01*
X218146130Y-51411309D01*
X218193750Y-51554166D01*
X218288988Y-51649404D01*
X218384226Y-51697023D01*
X218574702Y-51744642D01*
X218717559Y-51744642D01*
X218908035Y-51697023D01*
X219003273Y-51649404D01*
X219098511Y-51554166D01*
X219146130Y-51411309D01*
X219146130Y-51173214D01*
X219146130Y-52697023D02*
X219146130Y-52125595D01*
X219146130Y-52411309D02*
X218146130Y-52411309D01*
X218288988Y-52316071D01*
X218384226Y-52220833D01*
X218431845Y-52125595D01*
X218146130Y-53316071D02*
X218146130Y-53411309D01*
X218193750Y-53506547D01*
X218241369Y-53554166D01*
X218336607Y-53601785D01*
X218527083Y-53649404D01*
X218765178Y-53649404D01*
X218955654Y-53601785D01*
X219050892Y-53554166D01*
X219098511Y-53506547D01*
X219146130Y-53411309D01*
X219146130Y-53316071D01*
X219098511Y-53220833D01*
X219050892Y-53173214D01*
X218955654Y-53125595D01*
X218765178Y-53077976D01*
X218527083Y-53077976D01*
X218336607Y-53125595D01*
X218241369Y-53173214D01*
X218193750Y-53220833D01*
X218146130Y-53316071D01*
G04 #@! TO.C,D9*
X200096130Y-51649404D02*
X199096130Y-51649404D01*
X199096130Y-51887500D01*
X199143750Y-52030357D01*
X199238988Y-52125595D01*
X199334226Y-52173214D01*
X199524702Y-52220833D01*
X199667559Y-52220833D01*
X199858035Y-52173214D01*
X199953273Y-52125595D01*
X200048511Y-52030357D01*
X200096130Y-51887500D01*
X200096130Y-51649404D01*
X200096130Y-52697023D02*
X200096130Y-52887500D01*
X200048511Y-52982738D01*
X200000892Y-53030357D01*
X199858035Y-53125595D01*
X199667559Y-53173214D01*
X199286607Y-53173214D01*
X199191369Y-53125595D01*
X199143750Y-53077976D01*
X199096130Y-52982738D01*
X199096130Y-52792261D01*
X199143750Y-52697023D01*
X199191369Y-52649404D01*
X199286607Y-52601785D01*
X199524702Y-52601785D01*
X199619940Y-52649404D01*
X199667559Y-52697023D01*
X199715178Y-52792261D01*
X199715178Y-52982738D01*
X199667559Y-53077976D01*
X199619940Y-53125595D01*
X199524702Y-53173214D01*
G04 #@! TO.C,D8*
X181046130Y-51649404D02*
X180046130Y-51649404D01*
X180046130Y-51887500D01*
X180093750Y-52030357D01*
X180188988Y-52125595D01*
X180284226Y-52173214D01*
X180474702Y-52220833D01*
X180617559Y-52220833D01*
X180808035Y-52173214D01*
X180903273Y-52125595D01*
X180998511Y-52030357D01*
X181046130Y-51887500D01*
X181046130Y-51649404D01*
X180474702Y-52792261D02*
X180427083Y-52697023D01*
X180379464Y-52649404D01*
X180284226Y-52601785D01*
X180236607Y-52601785D01*
X180141369Y-52649404D01*
X180093750Y-52697023D01*
X180046130Y-52792261D01*
X180046130Y-52982738D01*
X180093750Y-53077976D01*
X180141369Y-53125595D01*
X180236607Y-53173214D01*
X180284226Y-53173214D01*
X180379464Y-53125595D01*
X180427083Y-53077976D01*
X180474702Y-52982738D01*
X180474702Y-52792261D01*
X180522321Y-52697023D01*
X180569940Y-52649404D01*
X180665178Y-52601785D01*
X180855654Y-52601785D01*
X180950892Y-52649404D01*
X180998511Y-52697023D01*
X181046130Y-52792261D01*
X181046130Y-52982738D01*
X180998511Y-53077976D01*
X180950892Y-53125595D01*
X180855654Y-53173214D01*
X180665178Y-53173214D01*
X180569940Y-53125595D01*
X180522321Y-53077976D01*
X180474702Y-52982738D01*
G04 #@! TO.C,D7*
X161996130Y-51649404D02*
X160996130Y-51649404D01*
X160996130Y-51887500D01*
X161043750Y-52030357D01*
X161138988Y-52125595D01*
X161234226Y-52173214D01*
X161424702Y-52220833D01*
X161567559Y-52220833D01*
X161758035Y-52173214D01*
X161853273Y-52125595D01*
X161948511Y-52030357D01*
X161996130Y-51887500D01*
X161996130Y-51649404D01*
X160996130Y-52554166D02*
X160996130Y-53220833D01*
X161996130Y-52792261D01*
G04 #@! TO.C,D6*
X142946130Y-51649404D02*
X141946130Y-51649404D01*
X141946130Y-51887500D01*
X141993750Y-52030357D01*
X142088988Y-52125595D01*
X142184226Y-52173214D01*
X142374702Y-52220833D01*
X142517559Y-52220833D01*
X142708035Y-52173214D01*
X142803273Y-52125595D01*
X142898511Y-52030357D01*
X142946130Y-51887500D01*
X142946130Y-51649404D01*
X141946130Y-53077976D02*
X141946130Y-52887500D01*
X141993750Y-52792261D01*
X142041369Y-52744642D01*
X142184226Y-52649404D01*
X142374702Y-52601785D01*
X142755654Y-52601785D01*
X142850892Y-52649404D01*
X142898511Y-52697023D01*
X142946130Y-52792261D01*
X142946130Y-52982738D01*
X142898511Y-53077976D01*
X142850892Y-53125595D01*
X142755654Y-53173214D01*
X142517559Y-53173214D01*
X142422321Y-53125595D01*
X142374702Y-53077976D01*
X142327083Y-52982738D01*
X142327083Y-52792261D01*
X142374702Y-52697023D01*
X142422321Y-52649404D01*
X142517559Y-52601785D01*
G04 #@! TO.C,D5*
X123896130Y-51649404D02*
X122896130Y-51649404D01*
X122896130Y-51887500D01*
X122943750Y-52030357D01*
X123038988Y-52125595D01*
X123134226Y-52173214D01*
X123324702Y-52220833D01*
X123467559Y-52220833D01*
X123658035Y-52173214D01*
X123753273Y-52125595D01*
X123848511Y-52030357D01*
X123896130Y-51887500D01*
X123896130Y-51649404D01*
X122896130Y-53125595D02*
X122896130Y-52649404D01*
X123372321Y-52601785D01*
X123324702Y-52649404D01*
X123277083Y-52744642D01*
X123277083Y-52982738D01*
X123324702Y-53077976D01*
X123372321Y-53125595D01*
X123467559Y-53173214D01*
X123705654Y-53173214D01*
X123800892Y-53125595D01*
X123848511Y-53077976D01*
X123896130Y-52982738D01*
X123896130Y-52744642D01*
X123848511Y-52649404D01*
X123800892Y-52601785D01*
G04 #@! TO.C,D4*
X104846130Y-51649404D02*
X103846130Y-51649404D01*
X103846130Y-51887500D01*
X103893750Y-52030357D01*
X103988988Y-52125595D01*
X104084226Y-52173214D01*
X104274702Y-52220833D01*
X104417559Y-52220833D01*
X104608035Y-52173214D01*
X104703273Y-52125595D01*
X104798511Y-52030357D01*
X104846130Y-51887500D01*
X104846130Y-51649404D01*
X104179464Y-53077976D02*
X104846130Y-53077976D01*
X103798511Y-52839880D02*
X104512797Y-52601785D01*
X104512797Y-53220833D01*
G04 #@! TO.C,D3*
X76271130Y-51649404D02*
X75271130Y-51649404D01*
X75271130Y-51887500D01*
X75318750Y-52030357D01*
X75413988Y-52125595D01*
X75509226Y-52173214D01*
X75699702Y-52220833D01*
X75842559Y-52220833D01*
X76033035Y-52173214D01*
X76128273Y-52125595D01*
X76223511Y-52030357D01*
X76271130Y-51887500D01*
X76271130Y-51649404D01*
X75271130Y-52554166D02*
X75271130Y-53173214D01*
X75652083Y-52839880D01*
X75652083Y-52982738D01*
X75699702Y-53077976D01*
X75747321Y-53125595D01*
X75842559Y-53173214D01*
X76080654Y-53173214D01*
X76175892Y-53125595D01*
X76223511Y-53077976D01*
X76271130Y-52982738D01*
X76271130Y-52697023D01*
X76223511Y-52601785D01*
X76175892Y-52554166D01*
G04 #@! TO.C,D2*
X57221130Y-51649404D02*
X56221130Y-51649404D01*
X56221130Y-51887500D01*
X56268750Y-52030357D01*
X56363988Y-52125595D01*
X56459226Y-52173214D01*
X56649702Y-52220833D01*
X56792559Y-52220833D01*
X56983035Y-52173214D01*
X57078273Y-52125595D01*
X57173511Y-52030357D01*
X57221130Y-51887500D01*
X57221130Y-51649404D01*
X56316369Y-52601785D02*
X56268750Y-52649404D01*
X56221130Y-52744642D01*
X56221130Y-52982738D01*
X56268750Y-53077976D01*
X56316369Y-53125595D01*
X56411607Y-53173214D01*
X56506845Y-53173214D01*
X56649702Y-53125595D01*
X57221130Y-52554166D01*
X57221130Y-53173214D01*
G04 #@! TO.C,D1*
X38171130Y-51649404D02*
X37171130Y-51649404D01*
X37171130Y-51887500D01*
X37218750Y-52030357D01*
X37313988Y-52125595D01*
X37409226Y-52173214D01*
X37599702Y-52220833D01*
X37742559Y-52220833D01*
X37933035Y-52173214D01*
X38028273Y-52125595D01*
X38123511Y-52030357D01*
X38171130Y-51887500D01*
X38171130Y-51649404D01*
X38171130Y-53173214D02*
X38171130Y-52601785D01*
X38171130Y-52887500D02*
X37171130Y-52887500D01*
X37313988Y-52792261D01*
X37409226Y-52697023D01*
X37456845Y-52601785D01*
G04 #@! TO.C,C7*
X76486086Y-90437115D02*
X76486086Y-90504458D01*
X76553430Y-90639145D01*
X76620774Y-90706489D01*
X76755461Y-90773832D01*
X76890148Y-90773832D01*
X76991163Y-90740161D01*
X77159522Y-90639145D01*
X77260537Y-90538130D01*
X77361552Y-90369771D01*
X77395224Y-90268756D01*
X77395224Y-90134069D01*
X77327880Y-89999382D01*
X77260537Y-89932038D01*
X77125850Y-89864695D01*
X77058506Y-89864695D01*
X76890148Y-89561649D02*
X76418743Y-89090245D01*
X76014682Y-90100397D01*
G04 #@! TO.C,C6*
X82415312Y-96414139D02*
X82415312Y-96481482D01*
X82482656Y-96616169D01*
X82550000Y-96683513D01*
X82684687Y-96750856D01*
X82819374Y-96750856D01*
X82920389Y-96717185D01*
X83088748Y-96616169D01*
X83189763Y-96515154D01*
X83290778Y-96346795D01*
X83324450Y-96245780D01*
X83324450Y-96111093D01*
X83257106Y-95976406D01*
X83189763Y-95909062D01*
X83055076Y-95841719D01*
X82987732Y-95841719D01*
X82448984Y-95168284D02*
X82583671Y-95302971D01*
X82617343Y-95403986D01*
X82617343Y-95471330D01*
X82583671Y-95639688D01*
X82482656Y-95808047D01*
X82213282Y-96077421D01*
X82112267Y-96111093D01*
X82044923Y-96111093D01*
X81943908Y-96077421D01*
X81809221Y-95942734D01*
X81775549Y-95841719D01*
X81775549Y-95774375D01*
X81809221Y-95673360D01*
X81977580Y-95505001D01*
X82078595Y-95471330D01*
X82145938Y-95471330D01*
X82246954Y-95505001D01*
X82381641Y-95639688D01*
X82415312Y-95740704D01*
X82415312Y-95808047D01*
X82381641Y-95909062D01*
G04 #@! TO.C,C5*
X96787115Y-90201413D02*
X96854458Y-90201413D01*
X96989145Y-90134069D01*
X97056489Y-90066726D01*
X97123832Y-89932038D01*
X97123832Y-89797351D01*
X97090161Y-89696336D01*
X96989145Y-89527977D01*
X96888130Y-89426962D01*
X96719771Y-89325947D01*
X96618756Y-89292275D01*
X96484069Y-89292275D01*
X96349382Y-89359619D01*
X96282038Y-89426962D01*
X96214695Y-89561649D01*
X96214695Y-89628993D01*
X95507588Y-90201413D02*
X95844306Y-89864695D01*
X96214695Y-90167741D01*
X96147351Y-90167741D01*
X96046336Y-90201413D01*
X95877977Y-90369771D01*
X95844306Y-90470787D01*
X95844306Y-90538130D01*
X95877977Y-90639145D01*
X96046336Y-90807504D01*
X96147351Y-90841176D01*
X96214695Y-90841176D01*
X96315710Y-90807504D01*
X96484069Y-90639145D01*
X96517741Y-90538130D01*
X96517741Y-90470787D01*
G04 #@! TO.C,C4*
X85841389Y-72016687D02*
X85908732Y-72016687D01*
X86043419Y-71949343D01*
X86110763Y-71882000D01*
X86178106Y-71747312D01*
X86178106Y-71612625D01*
X86144435Y-71511610D01*
X86043419Y-71343251D01*
X85942404Y-71242236D01*
X85774045Y-71141221D01*
X85673030Y-71107549D01*
X85538343Y-71107549D01*
X85403656Y-71174893D01*
X85336312Y-71242236D01*
X85268969Y-71376923D01*
X85268969Y-71444267D01*
X84831236Y-72218717D02*
X85302641Y-72690122D01*
X84730221Y-71780984D02*
X85403656Y-72117702D01*
X84965923Y-72555435D01*
G04 #@! TO.C,C3*
X79494312Y-79491389D02*
X79494312Y-79558732D01*
X79561656Y-79693419D01*
X79629000Y-79760763D01*
X79763687Y-79828106D01*
X79898374Y-79828106D01*
X79999389Y-79794435D01*
X80167748Y-79693419D01*
X80268763Y-79592404D01*
X80369778Y-79424045D01*
X80403450Y-79323030D01*
X80403450Y-79188343D01*
X80336106Y-79053656D01*
X80268763Y-78986312D01*
X80134076Y-78918969D01*
X80066732Y-78918969D01*
X79898374Y-78615923D02*
X79460641Y-78178190D01*
X79426969Y-78683267D01*
X79325954Y-78582251D01*
X79224938Y-78548580D01*
X79157595Y-78548580D01*
X79056580Y-78582251D01*
X78888221Y-78750610D01*
X78854549Y-78851625D01*
X78854549Y-78918969D01*
X78888221Y-79019984D01*
X79090251Y-79222015D01*
X79191267Y-79255687D01*
X79258610Y-79255687D01*
G04 #@! TO.C,C2*
X90064140Y-73032687D02*
X90131483Y-73032687D01*
X90266170Y-72965343D01*
X90333514Y-72898000D01*
X90400857Y-72763312D01*
X90400857Y-72628625D01*
X90367186Y-72527610D01*
X90266170Y-72359251D01*
X90165155Y-72258236D01*
X89996796Y-72157221D01*
X89895781Y-72123549D01*
X89761094Y-72123549D01*
X89626407Y-72190893D01*
X89559063Y-72258236D01*
X89491720Y-72392923D01*
X89491720Y-72460267D01*
X89222346Y-72729641D02*
X89155002Y-72729641D01*
X89053987Y-72763312D01*
X88885628Y-72931671D01*
X88851957Y-73032687D01*
X88851957Y-73100030D01*
X88885628Y-73201045D01*
X88952972Y-73268389D01*
X89087659Y-73335732D01*
X89895781Y-73335732D01*
X89458048Y-73773465D01*
G04 #@! TO.C,C1*
X99417142Y-75349833D02*
X99464761Y-75302214D01*
X99512380Y-75159357D01*
X99512380Y-75064119D01*
X99464761Y-74921261D01*
X99369523Y-74826023D01*
X99274285Y-74778404D01*
X99083809Y-74730785D01*
X98940952Y-74730785D01*
X98750476Y-74778404D01*
X98655238Y-74826023D01*
X98560000Y-74921261D01*
X98512380Y-75064119D01*
X98512380Y-75159357D01*
X98560000Y-75302214D01*
X98607619Y-75349833D01*
X99512380Y-76302214D02*
X99512380Y-75730785D01*
X99512380Y-76016500D02*
X98512380Y-76016500D01*
X98655238Y-75921261D01*
X98750476Y-75826023D01*
X98798095Y-75730785D01*
G04 #@! TD*
%LPC*%
D13*
G04 #@! TO.C,MX49*
X100965000Y-99695000D03*
D14*
X98425000Y-104775000D03*
D13*
X94615000Y-102235000D03*
D15*
X93345000Y-104775000D03*
X103505000Y-104775000D03*
G04 #@! TD*
D16*
G04 #@! TO.C,U1*
G36*
X79995690Y-86131587D02*
G01*
X80455309Y-86591206D01*
X79323938Y-87722577D01*
X78864319Y-87262958D01*
X79995690Y-86131587D01*
G37*
G36*
X80561376Y-86697272D02*
G01*
X81020995Y-87156891D01*
X79889624Y-88288262D01*
X79430005Y-87828643D01*
X80561376Y-86697272D01*
G37*
G36*
X81127061Y-87262957D02*
G01*
X81586680Y-87722576D01*
X80455309Y-88853947D01*
X79995690Y-88394328D01*
X81127061Y-87262957D01*
G37*
G36*
X81692746Y-87828643D02*
G01*
X82152365Y-88288262D01*
X81020994Y-89419633D01*
X80561375Y-88960014D01*
X81692746Y-87828643D01*
G37*
G36*
X82258432Y-88394328D02*
G01*
X82718051Y-88853947D01*
X81586680Y-89985318D01*
X81127061Y-89525699D01*
X82258432Y-88394328D01*
G37*
G36*
X82824117Y-88960014D02*
G01*
X83283736Y-89419633D01*
X82152365Y-90551004D01*
X81692746Y-90091385D01*
X82824117Y-88960014D01*
G37*
G36*
X83389803Y-89525699D02*
G01*
X83849422Y-89985318D01*
X82718051Y-91116689D01*
X82258432Y-90657070D01*
X83389803Y-89525699D01*
G37*
G36*
X83955488Y-90091385D02*
G01*
X84415107Y-90551004D01*
X83283736Y-91682375D01*
X82824117Y-91222756D01*
X83955488Y-90091385D01*
G37*
G36*
X84521174Y-90657070D02*
G01*
X84980793Y-91116689D01*
X83849422Y-92248060D01*
X83389803Y-91788441D01*
X84521174Y-90657070D01*
G37*
G36*
X85086859Y-91222755D02*
G01*
X85546478Y-91682374D01*
X84415107Y-92813745D01*
X83955488Y-92354126D01*
X85086859Y-91222755D01*
G37*
G36*
X85652544Y-91788441D02*
G01*
X86112163Y-92248060D01*
X84980792Y-93379431D01*
X84521173Y-92919812D01*
X85652544Y-91788441D01*
G37*
G36*
X86925337Y-92248060D02*
G01*
X87384956Y-91788441D01*
X88516327Y-92919812D01*
X88056708Y-93379431D01*
X86925337Y-92248060D01*
G37*
G36*
X87491022Y-91682374D02*
G01*
X87950641Y-91222755D01*
X89082012Y-92354126D01*
X88622393Y-92813745D01*
X87491022Y-91682374D01*
G37*
G36*
X88056707Y-91116689D02*
G01*
X88516326Y-90657070D01*
X89647697Y-91788441D01*
X89188078Y-92248060D01*
X88056707Y-91116689D01*
G37*
G36*
X88622393Y-90551004D02*
G01*
X89082012Y-90091385D01*
X90213383Y-91222756D01*
X89753764Y-91682375D01*
X88622393Y-90551004D01*
G37*
G36*
X89188078Y-89985318D02*
G01*
X89647697Y-89525699D01*
X90779068Y-90657070D01*
X90319449Y-91116689D01*
X89188078Y-89985318D01*
G37*
G36*
X89753764Y-89419633D02*
G01*
X90213383Y-88960014D01*
X91344754Y-90091385D01*
X90885135Y-90551004D01*
X89753764Y-89419633D01*
G37*
G36*
X90319449Y-88853947D02*
G01*
X90779068Y-88394328D01*
X91910439Y-89525699D01*
X91450820Y-89985318D01*
X90319449Y-88853947D01*
G37*
G36*
X90885135Y-88288262D02*
G01*
X91344754Y-87828643D01*
X92476125Y-88960014D01*
X92016506Y-89419633D01*
X90885135Y-88288262D01*
G37*
G36*
X91450820Y-87722576D02*
G01*
X91910439Y-87262957D01*
X93041810Y-88394328D01*
X92582191Y-88853947D01*
X91450820Y-87722576D01*
G37*
G36*
X92016505Y-87156891D02*
G01*
X92476124Y-86697272D01*
X93607495Y-87828643D01*
X93147876Y-88288262D01*
X92016505Y-87156891D01*
G37*
G36*
X92582191Y-86591206D02*
G01*
X93041810Y-86131587D01*
X94173181Y-87262958D01*
X93713562Y-87722577D01*
X92582191Y-86591206D01*
G37*
G36*
X93713562Y-83727423D02*
G01*
X94173181Y-84187042D01*
X93041810Y-85318413D01*
X92582191Y-84858794D01*
X93713562Y-83727423D01*
G37*
G36*
X93147876Y-83161738D02*
G01*
X93607495Y-83621357D01*
X92476124Y-84752728D01*
X92016505Y-84293109D01*
X93147876Y-83161738D01*
G37*
G36*
X92582191Y-82596053D02*
G01*
X93041810Y-83055672D01*
X91910439Y-84187043D01*
X91450820Y-83727424D01*
X92582191Y-82596053D01*
G37*
G36*
X92016506Y-82030367D02*
G01*
X92476125Y-82489986D01*
X91344754Y-83621357D01*
X90885135Y-83161738D01*
X92016506Y-82030367D01*
G37*
G36*
X91450820Y-81464682D02*
G01*
X91910439Y-81924301D01*
X90779068Y-83055672D01*
X90319449Y-82596053D01*
X91450820Y-81464682D01*
G37*
G36*
X90885135Y-80898996D02*
G01*
X91344754Y-81358615D01*
X90213383Y-82489986D01*
X89753764Y-82030367D01*
X90885135Y-80898996D01*
G37*
G36*
X90319449Y-80333311D02*
G01*
X90779068Y-80792930D01*
X89647697Y-81924301D01*
X89188078Y-81464682D01*
X90319449Y-80333311D01*
G37*
G36*
X89753764Y-79767625D02*
G01*
X90213383Y-80227244D01*
X89082012Y-81358615D01*
X88622393Y-80898996D01*
X89753764Y-79767625D01*
G37*
G36*
X89188078Y-79201940D02*
G01*
X89647697Y-79661559D01*
X88516326Y-80792930D01*
X88056707Y-80333311D01*
X89188078Y-79201940D01*
G37*
G36*
X88622393Y-78636255D02*
G01*
X89082012Y-79095874D01*
X87950641Y-80227245D01*
X87491022Y-79767626D01*
X88622393Y-78636255D01*
G37*
G36*
X88056708Y-78070569D02*
G01*
X88516327Y-78530188D01*
X87384956Y-79661559D01*
X86925337Y-79201940D01*
X88056708Y-78070569D01*
G37*
G36*
X84521173Y-78530188D02*
G01*
X84980792Y-78070569D01*
X86112163Y-79201940D01*
X85652544Y-79661559D01*
X84521173Y-78530188D01*
G37*
G36*
X83955488Y-79095874D02*
G01*
X84415107Y-78636255D01*
X85546478Y-79767626D01*
X85086859Y-80227245D01*
X83955488Y-79095874D01*
G37*
G36*
X83389803Y-79661559D02*
G01*
X83849422Y-79201940D01*
X84980793Y-80333311D01*
X84521174Y-80792930D01*
X83389803Y-79661559D01*
G37*
G36*
X82824117Y-80227244D02*
G01*
X83283736Y-79767625D01*
X84415107Y-80898996D01*
X83955488Y-81358615D01*
X82824117Y-80227244D01*
G37*
G36*
X82258432Y-80792930D02*
G01*
X82718051Y-80333311D01*
X83849422Y-81464682D01*
X83389803Y-81924301D01*
X82258432Y-80792930D01*
G37*
G36*
X81692746Y-81358615D02*
G01*
X82152365Y-80898996D01*
X83283736Y-82030367D01*
X82824117Y-82489986D01*
X81692746Y-81358615D01*
G37*
G36*
X81127061Y-81924301D02*
G01*
X81586680Y-81464682D01*
X82718051Y-82596053D01*
X82258432Y-83055672D01*
X81127061Y-81924301D01*
G37*
G36*
X80561375Y-82489986D02*
G01*
X81020994Y-82030367D01*
X82152365Y-83161738D01*
X81692746Y-83621357D01*
X80561375Y-82489986D01*
G37*
G36*
X79995690Y-83055672D02*
G01*
X80455309Y-82596053D01*
X81586680Y-83727424D01*
X81127061Y-84187043D01*
X79995690Y-83055672D01*
G37*
G36*
X79430005Y-83621357D02*
G01*
X79889624Y-83161738D01*
X81020995Y-84293109D01*
X80561376Y-84752728D01*
X79430005Y-83621357D01*
G37*
G36*
X78864319Y-84187042D02*
G01*
X79323938Y-83727423D01*
X80455309Y-84858794D01*
X79995690Y-85318413D01*
X78864319Y-84187042D01*
G37*
G04 #@! TD*
D13*
G04 #@! TO.C,MX31*
X34290000Y-80645000D03*
D14*
X31750000Y-85725000D03*
D13*
X27940000Y-83185000D03*
D15*
X26670000Y-85725000D03*
X36830000Y-85725000D03*
G04 #@! TD*
D13*
G04 #@! TO.C,MX4*
X100965000Y-42545000D03*
D14*
X98425000Y-47625000D03*
D13*
X94615000Y-45085000D03*
D15*
X93345000Y-47625000D03*
X103505000Y-47625000D03*
G04 #@! TD*
D13*
G04 #@! TO.C,MX16*
X34290000Y-61595000D03*
D14*
X31750000Y-66675000D03*
D13*
X27940000Y-64135000D03*
D15*
X26670000Y-66675000D03*
X36830000Y-66675000D03*
G04 #@! TD*
D13*
G04 #@! TO.C,MX15*
X315277500Y-42545000D03*
D14*
X312737500Y-47625000D03*
D13*
X308927500Y-45085000D03*
D15*
X307657500Y-47625000D03*
X317817500Y-47625000D03*
G04 #@! TD*
D13*
G04 #@! TO.C,MX5*
X120015000Y-42545000D03*
D14*
X117475000Y-47625000D03*
D13*
X113665000Y-45085000D03*
D15*
X112395000Y-47625000D03*
X122555000Y-47625000D03*
G04 #@! TD*
D13*
G04 #@! TO.C,MX46*
X34290000Y-99695000D03*
D14*
X31750000Y-104775000D03*
D13*
X27940000Y-102235000D03*
D15*
X26670000Y-104775000D03*
X36830000Y-104775000D03*
G04 #@! TD*
D13*
G04 #@! TO.C,MX47*
X53340000Y-99695000D03*
D14*
X50800000Y-104775000D03*
D13*
X46990000Y-102235000D03*
D15*
X45720000Y-104775000D03*
X55880000Y-104775000D03*
G04 #@! TD*
D13*
G04 #@! TO.C,MX48*
X72390000Y-99695000D03*
D14*
X69850000Y-104775000D03*
D13*
X66040000Y-102235000D03*
D15*
X64770000Y-104775000D03*
X74930000Y-104775000D03*
G04 #@! TD*
D13*
G04 #@! TO.C,MX54*
X210502500Y-99695000D03*
D14*
X207962500Y-104775000D03*
D13*
X204152500Y-102235000D03*
D15*
X202882500Y-104775000D03*
X213042500Y-104775000D03*
D17*
X196056250Y-97790000D03*
X219868750Y-97790000D03*
D14*
X196056250Y-113030000D03*
X219868750Y-113030000D03*
G04 #@! TD*
D13*
G04 #@! TO.C,MX32*
X53340000Y-80645000D03*
D14*
X50800000Y-85725000D03*
D13*
X46990000Y-83185000D03*
D15*
X45720000Y-85725000D03*
X55880000Y-85725000D03*
G04 #@! TD*
D13*
G04 #@! TO.C,MX2*
X53340000Y-42545000D03*
D14*
X50800000Y-47625000D03*
D13*
X46990000Y-45085000D03*
D15*
X45720000Y-47625000D03*
X55880000Y-47625000D03*
G04 #@! TD*
D13*
G04 #@! TO.C,MX38*
X186690000Y-80645000D03*
D14*
X184150000Y-85725000D03*
D13*
X180340000Y-83185000D03*
D15*
X179070000Y-85725000D03*
X189230000Y-85725000D03*
G04 #@! TD*
D13*
G04 #@! TO.C,MX10*
X215265000Y-42545000D03*
D14*
X212725000Y-47625000D03*
D13*
X208915000Y-45085000D03*
D15*
X207645000Y-47625000D03*
X217805000Y-47625000D03*
G04 #@! TD*
D13*
G04 #@! TO.C,MX8*
X177165000Y-42545000D03*
D14*
X174625000Y-47625000D03*
D13*
X170815000Y-45085000D03*
D15*
X169545000Y-47625000D03*
X179705000Y-47625000D03*
G04 #@! TD*
D13*
G04 #@! TO.C,MX6*
X139065000Y-42545000D03*
D14*
X136525000Y-47625000D03*
D13*
X132715000Y-45085000D03*
D15*
X131445000Y-47625000D03*
X141605000Y-47625000D03*
G04 #@! TD*
D13*
G04 #@! TO.C,MX19*
X103346250Y-61595000D03*
D14*
X100806250Y-66675000D03*
D13*
X96996250Y-64135000D03*
D15*
X95726250Y-66675000D03*
X105886250Y-66675000D03*
G04 #@! TD*
D13*
G04 #@! TO.C,MX45*
X320040000Y-80645000D03*
D14*
X317500000Y-85725000D03*
D13*
X313690000Y-83185000D03*
D15*
X312420000Y-85725000D03*
X322580000Y-85725000D03*
G04 #@! TD*
D13*
G04 #@! TO.C,MX27*
X258127500Y-61595000D03*
D14*
X255587500Y-66675000D03*
D13*
X251777500Y-64135000D03*
D15*
X250507500Y-66675000D03*
X260667500Y-66675000D03*
G04 #@! TD*
D13*
G04 #@! TO.C,MX14*
X291465000Y-42545000D03*
D14*
X288925000Y-47625000D03*
D13*
X285115000Y-45085000D03*
D15*
X283845000Y-47625000D03*
X294005000Y-47625000D03*
G04 #@! TD*
D13*
G04 #@! TO.C,MX12*
X253365000Y-42545000D03*
D14*
X250825000Y-47625000D03*
D13*
X247015000Y-45085000D03*
D15*
X245745000Y-47625000D03*
X255905000Y-47625000D03*
G04 #@! TD*
D13*
G04 #@! TO.C,MX26*
X239077500Y-61595000D03*
D14*
X236537500Y-66675000D03*
D13*
X232727500Y-64135000D03*
D15*
X231457500Y-66675000D03*
X241617500Y-66675000D03*
G04 #@! TD*
D13*
G04 #@! TO.C,MX41*
X243840000Y-80645000D03*
D14*
X241300000Y-85725000D03*
D13*
X237490000Y-83185000D03*
D15*
X236220000Y-85725000D03*
X246380000Y-85725000D03*
G04 #@! TD*
D13*
G04 #@! TO.C,MX23*
X181927500Y-61595000D03*
D14*
X179387500Y-66675000D03*
D13*
X175577500Y-64135000D03*
D15*
X174307500Y-66675000D03*
X184467500Y-66675000D03*
G04 #@! TD*
D13*
G04 #@! TO.C,MX22*
X162877500Y-61595000D03*
D14*
X160337500Y-66675000D03*
D13*
X156527500Y-64135000D03*
D15*
X155257500Y-66675000D03*
X165417500Y-66675000D03*
G04 #@! TD*
D13*
G04 #@! TO.C,MX36*
X148590000Y-80645000D03*
D14*
X146050000Y-85725000D03*
D13*
X142240000Y-83185000D03*
D15*
X140970000Y-85725000D03*
X151130000Y-85725000D03*
G04 #@! TD*
D13*
G04 #@! TO.C,MX58*
X300990000Y-99695000D03*
D14*
X298450000Y-104775000D03*
D13*
X294640000Y-102235000D03*
D15*
X293370000Y-104775000D03*
X303530000Y-104775000D03*
G04 #@! TD*
D13*
G04 #@! TO.C,MX56*
X262890000Y-99695000D03*
D14*
X260350000Y-104775000D03*
D13*
X256540000Y-102235000D03*
D15*
X255270000Y-104775000D03*
X265430000Y-104775000D03*
G04 #@! TD*
D13*
G04 #@! TO.C,MX55*
X241458750Y-99695000D03*
D14*
X238918750Y-104775000D03*
D13*
X235108750Y-102235000D03*
D15*
X233838750Y-104775000D03*
X243998750Y-104775000D03*
G04 #@! TD*
D13*
G04 #@! TO.C,MX40*
X224790000Y-80645000D03*
D14*
X222250000Y-85725000D03*
D13*
X218440000Y-83185000D03*
D15*
X217170000Y-85725000D03*
X227330000Y-85725000D03*
G04 #@! TD*
D13*
G04 #@! TO.C,MX59*
X320040000Y-99695000D03*
D14*
X317500000Y-104775000D03*
D13*
X313690000Y-102235000D03*
D15*
X312420000Y-104775000D03*
X322580000Y-104775000D03*
G04 #@! TD*
D13*
G04 #@! TO.C,MX57*
X281940000Y-99695000D03*
D14*
X279400000Y-104775000D03*
D13*
X275590000Y-102235000D03*
D15*
X274320000Y-104775000D03*
X284480000Y-104775000D03*
G04 #@! TD*
D13*
G04 #@! TO.C,MX53*
X179546250Y-99695000D03*
D14*
X177006250Y-104775000D03*
D13*
X173196250Y-102235000D03*
D15*
X171926250Y-104775000D03*
X182086250Y-104775000D03*
G04 #@! TD*
D13*
G04 #@! TO.C,MX52*
X158115000Y-99695000D03*
D14*
X155575000Y-104775000D03*
D13*
X151765000Y-102235000D03*
D15*
X150495000Y-104775000D03*
X160655000Y-104775000D03*
G04 #@! TD*
D13*
G04 #@! TO.C,MX51*
X139065000Y-99695000D03*
D14*
X136525000Y-104775000D03*
D13*
X132715000Y-102235000D03*
D15*
X131445000Y-104775000D03*
X141605000Y-104775000D03*
G04 #@! TD*
D13*
G04 #@! TO.C,MX50*
X120015000Y-99695000D03*
D14*
X117475000Y-104775000D03*
D13*
X113665000Y-102235000D03*
D15*
X112395000Y-104775000D03*
X122555000Y-104775000D03*
G04 #@! TD*
D13*
G04 #@! TO.C,MX44*
X300990000Y-80645000D03*
D14*
X298450000Y-85725000D03*
D13*
X294640000Y-83185000D03*
D15*
X293370000Y-85725000D03*
X303530000Y-85725000D03*
G04 #@! TD*
D13*
G04 #@! TO.C,MX43*
X281940000Y-80645000D03*
D14*
X279400000Y-85725000D03*
D13*
X275590000Y-83185000D03*
D15*
X274320000Y-85725000D03*
X284480000Y-85725000D03*
G04 #@! TD*
D13*
G04 #@! TO.C,MX42*
X262890000Y-80645000D03*
D14*
X260350000Y-85725000D03*
D13*
X256540000Y-83185000D03*
D15*
X255270000Y-85725000D03*
X265430000Y-85725000D03*
G04 #@! TD*
D13*
G04 #@! TO.C,MX39*
X205740000Y-80645000D03*
D14*
X203200000Y-85725000D03*
D13*
X199390000Y-83185000D03*
D15*
X198120000Y-85725000D03*
X208280000Y-85725000D03*
G04 #@! TD*
D13*
G04 #@! TO.C,MX37*
X167640000Y-80645000D03*
D14*
X165100000Y-85725000D03*
D13*
X161290000Y-83185000D03*
D15*
X160020000Y-85725000D03*
X170180000Y-85725000D03*
G04 #@! TD*
D13*
G04 #@! TO.C,MX35*
X129540000Y-80645000D03*
D14*
X127000000Y-85725000D03*
D13*
X123190000Y-83185000D03*
D15*
X121920000Y-85725000D03*
X132080000Y-85725000D03*
G04 #@! TD*
D13*
G04 #@! TO.C,MX34*
X105727500Y-80645000D03*
D14*
X103187500Y-85725000D03*
D13*
X99377500Y-83185000D03*
D15*
X98107500Y-85725000D03*
X108267500Y-85725000D03*
G04 #@! TD*
D13*
G04 #@! TO.C,MX33*
X72390000Y-80645000D03*
D14*
X69850000Y-85725000D03*
D13*
X66040000Y-83185000D03*
D15*
X64770000Y-85725000D03*
X74930000Y-85725000D03*
G04 #@! TD*
D13*
G04 #@! TO.C,MX30*
X317658750Y-61595000D03*
D14*
X315118750Y-66675000D03*
D13*
X311308750Y-64135000D03*
D15*
X310038750Y-66675000D03*
X320198750Y-66675000D03*
G04 #@! TD*
D13*
G04 #@! TO.C,MX29*
X296227500Y-61595000D03*
D14*
X293687500Y-66675000D03*
D13*
X289877500Y-64135000D03*
D15*
X288607500Y-66675000D03*
X298767500Y-66675000D03*
G04 #@! TD*
D13*
G04 #@! TO.C,MX28*
X277177500Y-61595000D03*
D14*
X274637500Y-66675000D03*
D13*
X270827500Y-64135000D03*
D15*
X269557500Y-66675000D03*
X279717500Y-66675000D03*
G04 #@! TD*
D13*
G04 #@! TO.C,MX25*
X220027500Y-61595000D03*
D14*
X217487500Y-66675000D03*
D13*
X213677500Y-64135000D03*
D15*
X212407500Y-66675000D03*
X222567500Y-66675000D03*
G04 #@! TD*
D13*
G04 #@! TO.C,MX24*
X200977500Y-61595000D03*
D14*
X198437500Y-66675000D03*
D13*
X194627500Y-64135000D03*
D15*
X193357500Y-66675000D03*
X203517500Y-66675000D03*
G04 #@! TD*
D13*
G04 #@! TO.C,MX21*
X143827500Y-61595000D03*
D14*
X141287500Y-66675000D03*
D13*
X137477500Y-64135000D03*
D15*
X136207500Y-66675000D03*
X146367500Y-66675000D03*
G04 #@! TD*
D13*
G04 #@! TO.C,MX20*
X124777500Y-61595000D03*
D14*
X122237500Y-66675000D03*
D13*
X118427500Y-64135000D03*
D15*
X117157500Y-66675000D03*
X127317500Y-66675000D03*
G04 #@! TD*
D13*
G04 #@! TO.C,MX18*
X72390000Y-61595000D03*
D14*
X69850000Y-66675000D03*
D13*
X66040000Y-64135000D03*
D15*
X64770000Y-66675000D03*
X74930000Y-66675000D03*
G04 #@! TD*
D13*
G04 #@! TO.C,MX17*
X53340000Y-61595000D03*
D14*
X50800000Y-66675000D03*
D13*
X46990000Y-64135000D03*
D15*
X45720000Y-66675000D03*
X55880000Y-66675000D03*
G04 #@! TD*
D13*
G04 #@! TO.C,MX13*
X272415000Y-42545000D03*
D14*
X269875000Y-47625000D03*
D13*
X266065000Y-45085000D03*
D15*
X264795000Y-47625000D03*
X274955000Y-47625000D03*
G04 #@! TD*
D13*
G04 #@! TO.C,MX11*
X234315000Y-42545000D03*
D14*
X231775000Y-47625000D03*
D13*
X227965000Y-45085000D03*
D15*
X226695000Y-47625000D03*
X236855000Y-47625000D03*
G04 #@! TD*
D13*
G04 #@! TO.C,MX9*
X196215000Y-42545000D03*
D14*
X193675000Y-47625000D03*
D13*
X189865000Y-45085000D03*
D15*
X188595000Y-47625000D03*
X198755000Y-47625000D03*
G04 #@! TD*
D13*
G04 #@! TO.C,MX7*
X158115000Y-42545000D03*
D14*
X155575000Y-47625000D03*
D13*
X151765000Y-45085000D03*
D15*
X150495000Y-47625000D03*
X160655000Y-47625000D03*
G04 #@! TD*
D13*
G04 #@! TO.C,MX3*
X72390000Y-42545000D03*
D14*
X69850000Y-47625000D03*
D13*
X66040000Y-45085000D03*
D15*
X64770000Y-47625000D03*
X74930000Y-47625000D03*
G04 #@! TD*
D13*
G04 #@! TO.C,MX1*
X34290000Y-42545000D03*
D14*
X31750000Y-47625000D03*
D13*
X27940000Y-45085000D03*
D15*
X26670000Y-47625000D03*
X36830000Y-47625000D03*
G04 #@! TD*
D18*
G04 #@! TO.C,SW1*
X93928000Y-57387000D03*
X100128000Y-61087000D03*
X93928000Y-61087000D03*
X100128000Y-57387000D03*
G04 #@! TD*
D19*
G04 #@! TO.C,USB1*
X87362500Y-44207500D03*
X80912500Y-44207500D03*
X86587500Y-44207500D03*
X81687500Y-44207500D03*
D20*
X82387500Y-44207500D03*
X85887500Y-44207500D03*
X82887500Y-44207500D03*
X85387500Y-44207500D03*
X83387500Y-44207500D03*
X84887500Y-44207500D03*
X84387500Y-44207500D03*
X83887500Y-44207500D03*
D21*
X87027500Y-42762500D03*
X81247500Y-42762500D03*
G04 #@! TD*
D22*
G04 #@! TO.C,Y1*
X94953000Y-75604000D03*
X92753000Y-75604000D03*
X92753000Y-77304000D03*
X94953000Y-77304000D03*
G04 #@! TD*
D23*
G04 #@! TO.C,U2*
X84137500Y-52535000D03*
X83187500Y-52535000D03*
X85087500Y-52535000D03*
X85087500Y-50335000D03*
X84137500Y-50335000D03*
X83187500Y-50335000D03*
G04 #@! TD*
G04 #@! TO.C,R6*
G36*
G01*
X90175000Y-53575000D02*
X89212500Y-53575000D01*
G75*
G02*
X88943750Y-53306250I0J268750D01*
G01*
X88943750Y-52768750D01*
G75*
G02*
X89212500Y-52500000I268750J0D01*
G01*
X90175000Y-52500000D01*
G75*
G02*
X90443750Y-52768750I0J-268750D01*
G01*
X90443750Y-53306250D01*
G75*
G02*
X90175000Y-53575000I-268750J0D01*
G01*
G37*
G36*
G01*
X90175000Y-55450000D02*
X89212500Y-55450000D01*
G75*
G02*
X88943750Y-55181250I0J268750D01*
G01*
X88943750Y-54643750D01*
G75*
G02*
X89212500Y-54375000I268750J0D01*
G01*
X90175000Y-54375000D01*
G75*
G02*
X90443750Y-54643750I0J-268750D01*
G01*
X90443750Y-55181250D01*
G75*
G02*
X90175000Y-55450000I-268750J0D01*
G01*
G37*
G04 #@! TD*
G04 #@! TO.C,R5*
G36*
G01*
X79062500Y-53575000D02*
X78100000Y-53575000D01*
G75*
G02*
X77831250Y-53306250I0J268750D01*
G01*
X77831250Y-52768750D01*
G75*
G02*
X78100000Y-52500000I268750J0D01*
G01*
X79062500Y-52500000D01*
G75*
G02*
X79331250Y-52768750I0J-268750D01*
G01*
X79331250Y-53306250D01*
G75*
G02*
X79062500Y-53575000I-268750J0D01*
G01*
G37*
G36*
G01*
X79062500Y-55450000D02*
X78100000Y-55450000D01*
G75*
G02*
X77831250Y-55181250I0J268750D01*
G01*
X77831250Y-54643750D01*
G75*
G02*
X78100000Y-54375000I268750J0D01*
G01*
X79062500Y-54375000D01*
G75*
G02*
X79331250Y-54643750I0J-268750D01*
G01*
X79331250Y-55181250D01*
G75*
G02*
X79062500Y-55450000I-268750J0D01*
G01*
G37*
G04 #@! TD*
G04 #@! TO.C,R4*
G36*
G01*
X89523138Y-95307452D02*
X88842548Y-94626862D01*
G75*
G02*
X88842548Y-94246792I190035J190035D01*
G01*
X89222618Y-93866722D01*
G75*
G02*
X89602688Y-93866722I190035J-190035D01*
G01*
X90283278Y-94547312D01*
G75*
G02*
X90283278Y-94927382I-190035J-190035D01*
G01*
X89903208Y-95307452D01*
G75*
G02*
X89523138Y-95307452I-190035J190035D01*
G01*
G37*
G36*
G01*
X88197312Y-96633278D02*
X87516722Y-95952688D01*
G75*
G02*
X87516722Y-95572618I190035J190035D01*
G01*
X87896792Y-95192548D01*
G75*
G02*
X88276862Y-95192548I190035J-190035D01*
G01*
X88957452Y-95873138D01*
G75*
G02*
X88957452Y-96253208I-190035J-190035D01*
G01*
X88577382Y-96633278D01*
G75*
G02*
X88197312Y-96633278I-190035J190035D01*
G01*
G37*
G04 #@! TD*
G04 #@! TO.C,R3*
G36*
G01*
X81443750Y-53575000D02*
X80481250Y-53575000D01*
G75*
G02*
X80212500Y-53306250I0J268750D01*
G01*
X80212500Y-52768750D01*
G75*
G02*
X80481250Y-52500000I268750J0D01*
G01*
X81443750Y-52500000D01*
G75*
G02*
X81712500Y-52768750I0J-268750D01*
G01*
X81712500Y-53306250D01*
G75*
G02*
X81443750Y-53575000I-268750J0D01*
G01*
G37*
G36*
G01*
X81443750Y-55450000D02*
X80481250Y-55450000D01*
G75*
G02*
X80212500Y-55181250I0J268750D01*
G01*
X80212500Y-54643750D01*
G75*
G02*
X80481250Y-54375000I268750J0D01*
G01*
X81443750Y-54375000D01*
G75*
G02*
X81712500Y-54643750I0J-268750D01*
G01*
X81712500Y-55181250D01*
G75*
G02*
X81443750Y-55450000I-268750J0D01*
G01*
G37*
G04 #@! TD*
G04 #@! TO.C,R2*
G36*
G01*
X87793750Y-53575000D02*
X86831250Y-53575000D01*
G75*
G02*
X86562500Y-53306250I0J268750D01*
G01*
X86562500Y-52768750D01*
G75*
G02*
X86831250Y-52500000I268750J0D01*
G01*
X87793750Y-52500000D01*
G75*
G02*
X88062500Y-52768750I0J-268750D01*
G01*
X88062500Y-53306250D01*
G75*
G02*
X87793750Y-53575000I-268750J0D01*
G01*
G37*
G36*
G01*
X87793750Y-55450000D02*
X86831250Y-55450000D01*
G75*
G02*
X86562500Y-55181250I0J268750D01*
G01*
X86562500Y-54643750D01*
G75*
G02*
X86831250Y-54375000I268750J0D01*
G01*
X87793750Y-54375000D01*
G75*
G02*
X88062500Y-54643750I0J-268750D01*
G01*
X88062500Y-55181250D01*
G75*
G02*
X87793750Y-55450000I-268750J0D01*
G01*
G37*
G04 #@! TD*
G04 #@! TO.C,R1*
G36*
G01*
X84169601Y-74685885D02*
X84850191Y-75366475D01*
G75*
G02*
X84850191Y-75746545I-190035J-190035D01*
G01*
X84470121Y-76126615D01*
G75*
G02*
X84090051Y-76126615I-190035J190035D01*
G01*
X83409461Y-75446025D01*
G75*
G02*
X83409461Y-75065955I190035J190035D01*
G01*
X83789531Y-74685885D01*
G75*
G02*
X84169601Y-74685885I190035J-190035D01*
G01*
G37*
G36*
G01*
X82843775Y-76011711D02*
X83524365Y-76692301D01*
G75*
G02*
X83524365Y-77072371I-190035J-190035D01*
G01*
X83144295Y-77452441D01*
G75*
G02*
X82764225Y-77452441I-190035J190035D01*
G01*
X82083635Y-76771851D01*
G75*
G02*
X82083635Y-76391781I190035J190035D01*
G01*
X82463705Y-76011711D01*
G75*
G02*
X82843775Y-76011711I190035J-190035D01*
G01*
G37*
G04 #@! TD*
G04 #@! TO.C,F1*
G36*
G01*
X77681000Y-58948000D02*
X77681000Y-57638000D01*
G75*
G02*
X77951000Y-57368000I270000J0D01*
G01*
X78761000Y-57368000D01*
G75*
G02*
X79031000Y-57638000I0J-270000D01*
G01*
X79031000Y-58948000D01*
G75*
G02*
X78761000Y-59218000I-270000J0D01*
G01*
X77951000Y-59218000D01*
G75*
G02*
X77681000Y-58948000I0J270000D01*
G01*
G37*
G36*
G01*
X80481000Y-58948000D02*
X80481000Y-57638000D01*
G75*
G02*
X80751000Y-57368000I270000J0D01*
G01*
X81561000Y-57368000D01*
G75*
G02*
X81831000Y-57638000I0J-270000D01*
G01*
X81831000Y-58948000D01*
G75*
G02*
X81561000Y-59218000I-270000J0D01*
G01*
X80751000Y-59218000D01*
G75*
G02*
X80481000Y-58948000I0J270000D01*
G01*
G37*
G04 #@! TD*
D24*
G04 #@! TO.C,D59*
X321468750Y-107887500D03*
X321468750Y-111187500D03*
G04 #@! TD*
G04 #@! TO.C,D58*
X302418750Y-107887500D03*
X302418750Y-111187500D03*
G04 #@! TD*
G04 #@! TO.C,D57*
X283368750Y-107887500D03*
X283368750Y-111187500D03*
G04 #@! TD*
G04 #@! TO.C,D56*
X264318750Y-107887500D03*
X264318750Y-111187500D03*
G04 #@! TD*
G04 #@! TO.C,D55*
X242887500Y-107887500D03*
X242887500Y-111187500D03*
G04 #@! TD*
G04 #@! TO.C,D54*
X211931250Y-107887500D03*
X211931250Y-111187500D03*
G04 #@! TD*
G04 #@! TO.C,D53*
X180975000Y-107887500D03*
X180975000Y-111187500D03*
G04 #@! TD*
G04 #@! TO.C,D52*
X159543750Y-107887500D03*
X159543750Y-111187500D03*
G04 #@! TD*
G04 #@! TO.C,D51*
X140493750Y-107887500D03*
X140493750Y-111187500D03*
G04 #@! TD*
G04 #@! TO.C,D50*
X121443750Y-107887500D03*
X121443750Y-111187500D03*
G04 #@! TD*
G04 #@! TO.C,D49*
X102393750Y-107887500D03*
X102393750Y-111187500D03*
G04 #@! TD*
G04 #@! TO.C,D48*
X73818750Y-107887500D03*
X73818750Y-111187500D03*
G04 #@! TD*
G04 #@! TO.C,D47*
X54768750Y-107887500D03*
X54768750Y-111187500D03*
G04 #@! TD*
G04 #@! TO.C,D46*
X35718750Y-107887500D03*
X35718750Y-111187500D03*
G04 #@! TD*
G04 #@! TO.C,D45*
X321468750Y-88837500D03*
X321468750Y-92137500D03*
G04 #@! TD*
G04 #@! TO.C,D44*
X302418750Y-88837500D03*
X302418750Y-92137500D03*
G04 #@! TD*
G04 #@! TO.C,D43*
X283368750Y-88837500D03*
X283368750Y-92137500D03*
G04 #@! TD*
G04 #@! TO.C,D42*
X264318750Y-88837500D03*
X264318750Y-92137500D03*
G04 #@! TD*
G04 #@! TO.C,D41*
X245268750Y-88837500D03*
X245268750Y-92137500D03*
G04 #@! TD*
G04 #@! TO.C,D40*
X226218750Y-88837500D03*
X226218750Y-92137500D03*
G04 #@! TD*
G04 #@! TO.C,D39*
X207168750Y-88837500D03*
X207168750Y-92137500D03*
G04 #@! TD*
G04 #@! TO.C,D38*
X188118750Y-88837500D03*
X188118750Y-92137500D03*
G04 #@! TD*
G04 #@! TO.C,D37*
X169068750Y-88837500D03*
X169068750Y-92137500D03*
G04 #@! TD*
G04 #@! TO.C,D36*
X150018750Y-88837500D03*
X150018750Y-92137500D03*
G04 #@! TD*
G04 #@! TO.C,D35*
X130968750Y-88837500D03*
X130968750Y-92137500D03*
G04 #@! TD*
G04 #@! TO.C,D34*
X107156250Y-88837500D03*
X107156250Y-92137500D03*
G04 #@! TD*
G04 #@! TO.C,D33*
X73818750Y-88837500D03*
X73818750Y-92137500D03*
G04 #@! TD*
G04 #@! TO.C,D32*
X54768750Y-88837500D03*
X54768750Y-92137500D03*
G04 #@! TD*
G04 #@! TO.C,D31*
X35718750Y-88837500D03*
X35718750Y-92137500D03*
G04 #@! TD*
G04 #@! TO.C,D30*
X319087500Y-69787500D03*
X319087500Y-73087500D03*
G04 #@! TD*
G04 #@! TO.C,D29*
X297656250Y-69787500D03*
X297656250Y-73087500D03*
G04 #@! TD*
G04 #@! TO.C,D28*
X278606250Y-69787500D03*
X278606250Y-73087500D03*
G04 #@! TD*
G04 #@! TO.C,D27*
X259556250Y-69787500D03*
X259556250Y-73087500D03*
G04 #@! TD*
G04 #@! TO.C,D26*
X240506250Y-69787500D03*
X240506250Y-73087500D03*
G04 #@! TD*
G04 #@! TO.C,D25*
X221456250Y-69787500D03*
X221456250Y-73087500D03*
G04 #@! TD*
G04 #@! TO.C,D24*
X202406250Y-69787500D03*
X202406250Y-73087500D03*
G04 #@! TD*
G04 #@! TO.C,D23*
X183356250Y-69787500D03*
X183356250Y-73087500D03*
G04 #@! TD*
G04 #@! TO.C,D22*
X164306250Y-69787500D03*
X164306250Y-73087500D03*
G04 #@! TD*
G04 #@! TO.C,D21*
X145256250Y-69787500D03*
X145256250Y-73087500D03*
G04 #@! TD*
G04 #@! TO.C,D20*
X126206250Y-69787500D03*
X126206250Y-73087500D03*
G04 #@! TD*
G04 #@! TO.C,D19*
X104775000Y-69787500D03*
X104775000Y-73087500D03*
G04 #@! TD*
G04 #@! TO.C,D18*
X73818750Y-69787500D03*
X73818750Y-73087500D03*
G04 #@! TD*
G04 #@! TO.C,D17*
X54768750Y-69787500D03*
X54768750Y-73087500D03*
G04 #@! TD*
G04 #@! TO.C,D16*
X35718750Y-69787500D03*
X35718750Y-73087500D03*
G04 #@! TD*
G04 #@! TO.C,D15*
X316706250Y-50737500D03*
X316706250Y-54037500D03*
G04 #@! TD*
G04 #@! TO.C,D14*
X292893750Y-50737500D03*
X292893750Y-54037500D03*
G04 #@! TD*
G04 #@! TO.C,D13*
X273843750Y-50737500D03*
X273843750Y-54037500D03*
G04 #@! TD*
G04 #@! TO.C,D12*
X254793750Y-50737500D03*
X254793750Y-54037500D03*
G04 #@! TD*
G04 #@! TO.C,D11*
X235743750Y-50737500D03*
X235743750Y-54037500D03*
G04 #@! TD*
G04 #@! TO.C,D10*
X216693750Y-50737500D03*
X216693750Y-54037500D03*
G04 #@! TD*
G04 #@! TO.C,D9*
X197643750Y-50737500D03*
X197643750Y-54037500D03*
G04 #@! TD*
G04 #@! TO.C,D8*
X178593750Y-50737500D03*
X178593750Y-54037500D03*
G04 #@! TD*
G04 #@! TO.C,D7*
X159543750Y-50737500D03*
X159543750Y-54037500D03*
G04 #@! TD*
G04 #@! TO.C,D6*
X140493750Y-50737500D03*
X140493750Y-54037500D03*
G04 #@! TD*
G04 #@! TO.C,D5*
X121443750Y-50737500D03*
X121443750Y-54037500D03*
G04 #@! TD*
G04 #@! TO.C,D4*
X102393750Y-50737500D03*
X102393750Y-54037500D03*
G04 #@! TD*
G04 #@! TO.C,D3*
X73818750Y-50737500D03*
X73818750Y-54037500D03*
G04 #@! TD*
G04 #@! TO.C,D2*
X54768750Y-50737500D03*
X54768750Y-54037500D03*
G04 #@! TD*
G04 #@! TO.C,D1*
X35718750Y-50737500D03*
X35718750Y-54037500D03*
G04 #@! TD*
G04 #@! TO.C,C7*
G36*
G01*
X77730048Y-89523138D02*
X78410638Y-88842548D01*
G75*
G02*
X78790708Y-88842548I190035J-190035D01*
G01*
X79170778Y-89222618D01*
G75*
G02*
X79170778Y-89602688I-190035J-190035D01*
G01*
X78490188Y-90283278D01*
G75*
G02*
X78110118Y-90283278I-190035J190035D01*
G01*
X77730048Y-89903208D01*
G75*
G02*
X77730048Y-89523138I190035J190035D01*
G01*
G37*
G36*
G01*
X76404222Y-88197312D02*
X77084812Y-87516722D01*
G75*
G02*
X77464882Y-87516722I190035J-190035D01*
G01*
X77844952Y-87896792D01*
G75*
G02*
X77844952Y-88276862I-190035J-190035D01*
G01*
X77164362Y-88957452D01*
G75*
G02*
X76784292Y-88957452I-190035J190035D01*
G01*
X76404222Y-88577382D01*
G75*
G02*
X76404222Y-88197312I190035J190035D01*
G01*
G37*
G04 #@! TD*
G04 #@! TO.C,C6*
G36*
G01*
X83750452Y-94118862D02*
X83069862Y-94799452D01*
G75*
G02*
X82689792Y-94799452I-190035J190035D01*
G01*
X82309722Y-94419382D01*
G75*
G02*
X82309722Y-94039312I190035J190035D01*
G01*
X82990312Y-93358722D01*
G75*
G02*
X83370382Y-93358722I190035J-190035D01*
G01*
X83750452Y-93738792D01*
G75*
G02*
X83750452Y-94118862I-190035J-190035D01*
G01*
G37*
G36*
G01*
X85076278Y-95444688D02*
X84395688Y-96125278D01*
G75*
G02*
X84015618Y-96125278I-190035J190035D01*
G01*
X83635548Y-95745208D01*
G75*
G02*
X83635548Y-95365138I190035J190035D01*
G01*
X84316138Y-94684548D01*
G75*
G02*
X84696208Y-94684548I190035J-190035D01*
G01*
X85076278Y-95064618D01*
G75*
G02*
X85076278Y-95444688I-190035J-190035D01*
G01*
G37*
G04 #@! TD*
G04 #@! TO.C,C5*
G36*
G01*
X95873138Y-88957452D02*
X95192548Y-88276862D01*
G75*
G02*
X95192548Y-87896792I190035J190035D01*
G01*
X95572618Y-87516722D01*
G75*
G02*
X95952688Y-87516722I190035J-190035D01*
G01*
X96633278Y-88197312D01*
G75*
G02*
X96633278Y-88577382I-190035J-190035D01*
G01*
X96253208Y-88957452D01*
G75*
G02*
X95873138Y-88957452I-190035J190035D01*
G01*
G37*
G36*
G01*
X94547312Y-90283278D02*
X93866722Y-89602688D01*
G75*
G02*
X93866722Y-89222618I190035J190035D01*
G01*
X94246792Y-88842548D01*
G75*
G02*
X94626862Y-88842548I190035J-190035D01*
G01*
X95307452Y-89523138D01*
G75*
G02*
X95307452Y-89903208I-190035J-190035D01*
G01*
X94927382Y-90283278D01*
G75*
G02*
X94547312Y-90283278I-190035J190035D01*
G01*
G37*
G04 #@! TD*
G04 #@! TO.C,C4*
G36*
G01*
X87141888Y-73082452D02*
X86461298Y-72401862D01*
G75*
G02*
X86461298Y-72021792I190035J190035D01*
G01*
X86841368Y-71641722D01*
G75*
G02*
X87221438Y-71641722I190035J-190035D01*
G01*
X87902028Y-72322312D01*
G75*
G02*
X87902028Y-72702382I-190035J-190035D01*
G01*
X87521958Y-73082452D01*
G75*
G02*
X87141888Y-73082452I-190035J190035D01*
G01*
G37*
G36*
G01*
X85816062Y-74408278D02*
X85135472Y-73727688D01*
G75*
G02*
X85135472Y-73347618I190035J190035D01*
G01*
X85515542Y-72967548D01*
G75*
G02*
X85895612Y-72967548I190035J-190035D01*
G01*
X86576202Y-73648138D01*
G75*
G02*
X86576202Y-74028208I-190035J-190035D01*
G01*
X86196132Y-74408278D01*
G75*
G02*
X85816062Y-74408278I-190035J190035D01*
G01*
G37*
G04 #@! TD*
G04 #@! TO.C,C3*
G36*
G01*
X81019952Y-77164362D02*
X80339362Y-77844952D01*
G75*
G02*
X79959292Y-77844952I-190035J190035D01*
G01*
X79579222Y-77464882D01*
G75*
G02*
X79579222Y-77084812I190035J190035D01*
G01*
X80259812Y-76404222D01*
G75*
G02*
X80639882Y-76404222I190035J-190035D01*
G01*
X81019952Y-76784292D01*
G75*
G02*
X81019952Y-77164362I-190035J-190035D01*
G01*
G37*
G36*
G01*
X82345778Y-78490188D02*
X81665188Y-79170778D01*
G75*
G02*
X81285118Y-79170778I-190035J190035D01*
G01*
X80905048Y-78790708D01*
G75*
G02*
X80905048Y-78410638I190035J190035D01*
G01*
X81585638Y-77730048D01*
G75*
G02*
X81965708Y-77730048I190035J-190035D01*
G01*
X82345778Y-78110118D01*
G75*
G02*
X82345778Y-78490188I-190035J-190035D01*
G01*
G37*
G04 #@! TD*
G04 #@! TO.C,C2*
G36*
G01*
X91555138Y-73971452D02*
X90874548Y-73290862D01*
G75*
G02*
X90874548Y-72910792I190035J190035D01*
G01*
X91254618Y-72530722D01*
G75*
G02*
X91634688Y-72530722I190035J-190035D01*
G01*
X92315278Y-73211312D01*
G75*
G02*
X92315278Y-73591382I-190035J-190035D01*
G01*
X91935208Y-73971452D01*
G75*
G02*
X91555138Y-73971452I-190035J190035D01*
G01*
G37*
G36*
G01*
X90229312Y-75297278D02*
X89548722Y-74616688D01*
G75*
G02*
X89548722Y-74236618I190035J190035D01*
G01*
X89928792Y-73856548D01*
G75*
G02*
X90308862Y-73856548I190035J-190035D01*
G01*
X90989452Y-74537138D01*
G75*
G02*
X90989452Y-74917208I-190035J-190035D01*
G01*
X90609382Y-75297278D01*
G75*
G02*
X90229312Y-75297278I-190035J190035D01*
G01*
G37*
G04 #@! TD*
G04 #@! TO.C,C1*
G36*
G01*
X96927750Y-75916500D02*
X97890250Y-75916500D01*
G75*
G02*
X98159000Y-76185250I0J-268750D01*
G01*
X98159000Y-76722750D01*
G75*
G02*
X97890250Y-76991500I-268750J0D01*
G01*
X96927750Y-76991500D01*
G75*
G02*
X96659000Y-76722750I0J268750D01*
G01*
X96659000Y-76185250D01*
G75*
G02*
X96927750Y-75916500I268750J0D01*
G01*
G37*
G36*
G01*
X96927750Y-74041500D02*
X97890250Y-74041500D01*
G75*
G02*
X98159000Y-74310250I0J-268750D01*
G01*
X98159000Y-74847750D01*
G75*
G02*
X97890250Y-75116500I-268750J0D01*
G01*
X96927750Y-75116500D01*
G75*
G02*
X96659000Y-74847750I0J268750D01*
G01*
X96659000Y-74310250D01*
G75*
G02*
X96927750Y-74041500I268750J0D01*
G01*
G37*
G04 #@! TD*
M02*
