G04 #@! TF.GenerationSoftware,KiCad,Pcbnew,(5.1.6)-1*
G04 #@! TF.CreationDate,2020-06-30T22:31:09-04:00*
G04 #@! TF.ProjectId,Trout-59,54726f75-742d-4353-992e-6b696361645f,rev?*
G04 #@! TF.SameCoordinates,Original*
G04 #@! TF.FileFunction,Legend,Top*
G04 #@! TF.FilePolarity,Positive*
%FSLAX46Y46*%
G04 Gerber Fmt 4.6, Leading zero omitted, Abs format (unit mm)*
G04 Created by KiCad (PCBNEW (5.1.6)-1) date 2020-06-30 22:31:09*
%MOMM*%
%LPD*%
G01*
G04 APERTURE LIST*
%ADD10C,0.300000*%
%ADD11C,4.087800*%
%ADD12C,1.850000*%
%ADD13C,3.148000*%
%ADD14C,0.750000*%
%ADD15O,1.100000X2.200000*%
%ADD16O,1.100000X1.700000*%
G04 APERTURE END LIST*
D10*
X26813714Y-110252011D02*
X27956571Y-110252011D01*
X27385142Y-112252011D02*
X27385142Y-110252011D01*
X28623238Y-112252011D02*
X28623238Y-110918678D01*
X28623238Y-111299630D02*
X28718476Y-111109154D01*
X28813714Y-111013916D01*
X29004190Y-110918678D01*
X29194666Y-110918678D01*
X30147047Y-112252011D02*
X29956571Y-112156773D01*
X29861333Y-112061535D01*
X29766095Y-111871059D01*
X29766095Y-111299630D01*
X29861333Y-111109154D01*
X29956571Y-111013916D01*
X30147047Y-110918678D01*
X30432761Y-110918678D01*
X30623238Y-111013916D01*
X30718476Y-111109154D01*
X30813714Y-111299630D01*
X30813714Y-111871059D01*
X30718476Y-112061535D01*
X30623238Y-112156773D01*
X30432761Y-112252011D01*
X30147047Y-112252011D01*
X32528000Y-110918678D02*
X32528000Y-112252011D01*
X31670857Y-110918678D02*
X31670857Y-111966297D01*
X31766095Y-112156773D01*
X31956571Y-112252011D01*
X32242285Y-112252011D01*
X32432761Y-112156773D01*
X32528000Y-112061535D01*
X33194666Y-110918678D02*
X33956571Y-110918678D01*
X33480380Y-110252011D02*
X33480380Y-111966297D01*
X33575619Y-112156773D01*
X33766095Y-112252011D01*
X33956571Y-112252011D01*
X34623238Y-111490107D02*
X36147047Y-111490107D01*
X38051809Y-110252011D02*
X37099428Y-110252011D01*
X37004190Y-111204392D01*
X37099428Y-111109154D01*
X37289904Y-111013916D01*
X37766095Y-111013916D01*
X37956571Y-111109154D01*
X38051809Y-111204392D01*
X38147047Y-111394869D01*
X38147047Y-111871059D01*
X38051809Y-112061535D01*
X37956571Y-112156773D01*
X37766095Y-112252011D01*
X37289904Y-112252011D01*
X37099428Y-112156773D01*
X37004190Y-112061535D01*
X39099428Y-112252011D02*
X39480380Y-112252011D01*
X39670857Y-112156773D01*
X39766095Y-112061535D01*
X39956571Y-111775821D01*
X40051809Y-111394869D01*
X40051809Y-110632964D01*
X39956571Y-110442488D01*
X39861333Y-110347250D01*
X39670857Y-110252011D01*
X39289904Y-110252011D01*
X39099428Y-110347250D01*
X39004190Y-110442488D01*
X38908952Y-110632964D01*
X38908952Y-111109154D01*
X39004190Y-111299630D01*
X39099428Y-111394869D01*
X39289904Y-111490107D01*
X39670857Y-111490107D01*
X39861333Y-111394869D01*
X39956571Y-111299630D01*
X40051809Y-111109154D01*
%LPC*%
D11*
G04 #@! TO.C,MX49*
X98425000Y-104775000D03*
D12*
X93345000Y-104775000D03*
X103505000Y-104775000D03*
G04 #@! TD*
D11*
G04 #@! TO.C,MX31*
X31750000Y-85725000D03*
D12*
X26670000Y-85725000D03*
X36830000Y-85725000D03*
G04 #@! TD*
D11*
G04 #@! TO.C,MX4*
X98425000Y-47625000D03*
D12*
X93345000Y-47625000D03*
X103505000Y-47625000D03*
G04 #@! TD*
D11*
G04 #@! TO.C,MX16*
X31750000Y-66675000D03*
D12*
X26670000Y-66675000D03*
X36830000Y-66675000D03*
G04 #@! TD*
D11*
G04 #@! TO.C,MX15*
X312737500Y-47625000D03*
D12*
X307657500Y-47625000D03*
X317817500Y-47625000D03*
G04 #@! TD*
D11*
G04 #@! TO.C,MX5*
X117475000Y-47625000D03*
D12*
X112395000Y-47625000D03*
X122555000Y-47625000D03*
G04 #@! TD*
D11*
G04 #@! TO.C,MX46*
X31750000Y-104775000D03*
D12*
X26670000Y-104775000D03*
X36830000Y-104775000D03*
G04 #@! TD*
D11*
G04 #@! TO.C,MX47*
X50800000Y-104775000D03*
D12*
X45720000Y-104775000D03*
X55880000Y-104775000D03*
G04 #@! TD*
D11*
G04 #@! TO.C,MX48*
X69850000Y-104775000D03*
D12*
X64770000Y-104775000D03*
X74930000Y-104775000D03*
G04 #@! TD*
D11*
G04 #@! TO.C,MX54*
X207962500Y-104775000D03*
D12*
X202882500Y-104775000D03*
X213042500Y-104775000D03*
D13*
X196056250Y-97790000D03*
X219868750Y-97790000D03*
D11*
X196056250Y-113030000D03*
X219868750Y-113030000D03*
G04 #@! TD*
G04 #@! TO.C,MX32*
X50800000Y-85725000D03*
D12*
X45720000Y-85725000D03*
X55880000Y-85725000D03*
G04 #@! TD*
D11*
G04 #@! TO.C,MX2*
X50800000Y-47625000D03*
D12*
X45720000Y-47625000D03*
X55880000Y-47625000D03*
G04 #@! TD*
D11*
G04 #@! TO.C,MX38*
X184150000Y-85725000D03*
D12*
X179070000Y-85725000D03*
X189230000Y-85725000D03*
G04 #@! TD*
D11*
G04 #@! TO.C,MX10*
X212725000Y-47625000D03*
D12*
X207645000Y-47625000D03*
X217805000Y-47625000D03*
G04 #@! TD*
D11*
G04 #@! TO.C,MX8*
X174625000Y-47625000D03*
D12*
X169545000Y-47625000D03*
X179705000Y-47625000D03*
G04 #@! TD*
D11*
G04 #@! TO.C,MX6*
X136525000Y-47625000D03*
D12*
X131445000Y-47625000D03*
X141605000Y-47625000D03*
G04 #@! TD*
D11*
G04 #@! TO.C,MX19*
X100806250Y-66675000D03*
D12*
X95726250Y-66675000D03*
X105886250Y-66675000D03*
G04 #@! TD*
D11*
G04 #@! TO.C,MX45*
X317500000Y-85725000D03*
D12*
X312420000Y-85725000D03*
X322580000Y-85725000D03*
G04 #@! TD*
D11*
G04 #@! TO.C,MX27*
X255587500Y-66675000D03*
D12*
X250507500Y-66675000D03*
X260667500Y-66675000D03*
G04 #@! TD*
D11*
G04 #@! TO.C,MX14*
X288925000Y-47625000D03*
D12*
X283845000Y-47625000D03*
X294005000Y-47625000D03*
G04 #@! TD*
D11*
G04 #@! TO.C,MX12*
X250825000Y-47625000D03*
D12*
X245745000Y-47625000D03*
X255905000Y-47625000D03*
G04 #@! TD*
D11*
G04 #@! TO.C,MX26*
X236537500Y-66675000D03*
D12*
X231457500Y-66675000D03*
X241617500Y-66675000D03*
G04 #@! TD*
D11*
G04 #@! TO.C,MX41*
X241300000Y-85725000D03*
D12*
X236220000Y-85725000D03*
X246380000Y-85725000D03*
G04 #@! TD*
D11*
G04 #@! TO.C,MX23*
X179387500Y-66675000D03*
D12*
X174307500Y-66675000D03*
X184467500Y-66675000D03*
G04 #@! TD*
D11*
G04 #@! TO.C,MX22*
X160337500Y-66675000D03*
D12*
X155257500Y-66675000D03*
X165417500Y-66675000D03*
G04 #@! TD*
D11*
G04 #@! TO.C,MX36*
X146050000Y-85725000D03*
D12*
X140970000Y-85725000D03*
X151130000Y-85725000D03*
G04 #@! TD*
D11*
G04 #@! TO.C,MX58*
X298450000Y-104775000D03*
D12*
X293370000Y-104775000D03*
X303530000Y-104775000D03*
G04 #@! TD*
D11*
G04 #@! TO.C,MX56*
X260350000Y-104775000D03*
D12*
X255270000Y-104775000D03*
X265430000Y-104775000D03*
G04 #@! TD*
D11*
G04 #@! TO.C,MX55*
X238918750Y-104775000D03*
D12*
X233838750Y-104775000D03*
X243998750Y-104775000D03*
G04 #@! TD*
D11*
G04 #@! TO.C,MX40*
X222250000Y-85725000D03*
D12*
X217170000Y-85725000D03*
X227330000Y-85725000D03*
G04 #@! TD*
D11*
G04 #@! TO.C,MX59*
X317500000Y-104775000D03*
D12*
X312420000Y-104775000D03*
X322580000Y-104775000D03*
G04 #@! TD*
D11*
G04 #@! TO.C,MX57*
X279400000Y-104775000D03*
D12*
X274320000Y-104775000D03*
X284480000Y-104775000D03*
G04 #@! TD*
D11*
G04 #@! TO.C,MX53*
X177006250Y-104775000D03*
D12*
X171926250Y-104775000D03*
X182086250Y-104775000D03*
G04 #@! TD*
D11*
G04 #@! TO.C,MX52*
X155575000Y-104775000D03*
D12*
X150495000Y-104775000D03*
X160655000Y-104775000D03*
G04 #@! TD*
D11*
G04 #@! TO.C,MX51*
X136525000Y-104775000D03*
D12*
X131445000Y-104775000D03*
X141605000Y-104775000D03*
G04 #@! TD*
D11*
G04 #@! TO.C,MX50*
X117475000Y-104775000D03*
D12*
X112395000Y-104775000D03*
X122555000Y-104775000D03*
G04 #@! TD*
D11*
G04 #@! TO.C,MX44*
X298450000Y-85725000D03*
D12*
X293370000Y-85725000D03*
X303530000Y-85725000D03*
G04 #@! TD*
D11*
G04 #@! TO.C,MX43*
X279400000Y-85725000D03*
D12*
X274320000Y-85725000D03*
X284480000Y-85725000D03*
G04 #@! TD*
D11*
G04 #@! TO.C,MX42*
X260350000Y-85725000D03*
D12*
X255270000Y-85725000D03*
X265430000Y-85725000D03*
G04 #@! TD*
D11*
G04 #@! TO.C,MX39*
X203200000Y-85725000D03*
D12*
X198120000Y-85725000D03*
X208280000Y-85725000D03*
G04 #@! TD*
D11*
G04 #@! TO.C,MX37*
X165100000Y-85725000D03*
D12*
X160020000Y-85725000D03*
X170180000Y-85725000D03*
G04 #@! TD*
D11*
G04 #@! TO.C,MX35*
X127000000Y-85725000D03*
D12*
X121920000Y-85725000D03*
X132080000Y-85725000D03*
G04 #@! TD*
D11*
G04 #@! TO.C,MX34*
X103187500Y-85725000D03*
D12*
X98107500Y-85725000D03*
X108267500Y-85725000D03*
G04 #@! TD*
D11*
G04 #@! TO.C,MX33*
X69850000Y-85725000D03*
D12*
X64770000Y-85725000D03*
X74930000Y-85725000D03*
G04 #@! TD*
D11*
G04 #@! TO.C,MX30*
X315118750Y-66675000D03*
D12*
X310038750Y-66675000D03*
X320198750Y-66675000D03*
G04 #@! TD*
D11*
G04 #@! TO.C,MX29*
X293687500Y-66675000D03*
D12*
X288607500Y-66675000D03*
X298767500Y-66675000D03*
G04 #@! TD*
D11*
G04 #@! TO.C,MX28*
X274637500Y-66675000D03*
D12*
X269557500Y-66675000D03*
X279717500Y-66675000D03*
G04 #@! TD*
D11*
G04 #@! TO.C,MX25*
X217487500Y-66675000D03*
D12*
X212407500Y-66675000D03*
X222567500Y-66675000D03*
G04 #@! TD*
D11*
G04 #@! TO.C,MX24*
X198437500Y-66675000D03*
D12*
X193357500Y-66675000D03*
X203517500Y-66675000D03*
G04 #@! TD*
D11*
G04 #@! TO.C,MX21*
X141287500Y-66675000D03*
D12*
X136207500Y-66675000D03*
X146367500Y-66675000D03*
G04 #@! TD*
D11*
G04 #@! TO.C,MX20*
X122237500Y-66675000D03*
D12*
X117157500Y-66675000D03*
X127317500Y-66675000D03*
G04 #@! TD*
D11*
G04 #@! TO.C,MX18*
X69850000Y-66675000D03*
D12*
X64770000Y-66675000D03*
X74930000Y-66675000D03*
G04 #@! TD*
D11*
G04 #@! TO.C,MX17*
X50800000Y-66675000D03*
D12*
X45720000Y-66675000D03*
X55880000Y-66675000D03*
G04 #@! TD*
D11*
G04 #@! TO.C,MX13*
X269875000Y-47625000D03*
D12*
X264795000Y-47625000D03*
X274955000Y-47625000D03*
G04 #@! TD*
D11*
G04 #@! TO.C,MX11*
X231775000Y-47625000D03*
D12*
X226695000Y-47625000D03*
X236855000Y-47625000D03*
G04 #@! TD*
D11*
G04 #@! TO.C,MX9*
X193675000Y-47625000D03*
D12*
X188595000Y-47625000D03*
X198755000Y-47625000D03*
G04 #@! TD*
D11*
G04 #@! TO.C,MX7*
X155575000Y-47625000D03*
D12*
X150495000Y-47625000D03*
X160655000Y-47625000D03*
G04 #@! TD*
D11*
G04 #@! TO.C,MX3*
X69850000Y-47625000D03*
D12*
X64770000Y-47625000D03*
X74930000Y-47625000D03*
G04 #@! TD*
D11*
G04 #@! TO.C,MX1*
X31750000Y-47625000D03*
D12*
X26670000Y-47625000D03*
X36830000Y-47625000D03*
G04 #@! TD*
D14*
G04 #@! TO.C,USB1*
X87027500Y-42762500D03*
X81247500Y-42762500D03*
D15*
X79817500Y-43292500D03*
X88457500Y-43292500D03*
D16*
X79817500Y-39112500D03*
X88457500Y-39112500D03*
G04 #@! TD*
M02*
