G04 #@! TF.GenerationSoftware,KiCad,Pcbnew,(5.1.6)-1*
G04 #@! TF.CreationDate,2020-06-30T22:31:09-04:00*
G04 #@! TF.ProjectId,Trout-59,54726f75-742d-4353-992e-6b696361645f,rev?*
G04 #@! TF.SameCoordinates,Original*
G04 #@! TF.FileFunction,Soldermask,Bot*
G04 #@! TF.FilePolarity,Negative*
%FSLAX46Y46*%
G04 Gerber Fmt 4.6, Leading zero omitted, Abs format (unit mm)*
G04 Created by KiCad (PCBNEW (5.1.6)-1) date 2020-06-30 22:31:09*
%MOMM*%
%LPD*%
G01*
G04 APERTURE LIST*
%ADD10C,2.350000*%
%ADD11C,4.087800*%
%ADD12C,1.850000*%
%ADD13C,0.100000*%
%ADD14C,3.148000*%
%ADD15R,1.900000X1.200000*%
%ADD16R,0.700000X1.550000*%
%ADD17R,0.400000X1.550000*%
%ADD18C,0.750000*%
%ADD19R,1.500000X1.300000*%
%ADD20R,0.750000X1.160000*%
%ADD21R,1.300000X1.000000*%
G04 APERTURE END LIST*
G04 #@! TO.C,C2*
G36*
G01*
X92866500Y-73559750D02*
X92866500Y-74522250D01*
G75*
G02*
X92597750Y-74791000I-268750J0D01*
G01*
X92060250Y-74791000D01*
G75*
G02*
X91791500Y-74522250I0J268750D01*
G01*
X91791500Y-73559750D01*
G75*
G02*
X92060250Y-73291000I268750J0D01*
G01*
X92597750Y-73291000D01*
G75*
G02*
X92866500Y-73559750I0J-268750D01*
G01*
G37*
G36*
G01*
X94741500Y-73559750D02*
X94741500Y-74522250D01*
G75*
G02*
X94472750Y-74791000I-268750J0D01*
G01*
X93935250Y-74791000D01*
G75*
G02*
X93666500Y-74522250I0J268750D01*
G01*
X93666500Y-73559750D01*
G75*
G02*
X93935250Y-73291000I268750J0D01*
G01*
X94472750Y-73291000D01*
G75*
G02*
X94741500Y-73559750I0J-268750D01*
G01*
G37*
G04 #@! TD*
D10*
G04 #@! TO.C,MX49*
X100965000Y-99695000D03*
D11*
X98425000Y-104775000D03*
D10*
X94615000Y-102235000D03*
D12*
X93345000Y-104775000D03*
X103505000Y-104775000D03*
G04 #@! TD*
D13*
G04 #@! TO.C,U1*
G36*
X79995690Y-86131587D02*
G01*
X80455309Y-86591206D01*
X79323938Y-87722577D01*
X78864319Y-87262958D01*
X79995690Y-86131587D01*
G37*
G36*
X80561376Y-86697272D02*
G01*
X81020995Y-87156891D01*
X79889624Y-88288262D01*
X79430005Y-87828643D01*
X80561376Y-86697272D01*
G37*
G36*
X81127061Y-87262957D02*
G01*
X81586680Y-87722576D01*
X80455309Y-88853947D01*
X79995690Y-88394328D01*
X81127061Y-87262957D01*
G37*
G36*
X81692746Y-87828643D02*
G01*
X82152365Y-88288262D01*
X81020994Y-89419633D01*
X80561375Y-88960014D01*
X81692746Y-87828643D01*
G37*
G36*
X82258432Y-88394328D02*
G01*
X82718051Y-88853947D01*
X81586680Y-89985318D01*
X81127061Y-89525699D01*
X82258432Y-88394328D01*
G37*
G36*
X82824117Y-88960014D02*
G01*
X83283736Y-89419633D01*
X82152365Y-90551004D01*
X81692746Y-90091385D01*
X82824117Y-88960014D01*
G37*
G36*
X83389803Y-89525699D02*
G01*
X83849422Y-89985318D01*
X82718051Y-91116689D01*
X82258432Y-90657070D01*
X83389803Y-89525699D01*
G37*
G36*
X83955488Y-90091385D02*
G01*
X84415107Y-90551004D01*
X83283736Y-91682375D01*
X82824117Y-91222756D01*
X83955488Y-90091385D01*
G37*
G36*
X84521174Y-90657070D02*
G01*
X84980793Y-91116689D01*
X83849422Y-92248060D01*
X83389803Y-91788441D01*
X84521174Y-90657070D01*
G37*
G36*
X85086859Y-91222755D02*
G01*
X85546478Y-91682374D01*
X84415107Y-92813745D01*
X83955488Y-92354126D01*
X85086859Y-91222755D01*
G37*
G36*
X85652544Y-91788441D02*
G01*
X86112163Y-92248060D01*
X84980792Y-93379431D01*
X84521173Y-92919812D01*
X85652544Y-91788441D01*
G37*
G36*
X86925337Y-92248060D02*
G01*
X87384956Y-91788441D01*
X88516327Y-92919812D01*
X88056708Y-93379431D01*
X86925337Y-92248060D01*
G37*
G36*
X87491022Y-91682374D02*
G01*
X87950641Y-91222755D01*
X89082012Y-92354126D01*
X88622393Y-92813745D01*
X87491022Y-91682374D01*
G37*
G36*
X88056707Y-91116689D02*
G01*
X88516326Y-90657070D01*
X89647697Y-91788441D01*
X89188078Y-92248060D01*
X88056707Y-91116689D01*
G37*
G36*
X88622393Y-90551004D02*
G01*
X89082012Y-90091385D01*
X90213383Y-91222756D01*
X89753764Y-91682375D01*
X88622393Y-90551004D01*
G37*
G36*
X89188078Y-89985318D02*
G01*
X89647697Y-89525699D01*
X90779068Y-90657070D01*
X90319449Y-91116689D01*
X89188078Y-89985318D01*
G37*
G36*
X89753764Y-89419633D02*
G01*
X90213383Y-88960014D01*
X91344754Y-90091385D01*
X90885135Y-90551004D01*
X89753764Y-89419633D01*
G37*
G36*
X90319449Y-88853947D02*
G01*
X90779068Y-88394328D01*
X91910439Y-89525699D01*
X91450820Y-89985318D01*
X90319449Y-88853947D01*
G37*
G36*
X90885135Y-88288262D02*
G01*
X91344754Y-87828643D01*
X92476125Y-88960014D01*
X92016506Y-89419633D01*
X90885135Y-88288262D01*
G37*
G36*
X91450820Y-87722576D02*
G01*
X91910439Y-87262957D01*
X93041810Y-88394328D01*
X92582191Y-88853947D01*
X91450820Y-87722576D01*
G37*
G36*
X92016505Y-87156891D02*
G01*
X92476124Y-86697272D01*
X93607495Y-87828643D01*
X93147876Y-88288262D01*
X92016505Y-87156891D01*
G37*
G36*
X92582191Y-86591206D02*
G01*
X93041810Y-86131587D01*
X94173181Y-87262958D01*
X93713562Y-87722577D01*
X92582191Y-86591206D01*
G37*
G36*
X93713562Y-83727423D02*
G01*
X94173181Y-84187042D01*
X93041810Y-85318413D01*
X92582191Y-84858794D01*
X93713562Y-83727423D01*
G37*
G36*
X93147876Y-83161738D02*
G01*
X93607495Y-83621357D01*
X92476124Y-84752728D01*
X92016505Y-84293109D01*
X93147876Y-83161738D01*
G37*
G36*
X92582191Y-82596053D02*
G01*
X93041810Y-83055672D01*
X91910439Y-84187043D01*
X91450820Y-83727424D01*
X92582191Y-82596053D01*
G37*
G36*
X92016506Y-82030367D02*
G01*
X92476125Y-82489986D01*
X91344754Y-83621357D01*
X90885135Y-83161738D01*
X92016506Y-82030367D01*
G37*
G36*
X91450820Y-81464682D02*
G01*
X91910439Y-81924301D01*
X90779068Y-83055672D01*
X90319449Y-82596053D01*
X91450820Y-81464682D01*
G37*
G36*
X90885135Y-80898996D02*
G01*
X91344754Y-81358615D01*
X90213383Y-82489986D01*
X89753764Y-82030367D01*
X90885135Y-80898996D01*
G37*
G36*
X90319449Y-80333311D02*
G01*
X90779068Y-80792930D01*
X89647697Y-81924301D01*
X89188078Y-81464682D01*
X90319449Y-80333311D01*
G37*
G36*
X89753764Y-79767625D02*
G01*
X90213383Y-80227244D01*
X89082012Y-81358615D01*
X88622393Y-80898996D01*
X89753764Y-79767625D01*
G37*
G36*
X89188078Y-79201940D02*
G01*
X89647697Y-79661559D01*
X88516326Y-80792930D01*
X88056707Y-80333311D01*
X89188078Y-79201940D01*
G37*
G36*
X88622393Y-78636255D02*
G01*
X89082012Y-79095874D01*
X87950641Y-80227245D01*
X87491022Y-79767626D01*
X88622393Y-78636255D01*
G37*
G36*
X88056708Y-78070569D02*
G01*
X88516327Y-78530188D01*
X87384956Y-79661559D01*
X86925337Y-79201940D01*
X88056708Y-78070569D01*
G37*
G36*
X84521173Y-78530188D02*
G01*
X84980792Y-78070569D01*
X86112163Y-79201940D01*
X85652544Y-79661559D01*
X84521173Y-78530188D01*
G37*
G36*
X83955488Y-79095874D02*
G01*
X84415107Y-78636255D01*
X85546478Y-79767626D01*
X85086859Y-80227245D01*
X83955488Y-79095874D01*
G37*
G36*
X83389803Y-79661559D02*
G01*
X83849422Y-79201940D01*
X84980793Y-80333311D01*
X84521174Y-80792930D01*
X83389803Y-79661559D01*
G37*
G36*
X82824117Y-80227244D02*
G01*
X83283736Y-79767625D01*
X84415107Y-80898996D01*
X83955488Y-81358615D01*
X82824117Y-80227244D01*
G37*
G36*
X82258432Y-80792930D02*
G01*
X82718051Y-80333311D01*
X83849422Y-81464682D01*
X83389803Y-81924301D01*
X82258432Y-80792930D01*
G37*
G36*
X81692746Y-81358615D02*
G01*
X82152365Y-80898996D01*
X83283736Y-82030367D01*
X82824117Y-82489986D01*
X81692746Y-81358615D01*
G37*
G36*
X81127061Y-81924301D02*
G01*
X81586680Y-81464682D01*
X82718051Y-82596053D01*
X82258432Y-83055672D01*
X81127061Y-81924301D01*
G37*
G36*
X80561375Y-82489986D02*
G01*
X81020994Y-82030367D01*
X82152365Y-83161738D01*
X81692746Y-83621357D01*
X80561375Y-82489986D01*
G37*
G36*
X79995690Y-83055672D02*
G01*
X80455309Y-82596053D01*
X81586680Y-83727424D01*
X81127061Y-84187043D01*
X79995690Y-83055672D01*
G37*
G36*
X79430005Y-83621357D02*
G01*
X79889624Y-83161738D01*
X81020995Y-84293109D01*
X80561376Y-84752728D01*
X79430005Y-83621357D01*
G37*
G36*
X78864319Y-84187042D02*
G01*
X79323938Y-83727423D01*
X80455309Y-84858794D01*
X79995690Y-85318413D01*
X78864319Y-84187042D01*
G37*
G04 #@! TD*
D10*
G04 #@! TO.C,MX31*
X34290000Y-80645000D03*
D11*
X31750000Y-85725000D03*
D10*
X27940000Y-83185000D03*
D12*
X26670000Y-85725000D03*
X36830000Y-85725000D03*
G04 #@! TD*
D10*
G04 #@! TO.C,MX4*
X100965000Y-42545000D03*
D11*
X98425000Y-47625000D03*
D10*
X94615000Y-45085000D03*
D12*
X93345000Y-47625000D03*
X103505000Y-47625000D03*
G04 #@! TD*
D10*
G04 #@! TO.C,MX16*
X34290000Y-61595000D03*
D11*
X31750000Y-66675000D03*
D10*
X27940000Y-64135000D03*
D12*
X26670000Y-66675000D03*
X36830000Y-66675000D03*
G04 #@! TD*
D10*
G04 #@! TO.C,MX15*
X315277500Y-42545000D03*
D11*
X312737500Y-47625000D03*
D10*
X308927500Y-45085000D03*
D12*
X307657500Y-47625000D03*
X317817500Y-47625000D03*
G04 #@! TD*
D10*
G04 #@! TO.C,MX5*
X120015000Y-42545000D03*
D11*
X117475000Y-47625000D03*
D10*
X113665000Y-45085000D03*
D12*
X112395000Y-47625000D03*
X122555000Y-47625000D03*
G04 #@! TD*
D10*
G04 #@! TO.C,MX46*
X34290000Y-99695000D03*
D11*
X31750000Y-104775000D03*
D10*
X27940000Y-102235000D03*
D12*
X26670000Y-104775000D03*
X36830000Y-104775000D03*
G04 #@! TD*
D10*
G04 #@! TO.C,MX47*
X53340000Y-99695000D03*
D11*
X50800000Y-104775000D03*
D10*
X46990000Y-102235000D03*
D12*
X45720000Y-104775000D03*
X55880000Y-104775000D03*
G04 #@! TD*
D10*
G04 #@! TO.C,MX48*
X72390000Y-99695000D03*
D11*
X69850000Y-104775000D03*
D10*
X66040000Y-102235000D03*
D12*
X64770000Y-104775000D03*
X74930000Y-104775000D03*
G04 #@! TD*
D10*
G04 #@! TO.C,MX54*
X210502500Y-99695000D03*
D11*
X207962500Y-104775000D03*
D10*
X204152500Y-102235000D03*
D12*
X202882500Y-104775000D03*
X213042500Y-104775000D03*
D14*
X196056250Y-97790000D03*
X219868750Y-97790000D03*
D11*
X196056250Y-113030000D03*
X219868750Y-113030000D03*
G04 #@! TD*
D10*
G04 #@! TO.C,MX32*
X53340000Y-80645000D03*
D11*
X50800000Y-85725000D03*
D10*
X46990000Y-83185000D03*
D12*
X45720000Y-85725000D03*
X55880000Y-85725000D03*
G04 #@! TD*
D10*
G04 #@! TO.C,MX2*
X53340000Y-42545000D03*
D11*
X50800000Y-47625000D03*
D10*
X46990000Y-45085000D03*
D12*
X45720000Y-47625000D03*
X55880000Y-47625000D03*
G04 #@! TD*
D10*
G04 #@! TO.C,MX38*
X186690000Y-80645000D03*
D11*
X184150000Y-85725000D03*
D10*
X180340000Y-83185000D03*
D12*
X179070000Y-85725000D03*
X189230000Y-85725000D03*
G04 #@! TD*
D10*
G04 #@! TO.C,MX10*
X215265000Y-42545000D03*
D11*
X212725000Y-47625000D03*
D10*
X208915000Y-45085000D03*
D12*
X207645000Y-47625000D03*
X217805000Y-47625000D03*
G04 #@! TD*
D10*
G04 #@! TO.C,MX8*
X177165000Y-42545000D03*
D11*
X174625000Y-47625000D03*
D10*
X170815000Y-45085000D03*
D12*
X169545000Y-47625000D03*
X179705000Y-47625000D03*
G04 #@! TD*
D10*
G04 #@! TO.C,MX6*
X139065000Y-42545000D03*
D11*
X136525000Y-47625000D03*
D10*
X132715000Y-45085000D03*
D12*
X131445000Y-47625000D03*
X141605000Y-47625000D03*
G04 #@! TD*
D10*
G04 #@! TO.C,MX19*
X103346250Y-61595000D03*
D11*
X100806250Y-66675000D03*
D10*
X96996250Y-64135000D03*
D12*
X95726250Y-66675000D03*
X105886250Y-66675000D03*
G04 #@! TD*
D10*
G04 #@! TO.C,MX45*
X320040000Y-80645000D03*
D11*
X317500000Y-85725000D03*
D10*
X313690000Y-83185000D03*
D12*
X312420000Y-85725000D03*
X322580000Y-85725000D03*
G04 #@! TD*
D10*
G04 #@! TO.C,MX27*
X258127500Y-61595000D03*
D11*
X255587500Y-66675000D03*
D10*
X251777500Y-64135000D03*
D12*
X250507500Y-66675000D03*
X260667500Y-66675000D03*
G04 #@! TD*
D10*
G04 #@! TO.C,MX14*
X291465000Y-42545000D03*
D11*
X288925000Y-47625000D03*
D10*
X285115000Y-45085000D03*
D12*
X283845000Y-47625000D03*
X294005000Y-47625000D03*
G04 #@! TD*
D10*
G04 #@! TO.C,MX12*
X253365000Y-42545000D03*
D11*
X250825000Y-47625000D03*
D10*
X247015000Y-45085000D03*
D12*
X245745000Y-47625000D03*
X255905000Y-47625000D03*
G04 #@! TD*
D10*
G04 #@! TO.C,MX26*
X239077500Y-61595000D03*
D11*
X236537500Y-66675000D03*
D10*
X232727500Y-64135000D03*
D12*
X231457500Y-66675000D03*
X241617500Y-66675000D03*
G04 #@! TD*
D10*
G04 #@! TO.C,MX41*
X243840000Y-80645000D03*
D11*
X241300000Y-85725000D03*
D10*
X237490000Y-83185000D03*
D12*
X236220000Y-85725000D03*
X246380000Y-85725000D03*
G04 #@! TD*
D10*
G04 #@! TO.C,MX23*
X181927500Y-61595000D03*
D11*
X179387500Y-66675000D03*
D10*
X175577500Y-64135000D03*
D12*
X174307500Y-66675000D03*
X184467500Y-66675000D03*
G04 #@! TD*
D10*
G04 #@! TO.C,MX22*
X162877500Y-61595000D03*
D11*
X160337500Y-66675000D03*
D10*
X156527500Y-64135000D03*
D12*
X155257500Y-66675000D03*
X165417500Y-66675000D03*
G04 #@! TD*
D10*
G04 #@! TO.C,MX36*
X148590000Y-80645000D03*
D11*
X146050000Y-85725000D03*
D10*
X142240000Y-83185000D03*
D12*
X140970000Y-85725000D03*
X151130000Y-85725000D03*
G04 #@! TD*
D10*
G04 #@! TO.C,MX58*
X300990000Y-99695000D03*
D11*
X298450000Y-104775000D03*
D10*
X294640000Y-102235000D03*
D12*
X293370000Y-104775000D03*
X303530000Y-104775000D03*
G04 #@! TD*
D10*
G04 #@! TO.C,MX56*
X262890000Y-99695000D03*
D11*
X260350000Y-104775000D03*
D10*
X256540000Y-102235000D03*
D12*
X255270000Y-104775000D03*
X265430000Y-104775000D03*
G04 #@! TD*
D10*
G04 #@! TO.C,MX55*
X241458750Y-99695000D03*
D11*
X238918750Y-104775000D03*
D10*
X235108750Y-102235000D03*
D12*
X233838750Y-104775000D03*
X243998750Y-104775000D03*
G04 #@! TD*
D10*
G04 #@! TO.C,MX40*
X224790000Y-80645000D03*
D11*
X222250000Y-85725000D03*
D10*
X218440000Y-83185000D03*
D12*
X217170000Y-85725000D03*
X227330000Y-85725000D03*
G04 #@! TD*
D10*
G04 #@! TO.C,MX59*
X320040000Y-99695000D03*
D11*
X317500000Y-104775000D03*
D10*
X313690000Y-102235000D03*
D12*
X312420000Y-104775000D03*
X322580000Y-104775000D03*
G04 #@! TD*
D10*
G04 #@! TO.C,MX57*
X281940000Y-99695000D03*
D11*
X279400000Y-104775000D03*
D10*
X275590000Y-102235000D03*
D12*
X274320000Y-104775000D03*
X284480000Y-104775000D03*
G04 #@! TD*
D10*
G04 #@! TO.C,MX53*
X179546250Y-99695000D03*
D11*
X177006250Y-104775000D03*
D10*
X173196250Y-102235000D03*
D12*
X171926250Y-104775000D03*
X182086250Y-104775000D03*
G04 #@! TD*
D10*
G04 #@! TO.C,MX52*
X158115000Y-99695000D03*
D11*
X155575000Y-104775000D03*
D10*
X151765000Y-102235000D03*
D12*
X150495000Y-104775000D03*
X160655000Y-104775000D03*
G04 #@! TD*
D10*
G04 #@! TO.C,MX51*
X139065000Y-99695000D03*
D11*
X136525000Y-104775000D03*
D10*
X132715000Y-102235000D03*
D12*
X131445000Y-104775000D03*
X141605000Y-104775000D03*
G04 #@! TD*
D10*
G04 #@! TO.C,MX50*
X120015000Y-99695000D03*
D11*
X117475000Y-104775000D03*
D10*
X113665000Y-102235000D03*
D12*
X112395000Y-104775000D03*
X122555000Y-104775000D03*
G04 #@! TD*
D10*
G04 #@! TO.C,MX44*
X300990000Y-80645000D03*
D11*
X298450000Y-85725000D03*
D10*
X294640000Y-83185000D03*
D12*
X293370000Y-85725000D03*
X303530000Y-85725000D03*
G04 #@! TD*
D10*
G04 #@! TO.C,MX43*
X281940000Y-80645000D03*
D11*
X279400000Y-85725000D03*
D10*
X275590000Y-83185000D03*
D12*
X274320000Y-85725000D03*
X284480000Y-85725000D03*
G04 #@! TD*
D10*
G04 #@! TO.C,MX42*
X262890000Y-80645000D03*
D11*
X260350000Y-85725000D03*
D10*
X256540000Y-83185000D03*
D12*
X255270000Y-85725000D03*
X265430000Y-85725000D03*
G04 #@! TD*
D10*
G04 #@! TO.C,MX39*
X205740000Y-80645000D03*
D11*
X203200000Y-85725000D03*
D10*
X199390000Y-83185000D03*
D12*
X198120000Y-85725000D03*
X208280000Y-85725000D03*
G04 #@! TD*
D10*
G04 #@! TO.C,MX37*
X167640000Y-80645000D03*
D11*
X165100000Y-85725000D03*
D10*
X161290000Y-83185000D03*
D12*
X160020000Y-85725000D03*
X170180000Y-85725000D03*
G04 #@! TD*
D10*
G04 #@! TO.C,MX35*
X129540000Y-80645000D03*
D11*
X127000000Y-85725000D03*
D10*
X123190000Y-83185000D03*
D12*
X121920000Y-85725000D03*
X132080000Y-85725000D03*
G04 #@! TD*
D10*
G04 #@! TO.C,MX34*
X105727500Y-80645000D03*
D11*
X103187500Y-85725000D03*
D10*
X99377500Y-83185000D03*
D12*
X98107500Y-85725000D03*
X108267500Y-85725000D03*
G04 #@! TD*
D10*
G04 #@! TO.C,MX33*
X72390000Y-80645000D03*
D11*
X69850000Y-85725000D03*
D10*
X66040000Y-83185000D03*
D12*
X64770000Y-85725000D03*
X74930000Y-85725000D03*
G04 #@! TD*
D10*
G04 #@! TO.C,MX30*
X317658750Y-61595000D03*
D11*
X315118750Y-66675000D03*
D10*
X311308750Y-64135000D03*
D12*
X310038750Y-66675000D03*
X320198750Y-66675000D03*
G04 #@! TD*
D10*
G04 #@! TO.C,MX29*
X296227500Y-61595000D03*
D11*
X293687500Y-66675000D03*
D10*
X289877500Y-64135000D03*
D12*
X288607500Y-66675000D03*
X298767500Y-66675000D03*
G04 #@! TD*
D10*
G04 #@! TO.C,MX28*
X277177500Y-61595000D03*
D11*
X274637500Y-66675000D03*
D10*
X270827500Y-64135000D03*
D12*
X269557500Y-66675000D03*
X279717500Y-66675000D03*
G04 #@! TD*
D10*
G04 #@! TO.C,MX25*
X220027500Y-61595000D03*
D11*
X217487500Y-66675000D03*
D10*
X213677500Y-64135000D03*
D12*
X212407500Y-66675000D03*
X222567500Y-66675000D03*
G04 #@! TD*
D10*
G04 #@! TO.C,MX24*
X200977500Y-61595000D03*
D11*
X198437500Y-66675000D03*
D10*
X194627500Y-64135000D03*
D12*
X193357500Y-66675000D03*
X203517500Y-66675000D03*
G04 #@! TD*
D10*
G04 #@! TO.C,MX21*
X143827500Y-61595000D03*
D11*
X141287500Y-66675000D03*
D10*
X137477500Y-64135000D03*
D12*
X136207500Y-66675000D03*
X146367500Y-66675000D03*
G04 #@! TD*
D10*
G04 #@! TO.C,MX20*
X124777500Y-61595000D03*
D11*
X122237500Y-66675000D03*
D10*
X118427500Y-64135000D03*
D12*
X117157500Y-66675000D03*
X127317500Y-66675000D03*
G04 #@! TD*
D10*
G04 #@! TO.C,MX18*
X72390000Y-61595000D03*
D11*
X69850000Y-66675000D03*
D10*
X66040000Y-64135000D03*
D12*
X64770000Y-66675000D03*
X74930000Y-66675000D03*
G04 #@! TD*
D10*
G04 #@! TO.C,MX17*
X53340000Y-61595000D03*
D11*
X50800000Y-66675000D03*
D10*
X46990000Y-64135000D03*
D12*
X45720000Y-66675000D03*
X55880000Y-66675000D03*
G04 #@! TD*
D10*
G04 #@! TO.C,MX13*
X272415000Y-42545000D03*
D11*
X269875000Y-47625000D03*
D10*
X266065000Y-45085000D03*
D12*
X264795000Y-47625000D03*
X274955000Y-47625000D03*
G04 #@! TD*
D10*
G04 #@! TO.C,MX11*
X234315000Y-42545000D03*
D11*
X231775000Y-47625000D03*
D10*
X227965000Y-45085000D03*
D12*
X226695000Y-47625000D03*
X236855000Y-47625000D03*
G04 #@! TD*
D10*
G04 #@! TO.C,MX9*
X196215000Y-42545000D03*
D11*
X193675000Y-47625000D03*
D10*
X189865000Y-45085000D03*
D12*
X188595000Y-47625000D03*
X198755000Y-47625000D03*
G04 #@! TD*
D10*
G04 #@! TO.C,MX7*
X158115000Y-42545000D03*
D11*
X155575000Y-47625000D03*
D10*
X151765000Y-45085000D03*
D12*
X150495000Y-47625000D03*
X160655000Y-47625000D03*
G04 #@! TD*
D10*
G04 #@! TO.C,MX3*
X72390000Y-42545000D03*
D11*
X69850000Y-47625000D03*
D10*
X66040000Y-45085000D03*
D12*
X64770000Y-47625000D03*
X74930000Y-47625000D03*
G04 #@! TD*
D10*
G04 #@! TO.C,MX1*
X34290000Y-42545000D03*
D11*
X31750000Y-47625000D03*
D10*
X27940000Y-45085000D03*
D12*
X26670000Y-47625000D03*
X36830000Y-47625000D03*
G04 #@! TD*
D15*
G04 #@! TO.C,SW1*
X93928000Y-57387000D03*
X100128000Y-61087000D03*
X93928000Y-61087000D03*
X100128000Y-57387000D03*
G04 #@! TD*
D16*
G04 #@! TO.C,USB1*
X87362500Y-44207500D03*
X80912500Y-44207500D03*
X86587500Y-44207500D03*
X81687500Y-44207500D03*
D17*
X82387500Y-44207500D03*
X85887500Y-44207500D03*
X82887500Y-44207500D03*
X85387500Y-44207500D03*
X83387500Y-44207500D03*
X84887500Y-44207500D03*
X84387500Y-44207500D03*
X83887500Y-44207500D03*
D18*
X87027500Y-42762500D03*
X81247500Y-42762500D03*
G04 #@! TD*
D19*
G04 #@! TO.C,Y1*
X94445000Y-76493000D03*
X92245000Y-76493000D03*
X92245000Y-78193000D03*
X94445000Y-78193000D03*
G04 #@! TD*
D20*
G04 #@! TO.C,U2*
X84137500Y-52535000D03*
X83187500Y-52535000D03*
X85087500Y-52535000D03*
X85087500Y-50335000D03*
X84137500Y-50335000D03*
X83187500Y-50335000D03*
G04 #@! TD*
G04 #@! TO.C,R6*
G36*
G01*
X90175000Y-53575000D02*
X89212500Y-53575000D01*
G75*
G02*
X88943750Y-53306250I0J268750D01*
G01*
X88943750Y-52768750D01*
G75*
G02*
X89212500Y-52500000I268750J0D01*
G01*
X90175000Y-52500000D01*
G75*
G02*
X90443750Y-52768750I0J-268750D01*
G01*
X90443750Y-53306250D01*
G75*
G02*
X90175000Y-53575000I-268750J0D01*
G01*
G37*
G36*
G01*
X90175000Y-55450000D02*
X89212500Y-55450000D01*
G75*
G02*
X88943750Y-55181250I0J268750D01*
G01*
X88943750Y-54643750D01*
G75*
G02*
X89212500Y-54375000I268750J0D01*
G01*
X90175000Y-54375000D01*
G75*
G02*
X90443750Y-54643750I0J-268750D01*
G01*
X90443750Y-55181250D01*
G75*
G02*
X90175000Y-55450000I-268750J0D01*
G01*
G37*
G04 #@! TD*
G04 #@! TO.C,R5*
G36*
G01*
X79062500Y-53575000D02*
X78100000Y-53575000D01*
G75*
G02*
X77831250Y-53306250I0J268750D01*
G01*
X77831250Y-52768750D01*
G75*
G02*
X78100000Y-52500000I268750J0D01*
G01*
X79062500Y-52500000D01*
G75*
G02*
X79331250Y-52768750I0J-268750D01*
G01*
X79331250Y-53306250D01*
G75*
G02*
X79062500Y-53575000I-268750J0D01*
G01*
G37*
G36*
G01*
X79062500Y-55450000D02*
X78100000Y-55450000D01*
G75*
G02*
X77831250Y-55181250I0J268750D01*
G01*
X77831250Y-54643750D01*
G75*
G02*
X78100000Y-54375000I268750J0D01*
G01*
X79062500Y-54375000D01*
G75*
G02*
X79331250Y-54643750I0J-268750D01*
G01*
X79331250Y-55181250D01*
G75*
G02*
X79062500Y-55450000I-268750J0D01*
G01*
G37*
G04 #@! TD*
G04 #@! TO.C,R4*
G36*
G01*
X89523138Y-95307452D02*
X88842548Y-94626862D01*
G75*
G02*
X88842548Y-94246792I190035J190035D01*
G01*
X89222618Y-93866722D01*
G75*
G02*
X89602688Y-93866722I190035J-190035D01*
G01*
X90283278Y-94547312D01*
G75*
G02*
X90283278Y-94927382I-190035J-190035D01*
G01*
X89903208Y-95307452D01*
G75*
G02*
X89523138Y-95307452I-190035J190035D01*
G01*
G37*
G36*
G01*
X88197312Y-96633278D02*
X87516722Y-95952688D01*
G75*
G02*
X87516722Y-95572618I190035J190035D01*
G01*
X87896792Y-95192548D01*
G75*
G02*
X88276862Y-95192548I190035J-190035D01*
G01*
X88957452Y-95873138D01*
G75*
G02*
X88957452Y-96253208I-190035J-190035D01*
G01*
X88577382Y-96633278D01*
G75*
G02*
X88197312Y-96633278I-190035J190035D01*
G01*
G37*
G04 #@! TD*
G04 #@! TO.C,R3*
G36*
G01*
X81443750Y-53575000D02*
X80481250Y-53575000D01*
G75*
G02*
X80212500Y-53306250I0J268750D01*
G01*
X80212500Y-52768750D01*
G75*
G02*
X80481250Y-52500000I268750J0D01*
G01*
X81443750Y-52500000D01*
G75*
G02*
X81712500Y-52768750I0J-268750D01*
G01*
X81712500Y-53306250D01*
G75*
G02*
X81443750Y-53575000I-268750J0D01*
G01*
G37*
G36*
G01*
X81443750Y-55450000D02*
X80481250Y-55450000D01*
G75*
G02*
X80212500Y-55181250I0J268750D01*
G01*
X80212500Y-54643750D01*
G75*
G02*
X80481250Y-54375000I268750J0D01*
G01*
X81443750Y-54375000D01*
G75*
G02*
X81712500Y-54643750I0J-268750D01*
G01*
X81712500Y-55181250D01*
G75*
G02*
X81443750Y-55450000I-268750J0D01*
G01*
G37*
G04 #@! TD*
G04 #@! TO.C,R2*
G36*
G01*
X87793750Y-53575000D02*
X86831250Y-53575000D01*
G75*
G02*
X86562500Y-53306250I0J268750D01*
G01*
X86562500Y-52768750D01*
G75*
G02*
X86831250Y-52500000I268750J0D01*
G01*
X87793750Y-52500000D01*
G75*
G02*
X88062500Y-52768750I0J-268750D01*
G01*
X88062500Y-53306250D01*
G75*
G02*
X87793750Y-53575000I-268750J0D01*
G01*
G37*
G36*
G01*
X87793750Y-55450000D02*
X86831250Y-55450000D01*
G75*
G02*
X86562500Y-55181250I0J268750D01*
G01*
X86562500Y-54643750D01*
G75*
G02*
X86831250Y-54375000I268750J0D01*
G01*
X87793750Y-54375000D01*
G75*
G02*
X88062500Y-54643750I0J-268750D01*
G01*
X88062500Y-55181250D01*
G75*
G02*
X87793750Y-55450000I-268750J0D01*
G01*
G37*
G04 #@! TD*
G04 #@! TO.C,R1*
G36*
G01*
X84169601Y-74685885D02*
X84850191Y-75366475D01*
G75*
G02*
X84850191Y-75746545I-190035J-190035D01*
G01*
X84470121Y-76126615D01*
G75*
G02*
X84090051Y-76126615I-190035J190035D01*
G01*
X83409461Y-75446025D01*
G75*
G02*
X83409461Y-75065955I190035J190035D01*
G01*
X83789531Y-74685885D01*
G75*
G02*
X84169601Y-74685885I190035J-190035D01*
G01*
G37*
G36*
G01*
X82843775Y-76011711D02*
X83524365Y-76692301D01*
G75*
G02*
X83524365Y-77072371I-190035J-190035D01*
G01*
X83144295Y-77452441D01*
G75*
G02*
X82764225Y-77452441I-190035J190035D01*
G01*
X82083635Y-76771851D01*
G75*
G02*
X82083635Y-76391781I190035J190035D01*
G01*
X82463705Y-76011711D01*
G75*
G02*
X82843775Y-76011711I190035J-190035D01*
G01*
G37*
G04 #@! TD*
G04 #@! TO.C,F1*
G36*
G01*
X81831000Y-58273000D02*
X81831000Y-59583000D01*
G75*
G02*
X81561000Y-59853000I-270000J0D01*
G01*
X80751000Y-59853000D01*
G75*
G02*
X80481000Y-59583000I0J270000D01*
G01*
X80481000Y-58273000D01*
G75*
G02*
X80751000Y-58003000I270000J0D01*
G01*
X81561000Y-58003000D01*
G75*
G02*
X81831000Y-58273000I0J-270000D01*
G01*
G37*
G36*
G01*
X79031000Y-58273000D02*
X79031000Y-59583000D01*
G75*
G02*
X78761000Y-59853000I-270000J0D01*
G01*
X77951000Y-59853000D01*
G75*
G02*
X77681000Y-59583000I0J270000D01*
G01*
X77681000Y-58273000D01*
G75*
G02*
X77951000Y-58003000I270000J0D01*
G01*
X78761000Y-58003000D01*
G75*
G02*
X79031000Y-58273000I0J-270000D01*
G01*
G37*
G04 #@! TD*
D21*
G04 #@! TO.C,D59*
X321468750Y-107887500D03*
X321468750Y-111187500D03*
G04 #@! TD*
G04 #@! TO.C,D58*
X302418750Y-107887500D03*
X302418750Y-111187500D03*
G04 #@! TD*
G04 #@! TO.C,D57*
X283368750Y-107887500D03*
X283368750Y-111187500D03*
G04 #@! TD*
G04 #@! TO.C,D56*
X264318750Y-107887500D03*
X264318750Y-111187500D03*
G04 #@! TD*
G04 #@! TO.C,D55*
X242887500Y-107887500D03*
X242887500Y-111187500D03*
G04 #@! TD*
G04 #@! TO.C,D54*
X211931250Y-107887500D03*
X211931250Y-111187500D03*
G04 #@! TD*
G04 #@! TO.C,D53*
X180975000Y-107887500D03*
X180975000Y-111187500D03*
G04 #@! TD*
G04 #@! TO.C,D52*
X159543750Y-107887500D03*
X159543750Y-111187500D03*
G04 #@! TD*
G04 #@! TO.C,D51*
X140493750Y-107887500D03*
X140493750Y-111187500D03*
G04 #@! TD*
G04 #@! TO.C,D50*
X121443750Y-107887500D03*
X121443750Y-111187500D03*
G04 #@! TD*
G04 #@! TO.C,D49*
X102393750Y-107887500D03*
X102393750Y-111187500D03*
G04 #@! TD*
G04 #@! TO.C,D48*
X73818750Y-107887500D03*
X73818750Y-111187500D03*
G04 #@! TD*
G04 #@! TO.C,D47*
X54768750Y-107887500D03*
X54768750Y-111187500D03*
G04 #@! TD*
G04 #@! TO.C,D46*
X35718750Y-107887500D03*
X35718750Y-111187500D03*
G04 #@! TD*
G04 #@! TO.C,D45*
X321468750Y-88837500D03*
X321468750Y-92137500D03*
G04 #@! TD*
G04 #@! TO.C,D44*
X302418750Y-88837500D03*
X302418750Y-92137500D03*
G04 #@! TD*
G04 #@! TO.C,D43*
X283368750Y-88837500D03*
X283368750Y-92137500D03*
G04 #@! TD*
G04 #@! TO.C,D42*
X264318750Y-88837500D03*
X264318750Y-92137500D03*
G04 #@! TD*
G04 #@! TO.C,D41*
X245268750Y-88837500D03*
X245268750Y-92137500D03*
G04 #@! TD*
G04 #@! TO.C,D40*
X226218750Y-88837500D03*
X226218750Y-92137500D03*
G04 #@! TD*
G04 #@! TO.C,D39*
X207168750Y-88837500D03*
X207168750Y-92137500D03*
G04 #@! TD*
G04 #@! TO.C,D38*
X188118750Y-88837500D03*
X188118750Y-92137500D03*
G04 #@! TD*
G04 #@! TO.C,D37*
X169068750Y-88837500D03*
X169068750Y-92137500D03*
G04 #@! TD*
G04 #@! TO.C,D36*
X150018750Y-88837500D03*
X150018750Y-92137500D03*
G04 #@! TD*
G04 #@! TO.C,D35*
X130968750Y-88837500D03*
X130968750Y-92137500D03*
G04 #@! TD*
G04 #@! TO.C,D34*
X107156250Y-88837500D03*
X107156250Y-92137500D03*
G04 #@! TD*
G04 #@! TO.C,D33*
X73818750Y-88837500D03*
X73818750Y-92137500D03*
G04 #@! TD*
G04 #@! TO.C,D32*
X54768750Y-88837500D03*
X54768750Y-92137500D03*
G04 #@! TD*
G04 #@! TO.C,D31*
X35718750Y-88837500D03*
X35718750Y-92137500D03*
G04 #@! TD*
G04 #@! TO.C,D30*
X319087500Y-69787500D03*
X319087500Y-73087500D03*
G04 #@! TD*
G04 #@! TO.C,D29*
X297656250Y-69787500D03*
X297656250Y-73087500D03*
G04 #@! TD*
G04 #@! TO.C,D28*
X278606250Y-69787500D03*
X278606250Y-73087500D03*
G04 #@! TD*
G04 #@! TO.C,D27*
X259556250Y-69787500D03*
X259556250Y-73087500D03*
G04 #@! TD*
G04 #@! TO.C,D26*
X240506250Y-69787500D03*
X240506250Y-73087500D03*
G04 #@! TD*
G04 #@! TO.C,D25*
X221456250Y-69787500D03*
X221456250Y-73087500D03*
G04 #@! TD*
G04 #@! TO.C,D24*
X202406250Y-69787500D03*
X202406250Y-73087500D03*
G04 #@! TD*
G04 #@! TO.C,D23*
X183356250Y-69787500D03*
X183356250Y-73087500D03*
G04 #@! TD*
G04 #@! TO.C,D22*
X164306250Y-69787500D03*
X164306250Y-73087500D03*
G04 #@! TD*
G04 #@! TO.C,D21*
X145256250Y-69787500D03*
X145256250Y-73087500D03*
G04 #@! TD*
G04 #@! TO.C,D20*
X126206250Y-69787500D03*
X126206250Y-73087500D03*
G04 #@! TD*
G04 #@! TO.C,D19*
X104775000Y-69787500D03*
X104775000Y-73087500D03*
G04 #@! TD*
G04 #@! TO.C,D18*
X73818750Y-69787500D03*
X73818750Y-73087500D03*
G04 #@! TD*
G04 #@! TO.C,D17*
X54768750Y-69787500D03*
X54768750Y-73087500D03*
G04 #@! TD*
G04 #@! TO.C,D16*
X35718750Y-69787500D03*
X35718750Y-73087500D03*
G04 #@! TD*
G04 #@! TO.C,D15*
X316706250Y-50737500D03*
X316706250Y-54037500D03*
G04 #@! TD*
G04 #@! TO.C,D14*
X292893750Y-50737500D03*
X292893750Y-54037500D03*
G04 #@! TD*
G04 #@! TO.C,D13*
X273843750Y-50737500D03*
X273843750Y-54037500D03*
G04 #@! TD*
G04 #@! TO.C,D12*
X254793750Y-50737500D03*
X254793750Y-54037500D03*
G04 #@! TD*
G04 #@! TO.C,D11*
X235743750Y-50737500D03*
X235743750Y-54037500D03*
G04 #@! TD*
G04 #@! TO.C,D10*
X216693750Y-50737500D03*
X216693750Y-54037500D03*
G04 #@! TD*
G04 #@! TO.C,D9*
X197643750Y-50737500D03*
X197643750Y-54037500D03*
G04 #@! TD*
G04 #@! TO.C,D8*
X178593750Y-50737500D03*
X178593750Y-54037500D03*
G04 #@! TD*
G04 #@! TO.C,D7*
X159543750Y-50737500D03*
X159543750Y-54037500D03*
G04 #@! TD*
G04 #@! TO.C,D6*
X140493750Y-50737500D03*
X140493750Y-54037500D03*
G04 #@! TD*
G04 #@! TO.C,D5*
X121443750Y-50737500D03*
X121443750Y-54037500D03*
G04 #@! TD*
G04 #@! TO.C,D4*
X102393750Y-50737500D03*
X102393750Y-54037500D03*
G04 #@! TD*
G04 #@! TO.C,D3*
X73818750Y-50737500D03*
X73818750Y-54037500D03*
G04 #@! TD*
G04 #@! TO.C,D2*
X54768750Y-50737500D03*
X54768750Y-54037500D03*
G04 #@! TD*
G04 #@! TO.C,D1*
X35718750Y-50737500D03*
X35718750Y-54037500D03*
G04 #@! TD*
G04 #@! TO.C,C7*
G36*
G01*
X77730048Y-89523138D02*
X78410638Y-88842548D01*
G75*
G02*
X78790708Y-88842548I190035J-190035D01*
G01*
X79170778Y-89222618D01*
G75*
G02*
X79170778Y-89602688I-190035J-190035D01*
G01*
X78490188Y-90283278D01*
G75*
G02*
X78110118Y-90283278I-190035J190035D01*
G01*
X77730048Y-89903208D01*
G75*
G02*
X77730048Y-89523138I190035J190035D01*
G01*
G37*
G36*
G01*
X76404222Y-88197312D02*
X77084812Y-87516722D01*
G75*
G02*
X77464882Y-87516722I190035J-190035D01*
G01*
X77844952Y-87896792D01*
G75*
G02*
X77844952Y-88276862I-190035J-190035D01*
G01*
X77164362Y-88957452D01*
G75*
G02*
X76784292Y-88957452I-190035J190035D01*
G01*
X76404222Y-88577382D01*
G75*
G02*
X76404222Y-88197312I190035J190035D01*
G01*
G37*
G04 #@! TD*
G04 #@! TO.C,C6*
G36*
G01*
X83750452Y-94118862D02*
X83069862Y-94799452D01*
G75*
G02*
X82689792Y-94799452I-190035J190035D01*
G01*
X82309722Y-94419382D01*
G75*
G02*
X82309722Y-94039312I190035J190035D01*
G01*
X82990312Y-93358722D01*
G75*
G02*
X83370382Y-93358722I190035J-190035D01*
G01*
X83750452Y-93738792D01*
G75*
G02*
X83750452Y-94118862I-190035J-190035D01*
G01*
G37*
G36*
G01*
X85076278Y-95444688D02*
X84395688Y-96125278D01*
G75*
G02*
X84015618Y-96125278I-190035J190035D01*
G01*
X83635548Y-95745208D01*
G75*
G02*
X83635548Y-95365138I190035J190035D01*
G01*
X84316138Y-94684548D01*
G75*
G02*
X84696208Y-94684548I190035J-190035D01*
G01*
X85076278Y-95064618D01*
G75*
G02*
X85076278Y-95444688I-190035J-190035D01*
G01*
G37*
G04 #@! TD*
G04 #@! TO.C,C5*
G36*
G01*
X95873138Y-88957452D02*
X95192548Y-88276862D01*
G75*
G02*
X95192548Y-87896792I190035J190035D01*
G01*
X95572618Y-87516722D01*
G75*
G02*
X95952688Y-87516722I190035J-190035D01*
G01*
X96633278Y-88197312D01*
G75*
G02*
X96633278Y-88577382I-190035J-190035D01*
G01*
X96253208Y-88957452D01*
G75*
G02*
X95873138Y-88957452I-190035J190035D01*
G01*
G37*
G36*
G01*
X94547312Y-90283278D02*
X93866722Y-89602688D01*
G75*
G02*
X93866722Y-89222618I190035J190035D01*
G01*
X94246792Y-88842548D01*
G75*
G02*
X94626862Y-88842548I190035J-190035D01*
G01*
X95307452Y-89523138D01*
G75*
G02*
X95307452Y-89903208I-190035J-190035D01*
G01*
X94927382Y-90283278D01*
G75*
G02*
X94547312Y-90283278I-190035J190035D01*
G01*
G37*
G04 #@! TD*
G04 #@! TO.C,C4*
G36*
G01*
X87141888Y-73082452D02*
X86461298Y-72401862D01*
G75*
G02*
X86461298Y-72021792I190035J190035D01*
G01*
X86841368Y-71641722D01*
G75*
G02*
X87221438Y-71641722I190035J-190035D01*
G01*
X87902028Y-72322312D01*
G75*
G02*
X87902028Y-72702382I-190035J-190035D01*
G01*
X87521958Y-73082452D01*
G75*
G02*
X87141888Y-73082452I-190035J190035D01*
G01*
G37*
G36*
G01*
X85816062Y-74408278D02*
X85135472Y-73727688D01*
G75*
G02*
X85135472Y-73347618I190035J190035D01*
G01*
X85515542Y-72967548D01*
G75*
G02*
X85895612Y-72967548I190035J-190035D01*
G01*
X86576202Y-73648138D01*
G75*
G02*
X86576202Y-74028208I-190035J-190035D01*
G01*
X86196132Y-74408278D01*
G75*
G02*
X85816062Y-74408278I-190035J190035D01*
G01*
G37*
G04 #@! TD*
G04 #@! TO.C,C3*
G36*
G01*
X81019952Y-77164362D02*
X80339362Y-77844952D01*
G75*
G02*
X79959292Y-77844952I-190035J190035D01*
G01*
X79579222Y-77464882D01*
G75*
G02*
X79579222Y-77084812I190035J190035D01*
G01*
X80259812Y-76404222D01*
G75*
G02*
X80639882Y-76404222I190035J-190035D01*
G01*
X81019952Y-76784292D01*
G75*
G02*
X81019952Y-77164362I-190035J-190035D01*
G01*
G37*
G36*
G01*
X82345778Y-78490188D02*
X81665188Y-79170778D01*
G75*
G02*
X81285118Y-79170778I-190035J190035D01*
G01*
X80905048Y-78790708D01*
G75*
G02*
X80905048Y-78410638I190035J190035D01*
G01*
X81585638Y-77730048D01*
G75*
G02*
X81965708Y-77730048I190035J-190035D01*
G01*
X82345778Y-78110118D01*
G75*
G02*
X82345778Y-78490188I-190035J-190035D01*
G01*
G37*
G04 #@! TD*
G04 #@! TO.C,C1*
G36*
G01*
X96419750Y-77743000D02*
X97382250Y-77743000D01*
G75*
G02*
X97651000Y-78011750I0J-268750D01*
G01*
X97651000Y-78549250D01*
G75*
G02*
X97382250Y-78818000I-268750J0D01*
G01*
X96419750Y-78818000D01*
G75*
G02*
X96151000Y-78549250I0J268750D01*
G01*
X96151000Y-78011750D01*
G75*
G02*
X96419750Y-77743000I268750J0D01*
G01*
G37*
G36*
G01*
X96419750Y-75868000D02*
X97382250Y-75868000D01*
G75*
G02*
X97651000Y-76136750I0J-268750D01*
G01*
X97651000Y-76674250D01*
G75*
G02*
X97382250Y-76943000I-268750J0D01*
G01*
X96419750Y-76943000D01*
G75*
G02*
X96151000Y-76674250I0J268750D01*
G01*
X96151000Y-76136750D01*
G75*
G02*
X96419750Y-75868000I268750J0D01*
G01*
G37*
G04 #@! TD*
M02*
