M48
; DRILL file {KiCad (5.1.6)-1} date 06/30/20 22:31:10
; FORMAT={-:-/ absolute / inch / decimal}
; #@! TF.CreationDate,2020-06-30T22:31:10-04:00
; #@! TF.GenerationSoftware,Kicad,Pcbnew,(5.1.6)-1
; #@! TF.FileFunction,NonPlated,1,2,NPTH
FMAT,2
INCH
T1C0.0256
T2C0.0689
T3C0.1200
T4C0.1570
%
G90
G05
T1
X3.1987Y-1.6836
X3.4263Y-1.6836
T2
X7.05Y-3.375
X7.45Y-3.375
X9.675Y-1.875
X10.075Y-1.875
X5.925Y-4.125
X6.325Y-4.125
X4.8Y-3.375
X5.2Y-3.375
X1.8Y-2.625
X2.2Y-2.625
X10.8Y-3.375
X11.2Y-3.375
X2.55Y-4.125
X2.95Y-4.125
X7.9875Y-4.125
X8.3875Y-4.125
X5.55Y-3.375
X5.95Y-3.375
X12.3Y-3.375
X12.7Y-3.375
X6.7687Y-4.125
X7.1688Y-4.125
X5.175Y-4.125
X5.575Y-4.125
X12.1125Y-1.875
X12.5125Y-1.875
X5.3625Y-2.625
X5.7625Y-2.625
X7.425Y-1.875
X7.825Y-1.875
X6.3Y-3.375
X6.7Y-3.375
X1.05Y-2.625
X1.45Y-2.625
X5.925Y-1.875
X6.325Y-1.875
X1.8Y-3.375
X2.2Y-3.375
X3.7687Y-2.625
X4.1688Y-2.625
X5.175Y-1.875
X5.575Y-1.875
X4.425Y-4.125
X4.825Y-4.125
X9.2062Y-4.125
X9.6062Y-4.125
X1.8Y-4.125
X2.2Y-4.125
X7.6125Y-2.625
X8.0125Y-2.625
X3.675Y-1.875
X4.075Y-1.875
X8.175Y-1.875
X8.575Y-1.875
X6.8625Y-2.625
X7.2625Y-2.625
X6.675Y-1.875
X7.075Y-1.875
X8.55Y-3.375
X8.95Y-3.375
X8.925Y-1.875
X9.325Y-1.875
X3.8625Y-3.375
X4.2625Y-3.375
X3.675Y-4.125
X4.075Y-4.125
X2.55Y-2.625
X2.95Y-2.625
X1.05Y-1.875
X1.45Y-1.875
X10.05Y-4.125
X10.45Y-4.125
X9.3Y-3.375
X9.7Y-3.375
X9.8625Y-2.625
X10.2625Y-2.625
X10.05Y-3.375
X10.45Y-3.375
X10.425Y-1.875
X10.825Y-1.875
X12.3Y-4.125
X12.7Y-4.125
X1.05Y-4.125
X1.45Y-4.125
X4.6125Y-2.625
X5.0125Y-2.625
X11.55Y-4.125
X11.95Y-4.125
X9.1125Y-2.625
X9.5125Y-2.625
X1.8Y-1.875
X2.2Y-1.875
X11.55Y-3.375
X11.95Y-3.375
X11.3625Y-2.625
X11.7625Y-2.625
X10.6125Y-2.625
X11.0125Y-2.625
X12.2062Y-2.625
X12.6062Y-2.625
X4.425Y-1.875
X4.825Y-1.875
X1.05Y-3.375
X1.45Y-3.375
X6.1125Y-2.625
X6.5125Y-2.625
X11.175Y-1.875
X11.575Y-1.875
X7.8Y-3.375
X8.2Y-3.375
X10.8Y-4.125
X11.2Y-4.125
X8.3625Y-2.625
X8.7625Y-2.625
X2.55Y-3.375
X2.95Y-3.375
X2.55Y-1.875
X2.95Y-1.875
T3
X7.7188Y-3.85
X8.6562Y-3.85
T4
X11.75Y-4.125
X9.3125Y-2.625
X2.0Y-1.875
X11.75Y-3.375
X11.5625Y-2.625
X10.8125Y-2.625
X12.4062Y-2.625
X4.625Y-1.875
X1.25Y-3.375
X6.3125Y-2.625
X11.375Y-1.875
X8.0Y-3.375
X11.0Y-4.125
X8.5625Y-2.625
X2.75Y-3.375
X2.75Y-1.875
X7.25Y-3.375
X9.875Y-1.875
X6.125Y-4.125
X5.0Y-3.375
X2.0Y-2.625
X11.0Y-3.375
X2.75Y-4.125
X7.7188Y-4.45
X8.1875Y-4.125
X8.6562Y-4.45
X5.75Y-3.375
X12.5Y-3.375
X6.9688Y-4.125
X5.375Y-4.125
X12.3125Y-1.875
X5.5625Y-2.625
X7.625Y-1.875
X6.5Y-3.375
X1.25Y-2.625
X6.125Y-1.875
X2.0Y-3.375
X3.9688Y-2.625
X5.375Y-1.875
X4.625Y-4.125
X9.4062Y-4.125
X2.0Y-4.125
X7.8125Y-2.625
X3.875Y-1.875
X8.375Y-1.875
X7.0625Y-2.625
X6.875Y-1.875
X8.75Y-3.375
X9.125Y-1.875
X4.0625Y-3.375
X3.875Y-4.125
X2.75Y-2.625
X1.25Y-1.875
X10.25Y-4.125
X9.5Y-3.375
X10.0625Y-2.625
X10.25Y-3.375
X10.625Y-1.875
X12.5Y-4.125
X1.25Y-4.125
X4.8125Y-2.625
T0
M30
